<mxfile host="app.diagrams.net" modified="2023-11-17T17:14:42.171Z" agent="Mozilla/5.0 (Macintosh; Intel Mac OS X 10_15_7) AppleWebKit/537.36 (KHTML, like Gecko) Chrome/119.0.0.0 Safari/537.36" etag="bs3CHmkMKJ_jD5pJDA9-" version="22.1.3" type="device" pages="4">
  <diagram name="Tank View" id="gnNgWSUgL7eJWIWLm2-H">
    <mxGraphModel dx="714" dy="450" grid="1" gridSize="10" guides="1" tooltips="1" connect="1" arrows="1" fold="1" page="1" pageScale="1" pageWidth="850" pageHeight="1100" math="0" shadow="0">
      <root>
        <mxCell id="0" />
        <mxCell id="1" parent="0" />
        <mxCell id="LOHa1x4Et9vY7Z-8OYCL-1" value="" style="rounded=1;whiteSpace=wrap;html=1;rotation=-90;" vertex="1" parent="1">
          <mxGeometry x="115" y="225" width="620" height="270" as="geometry" />
        </mxCell>
        <mxCell id="LOHa1x4Et9vY7Z-8OYCL-7" value="" style="rounded=0;whiteSpace=wrap;html=1;" vertex="1" parent="1">
          <mxGeometry x="300" y="202.5" width="250" height="135" as="geometry" />
        </mxCell>
        <mxCell id="LOHa1x4Et9vY7Z-8OYCL-9" value="" style="triangle;whiteSpace=wrap;html=1;" vertex="1" parent="1">
          <mxGeometry x="340" y="255" width="30" height="40" as="geometry" />
        </mxCell>
        <mxCell id="LOHa1x4Et9vY7Z-8OYCL-10" value="" style="ellipse;whiteSpace=wrap;html=1;aspect=fixed;" vertex="1" parent="1">
          <mxGeometry x="360" y="245" width="60" height="60" as="geometry" />
        </mxCell>
        <mxCell id="LOHa1x4Et9vY7Z-8OYCL-11" value="" style="ellipse;whiteSpace=wrap;html=1;aspect=fixed;" vertex="1" parent="1">
          <mxGeometry x="415" y="230" width="15" height="15" as="geometry" />
        </mxCell>
        <mxCell id="LOHa1x4Et9vY7Z-8OYCL-12" value="" style="ellipse;whiteSpace=wrap;html=1;aspect=fixed;" vertex="1" parent="1">
          <mxGeometry x="430" y="210" width="20" height="20" as="geometry" />
        </mxCell>
        <mxCell id="LOHa1x4Et9vY7Z-8OYCL-13" value="" style="rounded=0;whiteSpace=wrap;html=1;fillColor=#f5f5f5;fontColor=#333333;strokeColor=#666666;" vertex="1" parent="1">
          <mxGeometry x="490" y="70" width="50" height="10" as="geometry" />
        </mxCell>
        <mxCell id="LOHa1x4Et9vY7Z-8OYCL-15" value="" style="rounded=0;whiteSpace=wrap;html=1;fillColor=#f5f5f5;fontColor=#333333;strokeColor=#666666;" vertex="1" parent="1">
          <mxGeometry x="490" y="90" width="50" height="10" as="geometry" />
        </mxCell>
        <mxCell id="LOHa1x4Et9vY7Z-8OYCL-16" value="" style="rounded=0;whiteSpace=wrap;html=1;fillColor=#f5f5f5;fontColor=#333333;strokeColor=#666666;" vertex="1" parent="1">
          <mxGeometry x="490" y="110" width="50" height="10" as="geometry" />
        </mxCell>
        <mxCell id="LOHa1x4Et9vY7Z-8OYCL-18" value="&lt;b&gt;Logo&lt;/b&gt;" style="text;html=1;strokeColor=none;fillColor=none;align=center;verticalAlign=middle;whiteSpace=wrap;rounded=0;" vertex="1" parent="1">
          <mxGeometry x="300" y="60" width="60" height="30" as="geometry" />
        </mxCell>
        <mxCell id="LOHa1x4Et9vY7Z-8OYCL-20" value="" style="rounded=1;whiteSpace=wrap;html=1;" vertex="1" parent="1">
          <mxGeometry x="320" y="360" width="220" height="90" as="geometry" />
        </mxCell>
        <mxCell id="LOHa1x4Et9vY7Z-8OYCL-21" value="&lt;b&gt;Gerald&lt;/b&gt;" style="text;html=1;strokeColor=none;fillColor=none;align=left;verticalAlign=middle;whiteSpace=wrap;rounded=0;" vertex="1" parent="1">
          <mxGeometry x="330" y="360" width="40" height="30" as="geometry" />
        </mxCell>
        <mxCell id="LOHa1x4Et9vY7Z-8OYCL-23" value="" style="triangle;whiteSpace=wrap;html=1;" vertex="1" parent="1">
          <mxGeometry x="490" y="365" width="20" height="25" as="geometry" />
        </mxCell>
        <mxCell id="LOHa1x4Et9vY7Z-8OYCL-24" value="" style="ellipse;whiteSpace=wrap;html=1;aspect=fixed;" vertex="1" parent="1">
          <mxGeometry x="500" y="362.5" width="30" height="30" as="geometry" />
        </mxCell>
        <mxCell id="LOHa1x4Et9vY7Z-8OYCL-27" value="Status: Hungry" style="text;html=1;strokeColor=none;fillColor=none;align=left;verticalAlign=middle;whiteSpace=wrap;rounded=0;" vertex="1" parent="1">
          <mxGeometry x="330" y="380" width="85" height="30" as="geometry" />
        </mxCell>
        <mxCell id="LOHa1x4Et9vY7Z-8OYCL-29" value="&lt;b&gt;Feed&lt;/b&gt;" style="rounded=1;whiteSpace=wrap;html=1;" vertex="1" parent="1">
          <mxGeometry x="370" y="420" width="120" height="20" as="geometry" />
        </mxCell>
        <mxCell id="LOHa1x4Et9vY7Z-8OYCL-30" value="" style="rounded=1;whiteSpace=wrap;html=1;" vertex="1" parent="1">
          <mxGeometry x="320" y="480" width="220" height="90" as="geometry" />
        </mxCell>
        <mxCell id="LOHa1x4Et9vY7Z-8OYCL-31" value="&lt;b&gt;Fido&lt;/b&gt;" style="text;html=1;strokeColor=none;fillColor=none;align=left;verticalAlign=middle;whiteSpace=wrap;rounded=0;" vertex="1" parent="1">
          <mxGeometry x="330" y="480" width="40" height="30" as="geometry" />
        </mxCell>
        <mxCell id="LOHa1x4Et9vY7Z-8OYCL-32" value="" style="triangle;whiteSpace=wrap;html=1;" vertex="1" parent="1">
          <mxGeometry x="490" y="485" width="20" height="25" as="geometry" />
        </mxCell>
        <mxCell id="LOHa1x4Et9vY7Z-8OYCL-33" value="Status: Happy" style="text;html=1;strokeColor=none;fillColor=none;align=left;verticalAlign=middle;whiteSpace=wrap;rounded=0;" vertex="1" parent="1">
          <mxGeometry x="330" y="500" width="85" height="30" as="geometry" />
        </mxCell>
        <mxCell id="LOHa1x4Et9vY7Z-8OYCL-34" value="&lt;b&gt;Feed&lt;/b&gt;" style="rounded=1;whiteSpace=wrap;html=1;" vertex="1" parent="1">
          <mxGeometry x="370" y="540" width="120" height="20" as="geometry" />
        </mxCell>
        <mxCell id="LOHa1x4Et9vY7Z-8OYCL-35" value="" style="ellipse;whiteSpace=wrap;html=1;aspect=fixed;" vertex="1" parent="1">
          <mxGeometry x="500" y="482.5" width="30" height="30" as="geometry" />
        </mxCell>
        <mxCell id="LOHa1x4Et9vY7Z-8OYCL-37" value="" style="triangle;whiteSpace=wrap;html=1;rotation=-180;" vertex="1" parent="1">
          <mxGeometry x="490" y="255" width="20" height="25" as="geometry" />
        </mxCell>
        <mxCell id="LOHa1x4Et9vY7Z-8OYCL-38" value="" style="ellipse;whiteSpace=wrap;html=1;aspect=fixed;" vertex="1" parent="1">
          <mxGeometry x="470" y="255" width="30" height="30" as="geometry" />
        </mxCell>
        <mxCell id="LOHa1x4Et9vY7Z-8OYCL-39" value="&lt;b&gt;Jaden&#39;s Tank&lt;/b&gt;" style="text;html=1;strokeColor=none;fillColor=none;align=left;verticalAlign=middle;whiteSpace=wrap;rounded=0;" vertex="1" parent="1">
          <mxGeometry x="307.5" y="160" width="95" height="30" as="geometry" />
        </mxCell>
        <mxCell id="LOHa1x4Et9vY7Z-8OYCL-40" value="" style="shape=image;verticalLabelPosition=bottom;labelBackgroundColor=default;verticalAlign=top;aspect=fixed;imageAspect=0;image=data:image/png,iVBORw0KGgoAAAANSUhEUgAAAHgAAAByCAYAAACY/xW0AAAMP2lDQ1BJQ0MgUHJvZmlsZQAASImVVwdYU8kWnluSkEBoAQSkhN4EkRpASggt9I5gIyQBQokxEFTsyKKCa0FFBGzoqoiCFRA7YmdR7H2xoKKsiwW78iYFdN1XvjffN3f++8+Z/5w5M7cMAGrHOSJRDqoOQK4wXxwb7E8fl5xCJz0FFKAOdAAJEDncPBEzOjocwDLU/r28uw4QaXvFXqr1z/7/WjR4/DwuAEg0xGm8PG4uxPsBwGu4InE+AEQpbzYtXyTFsAItMQwQ4kVSnCHHNVKcJse7ZTbxsSyI2wFQUuFwxBkAqF6CPL2AmwE1VPshdhTyBEIA1OgQ++TmTuFBnAqxNbQRQSzVZ6T9oJPxN820YU0OJ2MYy+ciK0oBgjxRDmfG/5mO/11ycyRDPixhVckUh8RK5wzzdjN7SpgUq0DcJ0yLjIJYE+IPAp7MHmKUkikJSZDbowbcPBbMGVxngDryOAFhEBtAHCTMiQxX8GnpgiA2xHCHoNMF+ex4iHUhXsTPC4xT2GwUT4lV+EKb0sUspoI/yxHL/Ep93ZdkJzAV+q8z+WyFPqZamBmfBDEFYvMCQWIkxKoQO+Rlx4UpbMYWZrIih2zEklhp/OYQx/KFwf5yfawgXRwUq7Avzc0bmi+2MVPAjlTgvfmZ8SHy/GDtXI4sfjgX7BJfyEwY0uHnjQsfmguPHxAonzv2jC9MiFPofBDl+8fKx+IUUU60wh435ecES3lTiF3yCuIUY/HEfLgh5fp4uig/Ol4eJ16YxQmNlseDLwfhgAUCAB1IYE0DU0AWEHT2NffBO3lPEOAAMcgAfGCvYIZGJMl6hPAaBwrBnxDxQd7wOH9ZLx8UQP7rMCu/2oN0WW+BbEQ2eAJxLggDOfBeIhslHPaWCB5DRvAP7xxYuTDeHFil/f+eH2K/M0zIhCsYyZBHutqQJTGQGEAMIQYRbXB93Af3wsPh1Q9WJ5yBewzN47s94Qmhi/CQcI3QTbg1WVAk/inKCNAN9YMUuUj7MRe4JdR0xf1xb6gOlXEdXB/Y4y7QDxP3hZ5dIctSxC3NCv0n7b/N4IfVUNiRHckoeQTZj2z980hVW1XXYRVprn/MjzzWtOF8s4Z7fvbP+iH7PNiG/WyJLcL2YWewE9g57DDWDOjYMawF68COSPHw7nos211D3mJl8WRDHcE//A2trDSTeY71jr2OX+R9+fzp0nc0YE0RzRALMjLz6Uz4ReDT2UKuwyi6k6OTMwDS74v89fUmRvbdQHQ6vnML/gDA+9jg4OCh71zoMQD2uMPH/+B3zpoBPx3KAJw9yJWIC+QcLr0Q4FtCDT5pesAImAFrOB8n4Aa8gB8IBKEgCsSDZDAJRp8J97kYTAOzwHxQAsrAcrAaVIENYDPYDnaBvaAZHAYnwGlwAVwC18AduHt6wAvQD96BzwiCkBAqQkP0EGPEArFDnBAG4oMEIuFILJKMpCIZiBCRILOQBUgZUo5UIZuQOmQPchA5gZxDupBbyAOkF3mNfEIxVAXVQg1RS3Q0ykCZaBgaj05EM9CpaCFajC5FK9FadCfahJ5AL6DX0G70BTqAAUwZ08FMMHuMgbGwKCwFS8fE2BysFKvAarEGrBWu8xWsG+vDPuJEnIbTcXu4g0PwBJyLT8Xn4EvwKnw73oS341fwB3g//o1AJRgQ7AieBDZhHCGDMI1QQqggbCUcIJyCz1IP4R2RSNQhWhHd4bOYTMwiziQuIa4jNhKPE7uIj4gDJBJJj2RH8iZFkTikfFIJaS1pJ+kY6TKph/RBSVnJWMlJKUgpRUmoVKRUobRD6ajSZaWnSp/J6mQLsic5iswjzyAvI28ht5IvknvInykaFCuKNyWekkWZT6mkNFBOUe5S3igrK5sqeyjHKAuU5ylXKu9WPqv8QPmjiqaKrQpLZYKKRGWpyjaV4yq3VN5QqVRLqh81hZpPXUqto56k3qd+UKWpOqiyVXmqc1WrVZtUL6u+VCOrWagx1SapFapVqO1Tu6jWp05Wt1RnqXPU56hXqx9Uv6E+oEHTGKMRpZGrsURjh8Y5jWeaJE1LzUBNnmax5mbNk5qPaBjNjMaicWkLaFtop2g9WkQtKy22VpZWmdYurU6tfm1NbRftRO3p2tXaR7S7dTAdSx22To7OMp29Otd1Po0wHMEcwR+xeETDiMsj3uuO1PXT5euW6jbqXtP9pEfXC9TL1luh16x3Tx/Xt9WP0Z+mv17/lH7fSK2RXiO5I0tH7h152wA1sDWINZhpsNmgw2DA0Mgw2FBkuNbwpGGfkY6Rn1GW0Sqjo0a9xjRjH2OB8SrjY8bP6dp0Jj2HXklvp/ebGJiEmEhMNpl0mnw2tTJNMC0ybTS9Z0YxY5ilm60yazPrNzc2jzCfZV5vftuCbMGwyLRYY3HG4r2llWWS5ULLZstnVrpWbKtCq3qru9ZUa1/rqda11ldtiDYMm2ybdTaXbFFbV9tM22rbi3aonZudwG6dXdcowiiPUcJRtaNu2KvYM+0L7OvtHzjoOIQ7FDk0O7wcbT46ZfSK0WdGf3N0dcxx3OJ4Z4zmmNAxRWNax7x2snXiOlU7XXWmOgc5z3VucX7lYufCd1nvctOV5hrhutC1zfWrm7ub2K3Brdfd3D3Vvcb9BkOLEc1YwjjrQfDw95jrcdjjo6ebZ77nXs+/vOy9sr12eD0bazWWP3bL2Efept4c703e3T50n1SfjT7dvia+HN9a34d+Zn48v61+T5k2zCzmTuZLf0d/sf8B//csT9Zs1vEALCA4oDSgM1AzMCGwKvB+kGlQRlB9UH+wa/DM4OMhhJCwkBUhN9iGbC67jt0f6h46O7Q9TCUsLqwq7GG4bbg4vDUCjQiNWBlxN9IiUhjZHAWi2FEro+5FW0VPjT4UQ4yJjqmOeRI7JnZW7Jk4WtzkuB1x7+L945fF30mwTpAktCWqJU5IrEt8nxSQVJ7UPW70uNnjLiTrJwuSW1JIKYkpW1MGxgeOXz2+Z4LrhJIJ1ydaTZw+8dwk/Uk5k45MVpvMmbwvlZCalLoj9QsnilPLGUhjp9Wk9XNZ3DXcFzw/3ipeL9+bX85/mu6dXp7+LMM7Y2VGb6ZvZkVmn4AlqBK8ygrJ2pD1Pjsqe1v2YE5STmOuUm5q7kGhpjBb2D7FaMr0KV0iO1GJqHuq59TVU/vFYeKteUjexLyWfC34I98hsZb8InlQ4FNQXfBhWuK0fdM1pgund8ywnbF4xtPCoMLfZuIzuTPbZpnMmj/rwWzm7E1zkDlpc9rmms0tntszL3je9vmU+dnzfy9yLCoversgaUFrsWHxvOJHvwT/Ul+iWiIuubHQa+GGRfgiwaLOxc6L1y7+VsorPV/mWFZR9mUJd8n5X8f8Wvnr4NL0pZ3L3JatX05cLlx+fYXviu3lGuWF5Y9WRqxsWkVfVbrq7erJq89VuFRsWENZI1nTXRle2bLWfO3ytV+qMquuVftXN9YY1Cyueb+Ot+7yer/1DRsMN5Rt+LRRsPHmpuBNTbWWtRWbiZsLNj/ZkrjlzG+M3+q26m8t2/p1m3Bb9/bY7e117nV1Owx2LKtH6yX1vTsn7Ly0K2BXS4N9w6ZGncay3WC3ZPfzPal7ru8N29u2j7GvYb/F/poDtAOlTUjTjKb+5szm7pbklq6DoQfbWr1aDxxyOLTtsMnh6iPaR5YdpRwtPjp4rPDYwHHR8b4TGScetU1uu3Ny3Mmr7THtnafCTp09HXT65BnmmWNnvc8ePud57uB5xvnmC24XmjpcOw787vr7gU63zqaL7hdbLnlcau0a23X0su/lE1cCrpy+yr564Vrkta7rCddv3phwo/sm7+azWzm3Xt0uuP35zry7hLul99TvVdw3uF/7h80fjd1u3UceBDzoeBj38M4j7qMXj/Mef+kpfkJ9UvHU+GndM6dnh3uDei89H/+854Xoxee+kj81/qx5af1y/19+f3X0j+vveSV+Nfh6yRu9N9veurxtG4geuP8u993n96Uf9D5s/8j4eOZT0qenn6d9IX2p/GrztfVb2Le7g7mDgyKOmCP7FcBgRdPTAXi9DQBqMgA0eD6jjJef/2QFkZ9ZZQj8Jyw/I8qKGwAN8P89pg/+3dwAYPcWePyC+moTAIimAhDvAVBn5+E6dFaTnSulhQjPARujvqblpoF/U+Rnzh/i/rkFUlUX8HP7Ly0YfEb83gjCAAAAlmVYSWZNTQAqAAAACAAFARIAAwAAAAEAAQAAARoABQAAAAEAAABKARsABQAAAAEAAABSASgAAwAAAAEAAgAAh2kABAAAAAEAAABaAAAAAAAAAJAAAAABAAAAkAAAAAEAA5KGAAcAAAASAAAAhKACAAQAAAABAAAAeKADAAQAAAABAAAAcgAAAABBU0NJSQAAAFNjcmVlbnNob3R+QTpKAAAACXBIWXMAABYlAAAWJQFJUiTwAAAC22lUWHRYTUw6Y29tLmFkb2JlLnhtcAAAAAAAPHg6eG1wbWV0YSB4bWxuczp4PSJhZG9iZTpuczptZXRhLyIgeDp4bXB0az0iWE1QIENvcmUgNi4wLjAiPgogICA8cmRmOlJERiB4bWxuczpyZGY9Imh0dHA6Ly93d3cudzMub3JnLzE5OTkvMDIvMjItcmRmLXN5bnRheC1ucyMiPgogICAgICA8cmRmOkRlc2NyaXB0aW9uIHJkZjphYm91dD0iIgogICAgICAgICAgICB4bWxuczpleGlmPSJodHRwOi8vbnMuYWRvYmUuY29tL2V4aWYvMS4wLyIKICAgICAgICAgICAgeG1sbnM6dGlmZj0iaHR0cDovL25zLmFkb2JlLmNvbS90aWZmLzEuMC8iPgogICAgICAgICA8ZXhpZjpVc2VyQ29tbWVudD5TY3JlZW5zaG90PC9leGlmOlVzZXJDb21tZW50PgogICAgICAgICA8ZXhpZjpQaXhlbFhEaW1lbnNpb24+MTIwPC9leGlmOlBpeGVsWERpbWVuc2lvbj4KICAgICAgICAgPGV4aWY6UGl4ZWxZRGltZW5zaW9uPjExNDwvZXhpZjpQaXhlbFlEaW1lbnNpb24+CiAgICAgICAgIDx0aWZmOlJlc29sdXRpb25Vbml0PjI8L3RpZmY6UmVzb2x1dGlvblVuaXQ+CiAgICAgICAgIDx0aWZmOlhSZXNvbHV0aW9uPjE0NC8xPC90aWZmOlhSZXNvbHV0aW9uPgogICAgICAgICA8dGlmZjpZUmVzb2x1dGlvbj4xNDQvMTwvdGlmZjpZUmVzb2x1dGlvbj4KICAgICAgICAgPHRpZmY6T3JpZW50YXRpb24+MTwvdGlmZjpPcmllbnRhdGlvbj4KICAgICAgPC9yZGY6RGVzY3JpcHRpb24+CiAgIDwvcmRmOlJERj4KPC94OnhtcG1ldGE+CtDzbp8AACexSURBVHgB7Z0HlGRXeef/lWPn3D09PZqcmVEYoYgACVYCIWFgSWbX7MKa413AGzDGizHBx2fXASMMLAiMgbOYIINBIoOQNIpo8owm9KSe6emcK+eq/X2vujWSAB+fs/R0T9NPel2vql699+793y/9v+/ecVXYtLwt2R5wL9mWLTfM6YFlgJf4QFgGeBngJd4DS7x5yxK8DPAS74El3rxlCV4GeIn3wBJv3rIELwO8xHtgiTdvWYKXAV7iPbDEm7cswcsAL/EeWOLNW5bgZYCXeA8s8eYtS/AywEu8B5Z485YleBngJd4DS7x5yxK8DPAS74El3rxlCV4GeIn3wBJv3rIELwO8xHtgiTdvWYKXAV7iPbDEm7cswUscYO8Sb58mkyWdGZpRKj6tmf6jOnV4j0YmEppIFnTo8DGt9I9psigVvSHVh4Na3dGl7rVbdO3L7tDOHdvUVBe8rLvItRSnj54cjutQf0Z7++Ma7jurxnSvSuce00j/GbWtXK9ItEFjgwMa7j+nSMCnqekZ5UsVpfMFDY9PKJHNyxeqUSyV1rv+4qt62U1Xa+eaDq3tuPzAXjIAZ/IlPXxsXD8/OqXpnEfZkfPK9J/U6DMPaEOrX7GhEyp7vGpbtVaJdFbBoF/xeFJZFVTOFjU5NKaZWEKpYk6JTEalikdueeXO5TVdbNbdf/J32nn1zbpmlV+3bKlTyH95WLfLHuBMvqgfHRrXjw4Mq1DyqFzI6NyjX9HZ3X+vpuag6rx1yriCitY3ylfKqaUuqrHJmHy+sCYmJlTf0aAKg6OQLig2HVe2WFYsnVRdfb0CXp9y42c1mvHKXwzqtv/+aYW7XySFpds3N+q2HW0A7VnUKvyyBvjBZyZ0/764csmM3DVuDR3/ufq+/knlZsalujp1+/wqlcdV39ohbzCofDGvwYlJBaJ1qhRyqvGX5fM0qJBNyc/350cTyrkicrnL2r62QcoMqffMlCL+sBIT42rYdLs2veOjSLaP62ZVi82+Y0eHXrq1adGCfFk6WYNTWd331IhODCYV8lRUiESUP31Yez/5IQUDM/I3t8kNaJ66mNb0rFV7Y0SZREIN7euULazVqrZmVVJxhQMB9c2kNTw6qOGxcdV4U9rQ2aZyqaSwq6BEqazu1nZNA27SG5G7MqnaSlAJBo4XbZBDM3zr6TEduZDS665tU1djYNEBfdlJ8KMnpvW1J4al2ZVFSuWiKuO9+sE9f6gGX0bFcKM8dP7m1jrd+aq7tLozqFIureb2ThynqBobauQv51Usu5QtoXrdJWWwuelUStOjoxodGNCJ42eQ9LgGxmIaSibkcbux3zVKDp3Tyz/3NM6YR153RGVXSD5X6llQ33hdm27YUP/s+8VwcFlJ8LeRlp8/M4mKdMn+t61SKesH//DnqqSHVW5tUxtC1OSXdl29Wu3tUnNXt1q71zrnRiN+5acnVaw0KBysUxmprrjzagjW400n1dbaqVWbN+uG292avHBe/Sd6deDISe0/PazRFBIdYlAkXWqsDWLXwwpkxpXDllefo6JvPjmq8XhBd1/T4ny2GP5cNgB/ZfeQDg3FVPH4VS4m5A+1yFuM6cR3P6HY4EmtamlU0IXf6/Uq2t6iHS+6BnW7QvUrerCzbrl9PhXziH2oEd8YtV7Kyx/2yU1olM9lkeiSXHnCIxYdKmRyCkXqtW7nNerp2ajVJ47rwd2HNFyqUyAccFR40TUuT7Rebux6dauOuN2900rhtL31BkbXItguC4A//8iInjkXk8dblttVASyPgj6XEpMj2vPDf1ZXV6tyBDxBQKxHSq/c2MNAcKlu9Vr53C6cJlRsuSzx6nET/thnLpcq5QoaoOh8Vy4WeM85phwYENxIxWJJZcKhnpWrtGtrQQOVQRWnR+RrX6m6AHYfqa7YuS/YDpxPMmBG9O9vWniQf/npXvCwC/32Hx8f1tGhNDaPcKRSQhpd8tOpXuU1dvqAIq6kGqJBwA2rpqZGa1a3qaMDO4t0psrEsR5CJyTWdgPa4/fJ5WNc83n1Fel2jrk+96igBVxevmOvAHIFTzvg96uzpU6bWhs1fXKvMkWkPFvC6WLnur9qP3ohga8wutDdx7Mt4u2BA+Pa3xdH6iryAqyHDrewE5yIXVMaPvGEos0RwhiX2iNhaMZWBSI+RZpr1GbHJVXBtbXekFiPAcuPzW4XSwWVkNoixybtbo/POaeCBLtdHvm8fvl9Abm5oYVYtU0hdTcFles7oDBS7cdUECY7z2TP9av2w/0J/eDg1IL28KIF+BdnYnq0d4belryoZS/AuM3GGlBIXBGA0yPH1bV+NdJWVHtTQI11fiT4Cs3EMyLolSeTBkwkd/Y3Bq4dl1DFzg646GO5QcqLendjvx15NJA514u0+5Fed9ivEINmRVedOjwJJc/3yuPit0FT986Y+bWvT5yKac/Z+IKBvCgBHpnJ6bv7xpAKwKXTrTNdSLF1uguZ9CBdpUJeNZUEIVBZzS31CjX41QwInkJZPU1dSHiRmDfh/MbCHAMWtB3A7To2SDxc2wu4HqTXyzXtM87i2gwAuGnOUpAkRCDkV6SuQSva67Wps0YTh3ernE/OXtuk+F/ev3dgUqOxOWfs0mK9KAH+weEJAK1KhtdnkguofGAA2OYygMsFNRC2dNY3qLWpSRs2rFNrW4tqwmHFpiaVIAQq8VvhSNlmDpQRGCbRdh0bOA7ofFfi82KReJrY2ITaHLIKJIf91u0OEEIFFCAsUj6rhojUCeER9GCbKwwQ8wf+hd0Gk+0/PjLtPMel/rPoAH7y9Iz6xjNO51vH2GZSa4duHB9TqS63VwVCkRAA1kUjqgtHFcWr9bt9itaEFG0Iyx30KhSNVkEFLAOtjFeMtq+OHF5KgGrA5gmP8oRL9t6R8tnz7c4YaE2Ojmjw1AXFJ8aUS8fVGiwpMT2uUAX1PQvgr3t1cUPbz01k9Iszl15VL6owKYtqfPTEFKEN/Wq6EouYRzWHCYtKJfI+aY6jjcSwLgWFfa6tU0NXjXzlgOP1ll0ZTQ2kYK2a1Lm+hd/5lUL9AjPqegZvOKJKsEbZdFne8WkNJs7JHUsrA7NVU0wqzyBQTVQu0oVhby1gjinOPafHD6qUKGhwZlLxkZx8OGd1voiywRzXzipd8DKA0AgMEFP5FX+IgZPH08/Adl2Uocd7J7VjZVQBa+Al2hYVwE+emlGOEKQquXQ2m7dMuEI4Im9FwZogoUsWQqKsoEmtH682SQhVC/lfKGp8ZAShc2nzjq2qDTWrQGf7Te1mCgp4wuo7P6HB8RPqPXJEqcFhDZ7tU+/4eXnzOa2/YpPWrYT16lmhls52NfqGFU/FlDh7TmfgovvHXeSYpzQ5c0EdeNc7Jo8r0F2HN87gw6MO1deolI1BksShL2kDA9Tten738thIcUw3bySRcYm25z/BJbrpr7pNDund25dwwiH73lwc26LuoLKZrDwBi4+QlFIcsAAtUqtIqAE76FYE0qMI3xyJEv9GfepavU6BmhUamk7q4OkBPfLoQf3tZ77Odw3aGErqU3/2FjXv6tToyBU6t++QijPTShY8Sk0O6vBwv/KegHZClsQmpnXq5IiOxabUXlvW1VGkesV6lWLjOv2jexWgWqSCBHdu3mVoOiFcNBJSLpvD8SLE4jquSsFpR/WPS/sgQa5dAyN2iaR40QB8kJixjANkodBztBowFxUiDi15sJWQC4GQG1BdVFtAYoTrlUFdrwjVaWx6gqzQkGOvT4zdry9/Z7+GBqb0SqSte61f97x+g9bfeKMOnezVpu2b9dCeJ9V/clT9p0ZVi2pd3Yy010e1vmONGrZdpXff8w86tOewNjfX6g07VyiGR352gkwVz7BuVYeaem7RlDevkbN7NBMKqKe2FRImrFI6QZYqCg0De4bHNutGgG91wJrPd3ggqWuuqH0O8PN3uGgAPkajjSwwFeuyGHN2K2J7Q/4A9rGEI4VEOH5PhVqpiI6RAfIlJvTwhV49vL9XFdis67av0R23rdfv/86rVEsiYSZW0ulzD2rgZ4/oyW8c11PjZImO7tf123aqNDCqEGxIEa96muTDtbfcqSvWbNLg8KCubqjTH7zrbfrQ5/+v9lHTFQjivHFzD9rjyPmTaoluUU1kAx58o9Zu3KgMz16xZ4yGlTKNg/mgJbOwPt/mHh9K/XYBPDiVUyxTcjqviqvFrdXwxtinMqxTyB9VmtRdOBxRjoR8t3tYb37PO7DPWT2+b6+u3bodJ8elbVdv1a5rr0ObhxSnHKdrRY0at6/UdVe+SueOnVffFz6pFtRj4uxZtaPKNzatUjGTVAe/b4PmnMEEHDx3Vnfd/jLdev3LdX6yoMzph9VQ1wKrJa0kUZTM+tX4qvdosnOjRvaSoQo0KUgasoijls2lYNNQzwyGYg71PBvaWbscv5HXeKaioZk8IR4XnOdtUUhw30R21rGiE/Caq9BWu6OMVHgAJIuj5AuVCWeKckEVbneRaP/6Z1W/YZNec+NN0o3Sd77+DdX7UI65SWxfGI66kU5PUV9VkAsSZP2tN+ol08Ocf7MOPvADRde1q6GtnvxxWTV1K+SpBHT48HFKLGv04pfcLGHn33DrdfrgwZ/q5jVcL4BpKKTlKvs1M/mMim2Nmin41FHToEw2TaxeUATKNJ0pUhJk0l5R0bQSW3W8zkLMy/lxbPclAPj5umOeR9Ovu3z/hDklRvqbhkatmSrkvansAB6qfRatqUWCitjggEJhpPr0L+Q+d0orYK1O7TkhVyis2g0rFWxqUYkLlSkEKI1R1VHC+apE5fM3qoJXvXHnFh0f6tOa7RvVvaJTja5a1dZ0KZBFrWLPA2EPcXWGNGMD95tW55pW3XDNzSrBfk7ncfiIfcuFesWTOdVCftSS1Aji5dfynGGFIEPw9MthBik0JkA6BI2RNLPtmXs/MHVpmK0Fl+BkrqQ4RAMFj85WlV47nJVjV4I4dwVSk4BY8Chn1GKZdFxkvVa+9E613fkOtU6e08BPv6sbdl6lybSUAwQDyxXywCVDSIGOtxSCI/Hqys07NXzkuJ78/g+1cm2PkmW30jBZNYGK+i+c0OmnevXRe7+kPBrDRSTrC9Xq9pdfpf/1yS8rGu7W9VetJlSj7PbUAY0VXFp3w+0YAnMOC5iFqv9Qg+RWKgAIv23s9vO3qhTH0UQpaNZIYH5lbMEBHoshvbS5Smxc7Iq5995KCMrR1CJOjPyUu+XoNLemW1ZonWdCmd6f6dS9H1HSE1XXna9T7eSo3NNjeLTw0rXkeksRZImOh04sFLCJsF0rt26AxEgQs6bUYDXRqUE86iPUbWX1wY/8GeAgf+SePUaMRIpqpdTnFRu2KOXOqaGxoGx2XKs9dYrc8GolZrWOPblpGtvt97Y5r7O+xC81kDaMJfK6IjC/tdYLDvA09sptCM9uTgfNveEV1hjVigQWUH3YVcFWeSl8G2tZqTUuylzP4Alv2KXu17yK2irwy/hVoPM9AFmm8yg6I1NEHQ8db1rB/rrJHxvInlRWyTEcrx/v0amDZ/WW//Z++akGqVQyysUr8iUrSk2PagJT0B4t6tR4n3ra1hOuFXT2yBkkuUBKEbX8S9vF9jgkjfP9CyUVe565GC380iV+Qx8sOMBJ4krvrCMy1yaTXgPaNoPESyzsxfnyQHSU8Eo9ebdSvloNRTu0rSWkyrrtJPghPaikzETJ4k3AXgdhr3KATCYIxNitRBZxw7NN4XiJkh03pTl9ex7Vnqf36eY3v0nuSKMe/ccv6Cf33a8MYc7Nm7do87bNOnxiv5J48DPTCV04NaA13Z2q15TG0yPyR66oSqo966zkOg/+7J85sO0Zng9yAjU939uCA5zKAZ71wa8A2RpfgeBwF4h/PVRzcE4ZaXQXcVpKRQ0GW9Sdi6s+MI1dplYKyS7nSBFGUMeEVy7jlhkoRbhjN6GVi6L2ChkhNxIao1T23ENP6vGHfqJAY5c2EQPnUzndcNebtHn7tTpx5pBip0/oOEUFiXReGeq5aiMd2rNnrxRbyfjIyh8IY17MdFQ3ezWQ5wbn7McXX+bUtaNHKLvG/5jv7flDar7v9iuuX8DBsSSRVW1UKzegnXk/tzN1iCyRAcyPDWzztn1lRQEvDTmx37+aZAEU4lQMXhMPGOYJjl8B1SmJA2NpQrO/ZQZEPjWjUnJKM2dP6dzep3X8yB7se1G3ve2d8NyNqqll8EBn+ltatHEDjBasVgIPOE0BQR2JCyvRwTdXegq73dCj2o4Ontme/eJerTypvq8eY8sZXM89p9pWF/OhfgtUtDXR44jwRfTnJMIkgbQrIJiAE/ogAX5SfrjVOFsuVK6fIvRmPUzh3IugKsOxZ5SZ7Fdb11pNkHzo8FEaa8kLP/Eo+eNMhhwxCYSzh/frzDMHFacqs2fzVVpFcmGs94TSCeLn6ZwqxbRCeOCdneuJqz3aP/MED2CkaZzB5Udii/Kvu1GpEjMi3IREcw88K5kXW2JHczI0p6pnv8UOVT2C55/9m3634CoaHeqoOWvYnOc810jrNy+ObylEHtcg5YNgIas8AJexpwa224uUepu0F6fq3Dd+rO3FAUXe2qkmYtQssXCQgZHD+7KcshEeydS0psaHFZuc0BgAJU9N6J/e/R/VhH3vumYbCYcJjTPgOtu61ff4U/JEagi3LEkwrR5YMU8BTePHvvdsVdGHE+dYgReAN9cA5/WF3118P0fpPO/03/CbBQeYwgrHhpntmnNSTA2b9Npe4QS/813OeV+mDspHGq7iQzKJNbOk+lojTZxT0KpXvF4XfvJXupYZC1hanKwU8TLzkBgYKEni1QCkRoOamLpy+JhHazbcrB9/9X5d/0fv0w133yUf01biZKV2Er8GAbbtwEGdOPQjjX3/qA4x/XTVipVUjCTl4xnCrWuRZ2Y2kHCoMJCMWjUSw6o3UR6OdFqtl2keewAr9LP20bJq2xwgfwtUtN+S+QDwXICrQFcBt2K7ue/mQHeAdzqtAkdc6yTX8zhSrdjEl73xd5WIjyhM4bobwsGdzjhq3hsMq4hBtzTe6s1bVdO5Smt37NLdb3+HEsmUYtkE/CHOVyIOAGgN+O9kIqbxZ6aUzGV004vWoZiTaoEudXffJF8bqUmcLx+0aakAsIDMiMN3sCpMctgMKNNAlImYkuK4+p+xdHPbnPKeez8frwsuwfQPSX4cIWv4s42/2AnO5/SQgTwHcLUjqp8VCxbykBOmEsNd8alQQY36YuRk+TyHPS0DGGSJj2x7sUwlJpPO3GSd2rrb5I2GqOQIyE+NV4DPJs6S/I/H1UwmKU71hiebVBPAzFhxAfY+H4H2DI6o9pY3kQ4MKIonaGW3bhgyMy/2jGDM/Xg2JNoqN73ocGfAOrH+bLtmwyX/C3yPJQlwkEYWEOEqvheBvdjYWTXmfPWCEITP8KkhG+CHUauFbFmTWY9WNjRp8MwFNVNGi7amKoRQibiXeEs+pDhADO0P1ioD0RGwcllCqgqT0Oo7m1Su9as4NaUSjJiPsttV7atw3tPqj8WYzYBD2L5Lrp4t2PW03GWqOGDWrLTWB6lixXsFcssuEiSmmg1sp17fEWVAN1Fmq7YI3pt7z/e24BJcy0x7K9OxzRnpv9TiF4Bq3fSspNPhdK6LapAsVRQ+F9JYy9RR5u7WkNUZmxhWiDKfEGreCutK3jTSSmLfW4MapTAvjINHZSSzk5TEnnsIswjLlXflmFyW1+hwvzKVmMqUf1EMJmXPKbPug+rr7aOgz6aujCsaCToAO2lNJNaqMecK8CwzZufZFJkSoFeQbJsDVUJjGfINqPL53hYc4Ag6egI1Z9ucfXquKraqiOdKd3UQVEG28woFqjzoWCttxUiyvgbXIf5tbW3V5NSoYsOTFNplneoK5rnAhHmROdJ5SKw/CGhp4nB+Dz/GwGCgoT4TLNswmaQIDw99iln/GaajlhM4e9tfo+DqrYoXLsCmechRM1W0RA44RXWmAyCWFxtsk90sE2ZefzbDwEKyq7tNeuNcntmevSvSRatrnLbP15+FB5haK5tQZttFwbSOrjbZHBFTbFXl9uzHz37mxWnyIX0FJMcS7HmyQ1bzbMsyrNm0Wcee/oUDtBXPhzxNTsmPB3ArVIrkSdz7cPJ8MFJ50oV5fh+irqu5ewWqASJiRbtyx92KlYbkwREL73olanVC3vBGpcdGFW3BnpNuzFGEb2W85kHbHCojOKxW2tpl85DL5iha4+jtihXpeVHhfNZWV516Wm3p/PxdcIDr4IqdiWW0z6TT6pfnRrwdB5ktOCvCsz0wi7x1mO3wHrGpaaUhMkosphJhWYWcP6cgqrtC9mjDjh06f2Kf4lPjlMNGFEJ6WJEBrqSkPAxVIRqQx0KvAHORKHctZYmZoUPrW1uUnPGpdc1qKj6Y3bChQz7mQSkbItkxLV+YaTGJkDKe9Kz0Vp+nDNtVMKcRzeS1uVBOLTZaghDKBp7VdlesYB4Jb6r/LQDYjxqcoU4qwSIols7L4fkawHN21pnNYDw1ewUpNGG37wJ0lg8nhVpG0nxxKirJNnmCrJxD6W2QgVHLtBNsIDN9yfvu0PiFPo0O9auYxrvu6sRWk+9l7lE4FdFM0s9AaoBfJlNVzinPIiw56qXjE2mlxk7JFZvU1PqXqq3A8g7FUVR4naKlRiXKE1CgNvUFLcTzWfWJaXl7PqsSNcn2B6xGGtNg0cJsu+z7IOdbiDjf24JLsDWwgVLX4ZGZZ50sP3bSOs06Io1EcVDlkxFXk3L73GYp2PzdAh5u2GqsYnGVXD6mlqCegb2A45ZnsPjMNodCal+7RnWU2Jw6dlTHDh9WJ2tv1NfWKw0AESZyZ2CwCgCcxHtOM2thYmgEGxvkdZy0ngdueotGEkmGk5uaKpZaglgpBt0KYxLQ59zT1HA1Zudpnf8cjUQWyjYvkmsDt3rMck5MWL8U26IAeHVXg06dG3QkwJgeI+YtqDCPNEIIRN+xmycKqUAnmaQgOoBIyo+ZC25ADzPN0wAeON+nbNSvaG2Uz6AZcbwCtUgRNjeLIli/80qNnzunE3v3wkszOJB8P5RjIgGvjD+QYEW8xMwUBQE4ZtCSsUqdHjw5pLffNU5ZLbMqoE7RHdj6NKU6Qd5XnSizqQao7XObmRhrjON4ETYx+8n5ysdxWysO2iXYFgXArY1RJldHHc7YHBTL2zqOF501juq2UhuT2hIetTOTwPCl82zHvaHchowx9jfKDMCHvrdHb7v2NsVj004BHLQxTJPRlBXqulpYeQf2q30Fpa5bdGTfHu194JsU0Ie4n4sKC2ZJBAMMIgZFuJYB5tLxkYQeOz2o+vu+pv/wzv8El2XSWGDWTFguKiOLzIGyZ7PNsJ3D1wEbNZxjSkuFgWI13zZBw4ZuhGUgWi6B/bW7mWwsiq2NBckIaKmqRA0Dm3NMDjhM7rZGadUxZaXRk1ezP6/2cJkJ3xVnb6vxKkhh3aq2Bk2NDujez9wD+swdqgEAFz2K+vaGggrXNxMG4XhRmyUqQwrMithx+916y7t+n/g3SjwdYHZiK8swkeOF1SpxLo41167ayR99+6tKjfaxJFOYCefw4oqpvo4gh8RHhDRmGBLFdju2PYqnXEsWK2AjrJJE4RijhgNX4Vkv4ZKIi0KCbYR1QPSfYwZf1mqJHU9llpinYM6F1+kiyc8XzgRwRx3ibZm6LhrRb1mi+KSefupRrSOPa4uq2FINJuFxcrEB1LQboiOA+2wxaJyQxw/zlGHOrrtlja586e06uPshpbCxxiGbGOYoXg96g+YEY1ulgiure++9R5/4m8+SYQoohr2ugShhaDyrTUyS5/Y5sqPLuC6K61yoZZNqY7g29LRdMqFaNBJsIURLZwseKg4Mdi3JdM4ktF8ecHPYXsqgAL9M/TETu/kuBxmRBTRxXMRe5kgI7H7ySYrOo5piDUo3oU4QIiOENGIFSQow149qjwLlOtEgFCFZoyJkRgn31lRxgcSBFefZoMhBnZax7SPT0zrBcodubLQ77Najjz+p/3PPJ7C9FCHkAJOBVOa+JWqibbdjqxix3Y6d73IzMGyEbWSdrJKkvZN1vKya4RJti0aCrb1rKWMdHxjCm8ViMtrN0cqTQCgzw9CN/TXCC7IPYoPHxukqIw1e9jA101/85jcpccUjJvR4au9+da1cy2IpnIv0erHRJcgQNyofbtIp4amgGWxgTBM6HXv6KdURt8ZjWZiwkpJQnllKYuMAb4uleSjX8eON57DkX/zaV9W8slO33Hg7+WDiW8TbNEnV5pJVmrXH1h6T4mKRqTc8lwc/whrQ0tlpX12ybdGtdDfZf0QTJ/crnaM/kMI8B24md2cotIOioNNs2QVUtkkRnvNZymceeewxHTna60z4tjUoh6inevg7X1aNO0NxQDPTTROoZ7SAqQE8a8aOylR3ZKeGdK7vGQ0d6VV+Mq5pVHQBINIMihjZpxMDgzo0nCBGz1DDzKq0yLgXac6QaPDxHLe9/Fb9m9tfrauuukoZ4uuAk460QVjhHJgvVhuouLHHjDJLQDSu2Kz27pWXDFy70aID2B6qb993lZoZwjFBtWJjywCaAxQP0lmGKw6Q4D9+eky7f3EEaT2E+iWRX8fMBaQnlWSxtNSk3vbaW/W7r7sDe1zCcaKUlmWCTcqMazaPuYBKNYJkaqhXg8dOM3Ec3hrgJphvXIH+HJhMMCt/Uvv6iY9R2baetNWV2HSyANKcIr41dqqAVHoZFB/7yEd01ZU71FBfi8Ta7AZMCV5aiXMiNSW1NDSrtWuzNe+Sbp4Ps13SO/4rbhYgWT9wfDcAm9NiMwQnSCYQ6qSpniQR/8TTR/TxL96vY8MlWYhVhMC3NSuLlKF6GQQGQ2/vKW3ZtkM9HY2YaWw2MXXQisyJh93M6LewxVYUyMNSVXg1Kc0Algd1OsPqtQNMFR2Fyoy0dhMr12iEhcLN9/NBgaaR1lrMghX0FYl9LFP04M9/qu9851uKEUc3NdWrEaBbW5uZ6kq4lplWGyU+rl9ZQ/2v6JD/j1MWpQRbe8bP7NOFww84CXXzfjOUzj6yr18P7D6qmQy+Iaq4g1VkC8xVKnNcS8Lf1tnIoYZ90J9lEv4dLQ16+9036cabrsfLjgOw1XUV+Sn5JECP2wLgAyc1PjihC9j+CMBcsfoKPfXkAf3ksQPKMW1l3a5biKcj2v3Yo5qOkTcEZWPRpmC+ZuDAPcTNRlNm0sy+QIlbRGy7+VF/+N53653XNajnJW+Qt2WrNeuSb4vGi35hy1vWXKXuLddTQRHSE70T+qPPPajvHRpjtp6HGDOB88KiohAGxhKZyjSq0orrbLW7HJmdCrPrS3DT933/Ye3ZfwQyg3MBIo0nXnSR1EeiC5TRJlmNJ01dVy0Lma7dtIHHqGjgQr+aWbHnllfcpqRJNh5776mTjsq1AngvHnljM7UekDJWkVMmY+Si6M+89kCIVWi5ShHt81cf/zt96QxrYy4QuNanixZge7iW9a/Q/Udr9NXvHYP3KMiTG4dbtsqoohq72mC4CG0AbZoKDFstxyor4gDg1EED1DghTrhphT5975c1Oj6FqoaEgH/OEgtbUsPqkwPw0A0d3dpy1TVat2WrpljOYXxsTDfe8hKNWbjFdR57bDeVmKzTcf6sBgbO69jRo6hi1uLgfhb3FjANIQoIMizeYokFL3OaunrW6E//7GP62Pvfa01ZsG1RA2y98oH3/RfdfNPLiEvrcXRwXsjejPSPEg6xdk4WdQlQQdJy5ki5kGaH9+W9gWer4Q2PTrEMYbc+8NG/1iQT3ZxsFHbcKiC9qH5/fZM6mNXfvnoD2iHoJPi3X3ml1m3dRphU0QP3f1cH9+3jSSyTZQ4VThYpzg4yUubUmSq2grs0XrNJfwMz/reRorz7ta/Vhz/8QWvCgm6LHmDrnb/46P/gXz65EkaKBMPktK5o6cBZwqP21FIxQWksttcW9XakEo82Z5OxAfjMqWN6+OFHYKF8GppM6dOf/xIYEK5QbGfJijJqvKX7Ctbw2CifzWgI16musU23vvIOfeLTn9MXv/D3mpwcq9punsPCnyK53g0bNjgeud2vAi1qKc+V3Z269sW7tGnLJt31mjt1z9/+pT36gm+XBcDWSx/50/frdW+8SxOsyxFpaUKas2R1KHyDcbLwxWyqTS0hO+8sNTxCxcXgmKnbAVTsI1q3ebvODM/oQ395r9Je7GK0TQ1MQa1ZsUYu/gEOPzMZSlRo7rrtDn3uJ3v0rZ9R9I5Kd2FnC4Boa1laKVV7R5eTiuztPekUG5CdcLJcjSzx4GGNhze/6Y360P98/4IDO/cAi9aLnnvAF77e90//rM998StOaELUQidXC93yzHiwAoAoRW795/t0lLWwXNhn29qplx4eHNJr7nyVzp48prMnTmv3z76jHfzDV/ZvJZnKpWaH8KnIv8iSVM/262GkoDNR5bjIDn1prnFPz2qWKjbVbFlAAMfu257CVkehSP/4T96n17/+tc49F8ufyw5g67izfef1qc9+XvuYeUAuQeM4QLZ2pYUwQ0OD1DTP4ExFiEUbtHLNFU5fp0zyWebh8d0PsUJPLefE9ciD39O1V1/Jb1NobmhHX43++AMf1l9/5vMOiDWU1qYZOGvXrnWoRvPQAzhTRmD4IVfMLNQQnm3ZtEnvfc9/1rr1axcLrs8+x2UJ8NzT3/ft7+qLSLOxSk8/vcepVe7uWalWZgc2NkJwkIwwgtG86xIVHmN4x81NDXjBh5loxho8hEf7d/9U23auJ45lVsNMWSvXb4UarfLLnnJI22GnArZOFwOgzAAy+tESEhmqOppwqH7v996qN/3b18890qJ7vawBtt5MUZXxjfu+rU988lOseUWxHPY0SZYoCCi2bpWFRkb22xwmA8mkz6bDGDFhnvHJIwe19xc/QUrX69V3v00/f/Qp7C4LnRI372SeMKKLozXpxNcWb1tYZK+/89q79e/e9iaHBFl0qD7ngS57gOfaYir4ge//UA8+9IjOnDnLgqP8Y1kAaeGQAywAm422MCoNuPZq35tjdezAPn38b/63/uC/vh/VbPlg6Zpd1zhhUCyOaofJsoHTQ6Lg1pfforvvutOx9XP3XsyvSwbg53bywUNH9OhjT2jPvgMa6O93gDXJdaoeQc8AN0m0YvUQKrcIZbl3zxMkNfCrcMQ3b9yB+m3SBKvovWjblbrpxut1/Yuv5V9y2fbc21wWx0sS4Of2/Cj/otmRZ55R37nzOg/Y5/vPKw49OTUdc1R5haK+AKU5yZlRhRuCevH112n7pqvV3dOtnVduozju0lVfPPe5f1PHSx7g31RHXa7XuWyIjsu1gxf6uZcBXmgE5vn+ywDPcwcv9OWXAV5oBOb5/ssAz3MHL/TllwFeaATm+f7LAM9zBy/05ZcBXmgE5vn+ywDPcwcv9OWXAV5oBOb5/ssAz3MHL/TllwFeaATm+f7LAM9zBy/05ZcBXmgE5vn+ywDPcwcv9OWXAV5oBOb5/ssAz3MHL/TllwFeaATm+f7LAM9zBy/05f8fpg4kxyYlxhQAAAAASUVORK5CYII=;" vertex="1" parent="1">
          <mxGeometry x="385" y="160" width="30" height="28.5" as="geometry" />
        </mxCell>
        <mxCell id="LOHa1x4Et9vY7Z-8OYCL-42" value="Change Tank" style="rounded=1;whiteSpace=wrap;html=1;" vertex="1" parent="1">
          <mxGeometry x="450" y="163.75" width="90" height="22.5" as="geometry" />
        </mxCell>
        <mxCell id="-Sz-DsMRWOsb_BaAGOgj-5" value="" style="endArrow=classic;html=1;rounded=0;" edge="1" parent="1" target="LOHa1x4Et9vY7Z-8OYCL-42">
          <mxGeometry width="50" height="50" relative="1" as="geometry">
            <mxPoint x="600" y="200" as="sourcePoint" />
            <mxPoint x="650" y="150" as="targetPoint" />
          </mxGeometry>
        </mxCell>
        <mxCell id="-Sz-DsMRWOsb_BaAGOgj-6" value="Dropdown with list of tanks with associated users. Create tank button as well" style="text;html=1;strokeColor=none;fillColor=none;align=left;verticalAlign=middle;whiteSpace=wrap;rounded=0;" vertex="1" parent="1">
          <mxGeometry x="610" y="190" width="120" height="30" as="geometry" />
        </mxCell>
        <mxCell id="-Sz-DsMRWOsb_BaAGOgj-7" value="Add fish +" style="rounded=1;whiteSpace=wrap;html=1;" vertex="1" parent="1">
          <mxGeometry x="365" y="580" width="120" height="60" as="geometry" />
        </mxCell>
      </root>
    </mxGraphModel>
  </diagram>
  <diagram name="Feed View 1" id="giX0xVEe_EynP2YAWL-L">
    <mxGraphModel dx="714" dy="450" grid="1" gridSize="10" guides="1" tooltips="1" connect="1" arrows="1" fold="1" page="1" pageScale="1" pageWidth="850" pageHeight="1100" math="0" shadow="0">
      <root>
        <mxCell id="JkzQYC3tinYeZxNrL9B7-0" />
        <mxCell id="JkzQYC3tinYeZxNrL9B7-1" parent="JkzQYC3tinYeZxNrL9B7-0" />
        <mxCell id="JkzQYC3tinYeZxNrL9B7-2" value="" style="rounded=1;whiteSpace=wrap;html=1;rotation=-90;" vertex="1" parent="JkzQYC3tinYeZxNrL9B7-1">
          <mxGeometry x="150" y="190" width="550" height="270" as="geometry" />
        </mxCell>
        <mxCell id="JkzQYC3tinYeZxNrL9B7-3" value="" style="rounded=0;whiteSpace=wrap;html=1;" vertex="1" parent="JkzQYC3tinYeZxNrL9B7-1">
          <mxGeometry x="300" y="202.5" width="250" height="135" as="geometry" />
        </mxCell>
        <mxCell id="JkzQYC3tinYeZxNrL9B7-4" value="" style="triangle;whiteSpace=wrap;html=1;" vertex="1" parent="JkzQYC3tinYeZxNrL9B7-1">
          <mxGeometry x="340" y="255" width="30" height="40" as="geometry" />
        </mxCell>
        <mxCell id="JkzQYC3tinYeZxNrL9B7-5" value="" style="ellipse;whiteSpace=wrap;html=1;aspect=fixed;" vertex="1" parent="JkzQYC3tinYeZxNrL9B7-1">
          <mxGeometry x="360" y="245" width="60" height="60" as="geometry" />
        </mxCell>
        <mxCell id="JkzQYC3tinYeZxNrL9B7-6" value="" style="ellipse;whiteSpace=wrap;html=1;aspect=fixed;" vertex="1" parent="JkzQYC3tinYeZxNrL9B7-1">
          <mxGeometry x="415" y="230" width="15" height="15" as="geometry" />
        </mxCell>
        <mxCell id="JkzQYC3tinYeZxNrL9B7-7" value="" style="ellipse;whiteSpace=wrap;html=1;aspect=fixed;" vertex="1" parent="JkzQYC3tinYeZxNrL9B7-1">
          <mxGeometry x="430" y="210" width="20" height="20" as="geometry" />
        </mxCell>
        <mxCell id="JkzQYC3tinYeZxNrL9B7-8" value="" style="rounded=0;whiteSpace=wrap;html=1;fillColor=#f5f5f5;fontColor=#333333;strokeColor=#666666;" vertex="1" parent="JkzQYC3tinYeZxNrL9B7-1">
          <mxGeometry x="490" y="70" width="50" height="10" as="geometry" />
        </mxCell>
        <mxCell id="JkzQYC3tinYeZxNrL9B7-9" value="" style="rounded=0;whiteSpace=wrap;html=1;fillColor=#f5f5f5;fontColor=#333333;strokeColor=#666666;" vertex="1" parent="JkzQYC3tinYeZxNrL9B7-1">
          <mxGeometry x="490" y="90" width="50" height="10" as="geometry" />
        </mxCell>
        <mxCell id="JkzQYC3tinYeZxNrL9B7-10" value="" style="rounded=0;whiteSpace=wrap;html=1;fillColor=#f5f5f5;fontColor=#333333;strokeColor=#666666;" vertex="1" parent="JkzQYC3tinYeZxNrL9B7-1">
          <mxGeometry x="490" y="110" width="50" height="10" as="geometry" />
        </mxCell>
        <mxCell id="JkzQYC3tinYeZxNrL9B7-11" value="&lt;b&gt;Logo&lt;/b&gt;" style="text;html=1;strokeColor=none;fillColor=none;align=center;verticalAlign=middle;whiteSpace=wrap;rounded=0;" vertex="1" parent="JkzQYC3tinYeZxNrL9B7-1">
          <mxGeometry x="300" y="60" width="60" height="30" as="geometry" />
        </mxCell>
        <mxCell id="JkzQYC3tinYeZxNrL9B7-12" value="" style="rounded=1;whiteSpace=wrap;html=1;" vertex="1" parent="JkzQYC3tinYeZxNrL9B7-1">
          <mxGeometry x="320" y="360" width="220" height="90" as="geometry" />
        </mxCell>
        <mxCell id="JkzQYC3tinYeZxNrL9B7-13" value="&lt;b&gt;Gerald&lt;/b&gt;" style="text;html=1;strokeColor=none;fillColor=none;align=left;verticalAlign=middle;whiteSpace=wrap;rounded=0;" vertex="1" parent="JkzQYC3tinYeZxNrL9B7-1">
          <mxGeometry x="330" y="360" width="40" height="30" as="geometry" />
        </mxCell>
        <mxCell id="JkzQYC3tinYeZxNrL9B7-14" value="" style="triangle;whiteSpace=wrap;html=1;" vertex="1" parent="JkzQYC3tinYeZxNrL9B7-1">
          <mxGeometry x="490" y="365" width="20" height="25" as="geometry" />
        </mxCell>
        <mxCell id="JkzQYC3tinYeZxNrL9B7-15" value="" style="ellipse;whiteSpace=wrap;html=1;aspect=fixed;" vertex="1" parent="JkzQYC3tinYeZxNrL9B7-1">
          <mxGeometry x="500" y="362.5" width="30" height="30" as="geometry" />
        </mxCell>
        <mxCell id="JkzQYC3tinYeZxNrL9B7-16" value="Status: Hungry" style="text;html=1;strokeColor=none;fillColor=none;align=left;verticalAlign=middle;whiteSpace=wrap;rounded=0;" vertex="1" parent="JkzQYC3tinYeZxNrL9B7-1">
          <mxGeometry x="330" y="380" width="85" height="30" as="geometry" />
        </mxCell>
        <mxCell id="JkzQYC3tinYeZxNrL9B7-17" value="&lt;b&gt;Feed&lt;/b&gt;" style="rounded=1;whiteSpace=wrap;html=1;" vertex="1" parent="JkzQYC3tinYeZxNrL9B7-1">
          <mxGeometry x="370" y="420" width="120" height="20" as="geometry" />
        </mxCell>
        <mxCell id="JkzQYC3tinYeZxNrL9B7-18" value="" style="rounded=1;whiteSpace=wrap;html=1;" vertex="1" parent="JkzQYC3tinYeZxNrL9B7-1">
          <mxGeometry x="320" y="480" width="220" height="90" as="geometry" />
        </mxCell>
        <mxCell id="JkzQYC3tinYeZxNrL9B7-19" value="&lt;b&gt;Gerald&lt;/b&gt;" style="text;html=1;strokeColor=none;fillColor=none;align=left;verticalAlign=middle;whiteSpace=wrap;rounded=0;" vertex="1" parent="JkzQYC3tinYeZxNrL9B7-1">
          <mxGeometry x="330" y="480" width="40" height="30" as="geometry" />
        </mxCell>
        <mxCell id="JkzQYC3tinYeZxNrL9B7-20" value="" style="triangle;whiteSpace=wrap;html=1;" vertex="1" parent="JkzQYC3tinYeZxNrL9B7-1">
          <mxGeometry x="490" y="485" width="20" height="25" as="geometry" />
        </mxCell>
        <mxCell id="JkzQYC3tinYeZxNrL9B7-21" value="Status: Hungry" style="text;html=1;strokeColor=none;fillColor=none;align=left;verticalAlign=middle;whiteSpace=wrap;rounded=0;" vertex="1" parent="JkzQYC3tinYeZxNrL9B7-1">
          <mxGeometry x="330" y="500" width="85" height="30" as="geometry" />
        </mxCell>
        <mxCell id="JkzQYC3tinYeZxNrL9B7-22" value="&lt;b&gt;Feed&lt;/b&gt;" style="rounded=1;whiteSpace=wrap;html=1;" vertex="1" parent="JkzQYC3tinYeZxNrL9B7-1">
          <mxGeometry x="370" y="540" width="120" height="20" as="geometry" />
        </mxCell>
        <mxCell id="JkzQYC3tinYeZxNrL9B7-23" value="" style="ellipse;whiteSpace=wrap;html=1;aspect=fixed;" vertex="1" parent="JkzQYC3tinYeZxNrL9B7-1">
          <mxGeometry x="500" y="482.5" width="30" height="30" as="geometry" />
        </mxCell>
        <mxCell id="JkzQYC3tinYeZxNrL9B7-24" value="" style="triangle;whiteSpace=wrap;html=1;rotation=-180;" vertex="1" parent="JkzQYC3tinYeZxNrL9B7-1">
          <mxGeometry x="490" y="255" width="20" height="25" as="geometry" />
        </mxCell>
        <mxCell id="JkzQYC3tinYeZxNrL9B7-25" value="" style="ellipse;whiteSpace=wrap;html=1;aspect=fixed;" vertex="1" parent="JkzQYC3tinYeZxNrL9B7-1">
          <mxGeometry x="470" y="255" width="30" height="30" as="geometry" />
        </mxCell>
        <mxCell id="JkzQYC3tinYeZxNrL9B7-26" value="&lt;b&gt;Jaden&#39;s Tank&lt;/b&gt;" style="text;html=1;strokeColor=none;fillColor=none;align=left;verticalAlign=middle;whiteSpace=wrap;rounded=0;" vertex="1" parent="JkzQYC3tinYeZxNrL9B7-1">
          <mxGeometry x="307.5" y="160" width="95" height="30" as="geometry" />
        </mxCell>
        <mxCell id="JkzQYC3tinYeZxNrL9B7-27" value="" style="shape=image;verticalLabelPosition=bottom;labelBackgroundColor=default;verticalAlign=top;aspect=fixed;imageAspect=0;image=data:image/png,iVBORw0KGgoAAAANSUhEUgAAAHgAAAByCAYAAACY/xW0AAAMP2lDQ1BJQ0MgUHJvZmlsZQAASImVVwdYU8kWnluSkEBoAQSkhN4EkRpASggt9I5gIyQBQokxEFTsyKKCa0FFBGzoqoiCFRA7YmdR7H2xoKKsiwW78iYFdN1XvjffN3f++8+Z/5w5M7cMAGrHOSJRDqoOQK4wXxwb7E8fl5xCJz0FFKAOdAAJEDncPBEzOjocwDLU/r28uw4QaXvFXqr1z/7/WjR4/DwuAEg0xGm8PG4uxPsBwGu4InE+AEQpbzYtXyTFsAItMQwQ4kVSnCHHNVKcJse7ZTbxsSyI2wFQUuFwxBkAqF6CPL2AmwE1VPshdhTyBEIA1OgQ++TmTuFBnAqxNbQRQSzVZ6T9oJPxN820YU0OJ2MYy+ciK0oBgjxRDmfG/5mO/11ycyRDPixhVckUh8RK5wzzdjN7SpgUq0DcJ0yLjIJYE+IPAp7MHmKUkikJSZDbowbcPBbMGVxngDryOAFhEBtAHCTMiQxX8GnpgiA2xHCHoNMF+ex4iHUhXsTPC4xT2GwUT4lV+EKb0sUspoI/yxHL/Ep93ZdkJzAV+q8z+WyFPqZamBmfBDEFYvMCQWIkxKoQO+Rlx4UpbMYWZrIih2zEklhp/OYQx/KFwf5yfawgXRwUq7Avzc0bmi+2MVPAjlTgvfmZ8SHy/GDtXI4sfjgX7BJfyEwY0uHnjQsfmguPHxAonzv2jC9MiFPofBDl+8fKx+IUUU60wh435ecES3lTiF3yCuIUY/HEfLgh5fp4uig/Ol4eJ16YxQmNlseDLwfhgAUCAB1IYE0DU0AWEHT2NffBO3lPEOAAMcgAfGCvYIZGJMl6hPAaBwrBnxDxQd7wOH9ZLx8UQP7rMCu/2oN0WW+BbEQ2eAJxLggDOfBeIhslHPaWCB5DRvAP7xxYuTDeHFil/f+eH2K/M0zIhCsYyZBHutqQJTGQGEAMIQYRbXB93Af3wsPh1Q9WJ5yBewzN47s94Qmhi/CQcI3QTbg1WVAk/inKCNAN9YMUuUj7MRe4JdR0xf1xb6gOlXEdXB/Y4y7QDxP3hZ5dIctSxC3NCv0n7b/N4IfVUNiRHckoeQTZj2z980hVW1XXYRVprn/MjzzWtOF8s4Z7fvbP+iH7PNiG/WyJLcL2YWewE9g57DDWDOjYMawF68COSPHw7nos211D3mJl8WRDHcE//A2trDSTeY71jr2OX+R9+fzp0nc0YE0RzRALMjLz6Uz4ReDT2UKuwyi6k6OTMwDS74v89fUmRvbdQHQ6vnML/gDA+9jg4OCh71zoMQD2uMPH/+B3zpoBPx3KAJw9yJWIC+QcLr0Q4FtCDT5pesAImAFrOB8n4Aa8gB8IBKEgCsSDZDAJRp8J97kYTAOzwHxQAsrAcrAaVIENYDPYDnaBvaAZHAYnwGlwAVwC18AduHt6wAvQD96BzwiCkBAqQkP0EGPEArFDnBAG4oMEIuFILJKMpCIZiBCRILOQBUgZUo5UIZuQOmQPchA5gZxDupBbyAOkF3mNfEIxVAXVQg1RS3Q0ykCZaBgaj05EM9CpaCFajC5FK9FadCfahJ5AL6DX0G70BTqAAUwZ08FMMHuMgbGwKCwFS8fE2BysFKvAarEGrBWu8xWsG+vDPuJEnIbTcXu4g0PwBJyLT8Xn4EvwKnw73oS341fwB3g//o1AJRgQ7AieBDZhHCGDMI1QQqggbCUcIJyCz1IP4R2RSNQhWhHd4bOYTMwiziQuIa4jNhKPE7uIj4gDJBJJj2RH8iZFkTikfFIJaS1pJ+kY6TKph/RBSVnJWMlJKUgpRUmoVKRUobRD6ajSZaWnSp/J6mQLsic5iswjzyAvI28ht5IvknvInykaFCuKNyWekkWZT6mkNFBOUe5S3igrK5sqeyjHKAuU5ylXKu9WPqv8QPmjiqaKrQpLZYKKRGWpyjaV4yq3VN5QqVRLqh81hZpPXUqto56k3qd+UKWpOqiyVXmqc1WrVZtUL6u+VCOrWagx1SapFapVqO1Tu6jWp05Wt1RnqXPU56hXqx9Uv6E+oEHTGKMRpZGrsURjh8Y5jWeaJE1LzUBNnmax5mbNk5qPaBjNjMaicWkLaFtop2g9WkQtKy22VpZWmdYurU6tfm1NbRftRO3p2tXaR7S7dTAdSx22To7OMp29Otd1Po0wHMEcwR+xeETDiMsj3uuO1PXT5euW6jbqXtP9pEfXC9TL1luh16x3Tx/Xt9WP0Z+mv17/lH7fSK2RXiO5I0tH7h152wA1sDWINZhpsNmgw2DA0Mgw2FBkuNbwpGGfkY6Rn1GW0Sqjo0a9xjRjH2OB8SrjY8bP6dp0Jj2HXklvp/ebGJiEmEhMNpl0mnw2tTJNMC0ybTS9Z0YxY5ilm60yazPrNzc2jzCfZV5vftuCbMGwyLRYY3HG4r2llWWS5ULLZstnVrpWbKtCq3qru9ZUa1/rqda11ldtiDYMm2ybdTaXbFFbV9tM22rbi3aonZudwG6dXdcowiiPUcJRtaNu2KvYM+0L7OvtHzjoOIQ7FDk0O7wcbT46ZfSK0WdGf3N0dcxx3OJ4Z4zmmNAxRWNax7x2snXiOlU7XXWmOgc5z3VucX7lYufCd1nvctOV5hrhutC1zfWrm7ub2K3Brdfd3D3Vvcb9BkOLEc1YwjjrQfDw95jrcdjjo6ebZ77nXs+/vOy9sr12eD0bazWWP3bL2Efept4c703e3T50n1SfjT7dvia+HN9a34d+Zn48v61+T5k2zCzmTuZLf0d/sf8B//csT9Zs1vEALCA4oDSgM1AzMCGwKvB+kGlQRlB9UH+wa/DM4OMhhJCwkBUhN9iGbC67jt0f6h46O7Q9TCUsLqwq7GG4bbg4vDUCjQiNWBlxN9IiUhjZHAWi2FEro+5FW0VPjT4UQ4yJjqmOeRI7JnZW7Jk4WtzkuB1x7+L945fF30mwTpAktCWqJU5IrEt8nxSQVJ7UPW70uNnjLiTrJwuSW1JIKYkpW1MGxgeOXz2+Z4LrhJIJ1ydaTZw+8dwk/Uk5k45MVpvMmbwvlZCalLoj9QsnilPLGUhjp9Wk9XNZ3DXcFzw/3ipeL9+bX85/mu6dXp7+LMM7Y2VGb6ZvZkVmn4AlqBK8ygrJ2pD1Pjsqe1v2YE5STmOuUm5q7kGhpjBb2D7FaMr0KV0iO1GJqHuq59TVU/vFYeKteUjexLyWfC34I98hsZb8InlQ4FNQXfBhWuK0fdM1pgund8ywnbF4xtPCoMLfZuIzuTPbZpnMmj/rwWzm7E1zkDlpc9rmms0tntszL3je9vmU+dnzfy9yLCoversgaUFrsWHxvOJHvwT/Ul+iWiIuubHQa+GGRfgiwaLOxc6L1y7+VsorPV/mWFZR9mUJd8n5X8f8Wvnr4NL0pZ3L3JatX05cLlx+fYXviu3lGuWF5Y9WRqxsWkVfVbrq7erJq89VuFRsWENZI1nTXRle2bLWfO3ytV+qMquuVftXN9YY1Cyueb+Ot+7yer/1DRsMN5Rt+LRRsPHmpuBNTbWWtRWbiZsLNj/ZkrjlzG+M3+q26m8t2/p1m3Bb9/bY7e117nV1Owx2LKtH6yX1vTsn7Ly0K2BXS4N9w6ZGncay3WC3ZPfzPal7ru8N29u2j7GvYb/F/poDtAOlTUjTjKb+5szm7pbklq6DoQfbWr1aDxxyOLTtsMnh6iPaR5YdpRwtPjp4rPDYwHHR8b4TGScetU1uu3Ny3Mmr7THtnafCTp09HXT65BnmmWNnvc8ePud57uB5xvnmC24XmjpcOw787vr7gU63zqaL7hdbLnlcau0a23X0su/lE1cCrpy+yr564Vrkta7rCddv3phwo/sm7+azWzm3Xt0uuP35zry7hLul99TvVdw3uF/7h80fjd1u3UceBDzoeBj38M4j7qMXj/Mef+kpfkJ9UvHU+GndM6dnh3uDei89H/+854Xoxee+kj81/qx5af1y/19+f3X0j+vveSV+Nfh6yRu9N9veurxtG4geuP8u993n96Uf9D5s/8j4eOZT0qenn6d9IX2p/GrztfVb2Le7g7mDgyKOmCP7FcBgRdPTAXi9DQBqMgA0eD6jjJef/2QFkZ9ZZQj8Jyw/I8qKGwAN8P89pg/+3dwAYPcWePyC+moTAIimAhDvAVBn5+E6dFaTnSulhQjPARujvqblpoF/U+Rnzh/i/rkFUlUX8HP7Ly0YfEb83gjCAAAAlmVYSWZNTQAqAAAACAAFARIAAwAAAAEAAQAAARoABQAAAAEAAABKARsABQAAAAEAAABSASgAAwAAAAEAAgAAh2kABAAAAAEAAABaAAAAAAAAAJAAAAABAAAAkAAAAAEAA5KGAAcAAAASAAAAhKACAAQAAAABAAAAeKADAAQAAAABAAAAcgAAAABBU0NJSQAAAFNjcmVlbnNob3R+QTpKAAAACXBIWXMAABYlAAAWJQFJUiTwAAAC22lUWHRYTUw6Y29tLmFkb2JlLnhtcAAAAAAAPHg6eG1wbWV0YSB4bWxuczp4PSJhZG9iZTpuczptZXRhLyIgeDp4bXB0az0iWE1QIENvcmUgNi4wLjAiPgogICA8cmRmOlJERiB4bWxuczpyZGY9Imh0dHA6Ly93d3cudzMub3JnLzE5OTkvMDIvMjItcmRmLXN5bnRheC1ucyMiPgogICAgICA8cmRmOkRlc2NyaXB0aW9uIHJkZjphYm91dD0iIgogICAgICAgICAgICB4bWxuczpleGlmPSJodHRwOi8vbnMuYWRvYmUuY29tL2V4aWYvMS4wLyIKICAgICAgICAgICAgeG1sbnM6dGlmZj0iaHR0cDovL25zLmFkb2JlLmNvbS90aWZmLzEuMC8iPgogICAgICAgICA8ZXhpZjpVc2VyQ29tbWVudD5TY3JlZW5zaG90PC9leGlmOlVzZXJDb21tZW50PgogICAgICAgICA8ZXhpZjpQaXhlbFhEaW1lbnNpb24+MTIwPC9leGlmOlBpeGVsWERpbWVuc2lvbj4KICAgICAgICAgPGV4aWY6UGl4ZWxZRGltZW5zaW9uPjExNDwvZXhpZjpQaXhlbFlEaW1lbnNpb24+CiAgICAgICAgIDx0aWZmOlJlc29sdXRpb25Vbml0PjI8L3RpZmY6UmVzb2x1dGlvblVuaXQ+CiAgICAgICAgIDx0aWZmOlhSZXNvbHV0aW9uPjE0NC8xPC90aWZmOlhSZXNvbHV0aW9uPgogICAgICAgICA8dGlmZjpZUmVzb2x1dGlvbj4xNDQvMTwvdGlmZjpZUmVzb2x1dGlvbj4KICAgICAgICAgPHRpZmY6T3JpZW50YXRpb24+MTwvdGlmZjpPcmllbnRhdGlvbj4KICAgICAgPC9yZGY6RGVzY3JpcHRpb24+CiAgIDwvcmRmOlJERj4KPC94OnhtcG1ldGE+CtDzbp8AACexSURBVHgB7Z0HlGRXeef/lWPn3D09PZqcmVEYoYgACVYCIWFgSWbX7MKa413AGzDGizHBx2fXASMMLAiMgbOYIINBIoOQNIpo8owm9KSe6emcK+eq/X2vujWSAB+fs/R0T9NPel2vql699+793y/9v+/ecVXYtLwt2R5wL9mWLTfM6YFlgJf4QFgGeBngJd4DS7x5yxK8DPAS74El3rxlCV4GeIn3wBJv3rIELwO8xHtgiTdvWYKXAV7iPbDEm7cswcsAL/EeWOLNW5bgZYCXeA8s8eYtS/AywEu8B5Z485YleBngJd4DS7x5yxK8DPAS74El3rxlCV4GeIn3wBJv3rIELwO8xHtgiTdvWYKXAV7iPbDEm7cswUscYO8Sb58mkyWdGZpRKj6tmf6jOnV4j0YmEppIFnTo8DGt9I9psigVvSHVh4Na3dGl7rVbdO3L7tDOHdvUVBe8rLvItRSnj54cjutQf0Z7++Ma7jurxnSvSuce00j/GbWtXK9ItEFjgwMa7j+nSMCnqekZ5UsVpfMFDY9PKJHNyxeqUSyV1rv+4qt62U1Xa+eaDq3tuPzAXjIAZ/IlPXxsXD8/OqXpnEfZkfPK9J/U6DMPaEOrX7GhEyp7vGpbtVaJdFbBoF/xeFJZFVTOFjU5NKaZWEKpYk6JTEalikdueeXO5TVdbNbdf/J32nn1zbpmlV+3bKlTyH95WLfLHuBMvqgfHRrXjw4Mq1DyqFzI6NyjX9HZ3X+vpuag6rx1yriCitY3ylfKqaUuqrHJmHy+sCYmJlTf0aAKg6OQLig2HVe2WFYsnVRdfb0CXp9y42c1mvHKXwzqtv/+aYW7XySFpds3N+q2HW0A7VnUKvyyBvjBZyZ0/764csmM3DVuDR3/ufq+/knlZsalujp1+/wqlcdV39ohbzCofDGvwYlJBaJ1qhRyqvGX5fM0qJBNyc/350cTyrkicrnL2r62QcoMqffMlCL+sBIT42rYdLs2veOjSLaP62ZVi82+Y0eHXrq1adGCfFk6WYNTWd331IhODCYV8lRUiESUP31Yez/5IQUDM/I3t8kNaJ66mNb0rFV7Y0SZREIN7euULazVqrZmVVJxhQMB9c2kNTw6qOGxcdV4U9rQ2aZyqaSwq6BEqazu1nZNA27SG5G7MqnaSlAJBo4XbZBDM3zr6TEduZDS665tU1djYNEBfdlJ8KMnpvW1J4al2ZVFSuWiKuO9+sE9f6gGX0bFcKM8dP7m1jrd+aq7tLozqFIureb2ThynqBobauQv51Usu5QtoXrdJWWwuelUStOjoxodGNCJ42eQ9LgGxmIaSibkcbux3zVKDp3Tyz/3NM6YR153RGVXSD5X6llQ33hdm27YUP/s+8VwcFlJ8LeRlp8/M4mKdMn+t61SKesH//DnqqSHVW5tUxtC1OSXdl29Wu3tUnNXt1q71zrnRiN+5acnVaw0KBysUxmprrjzagjW400n1dbaqVWbN+uG292avHBe/Sd6deDISe0/PazRFBIdYlAkXWqsDWLXwwpkxpXDllefo6JvPjmq8XhBd1/T4ny2GP5cNgB/ZfeQDg3FVPH4VS4m5A+1yFuM6cR3P6HY4EmtamlU0IXf6/Uq2t6iHS+6BnW7QvUrerCzbrl9PhXziH2oEd8YtV7Kyx/2yU1olM9lkeiSXHnCIxYdKmRyCkXqtW7nNerp2ajVJ47rwd2HNFyqUyAccFR40TUuT7Rebux6dauOuN2900rhtL31BkbXItguC4A//8iInjkXk8dblttVASyPgj6XEpMj2vPDf1ZXV6tyBDxBQKxHSq/c2MNAcKlu9Vr53C6cJlRsuSzx6nET/thnLpcq5QoaoOh8Vy4WeM85phwYENxIxWJJZcKhnpWrtGtrQQOVQRWnR+RrX6m6AHYfqa7YuS/YDpxPMmBG9O9vWniQf/npXvCwC/32Hx8f1tGhNDaPcKRSQhpd8tOpXuU1dvqAIq6kGqJBwA2rpqZGa1a3qaMDO4t0psrEsR5CJyTWdgPa4/fJ5WNc83n1Fel2jrk+96igBVxevmOvAHIFTzvg96uzpU6bWhs1fXKvMkWkPFvC6WLnur9qP3ohga8wutDdx7Mt4u2BA+Pa3xdH6iryAqyHDrewE5yIXVMaPvGEos0RwhiX2iNhaMZWBSI+RZpr1GbHJVXBtbXekFiPAcuPzW4XSwWVkNoixybtbo/POaeCBLtdHvm8fvl9Abm5oYVYtU0hdTcFles7oDBS7cdUECY7z2TP9av2w/0J/eDg1IL28KIF+BdnYnq0d4belryoZS/AuM3GGlBIXBGA0yPH1bV+NdJWVHtTQI11fiT4Cs3EMyLolSeTBkwkd/Y3Bq4dl1DFzg646GO5QcqLendjvx15NJA514u0+5Fed9ivEINmRVedOjwJJc/3yuPit0FT986Y+bWvT5yKac/Z+IKBvCgBHpnJ6bv7xpAKwKXTrTNdSLF1uguZ9CBdpUJeNZUEIVBZzS31CjX41QwInkJZPU1dSHiRmDfh/MbCHAMWtB3A7To2SDxc2wu4HqTXyzXtM87i2gwAuGnOUpAkRCDkV6SuQSva67Wps0YTh3ernE/OXtuk+F/ev3dgUqOxOWfs0mK9KAH+weEJAK1KhtdnkguofGAA2OYygMsFNRC2dNY3qLWpSRs2rFNrW4tqwmHFpiaVIAQq8VvhSNlmDpQRGCbRdh0bOA7ofFfi82KReJrY2ITaHLIKJIf91u0OEEIFFCAsUj6rhojUCeER9GCbKwwQ8wf+hd0Gk+0/PjLtPMel/rPoAH7y9Iz6xjNO51vH2GZSa4duHB9TqS63VwVCkRAA1kUjqgtHFcWr9bt9itaEFG0Iyx30KhSNVkEFLAOtjFeMtq+OHF5KgGrA5gmP8oRL9t6R8tnz7c4YaE2Ojmjw1AXFJ8aUS8fVGiwpMT2uUAX1PQvgr3t1cUPbz01k9Iszl15VL6owKYtqfPTEFKEN/Wq6EouYRzWHCYtKJfI+aY6jjcSwLgWFfa6tU0NXjXzlgOP1ll0ZTQ2kYK2a1Lm+hd/5lUL9AjPqegZvOKJKsEbZdFne8WkNJs7JHUsrA7NVU0wqzyBQTVQu0oVhby1gjinOPafHD6qUKGhwZlLxkZx8OGd1voiywRzXzipd8DKA0AgMEFP5FX+IgZPH08/Adl2Uocd7J7VjZVQBa+Al2hYVwE+emlGOEKQquXQ2m7dMuEI4Im9FwZogoUsWQqKsoEmtH682SQhVC/lfKGp8ZAShc2nzjq2qDTWrQGf7Te1mCgp4wuo7P6HB8RPqPXJEqcFhDZ7tU+/4eXnzOa2/YpPWrYT16lmhls52NfqGFU/FlDh7TmfgovvHXeSYpzQ5c0EdeNc7Jo8r0F2HN87gw6MO1deolI1BksShL2kDA9Tten738thIcUw3bySRcYm25z/BJbrpr7pNDund25dwwiH73lwc26LuoLKZrDwBi4+QlFIcsAAtUqtIqAE76FYE0qMI3xyJEv9GfepavU6BmhUamk7q4OkBPfLoQf3tZ77Odw3aGErqU3/2FjXv6tToyBU6t++QijPTShY8Sk0O6vBwv/KegHZClsQmpnXq5IiOxabUXlvW1VGkesV6lWLjOv2jexWgWqSCBHdu3mVoOiFcNBJSLpvD8SLE4jquSsFpR/WPS/sgQa5dAyN2iaR40QB8kJixjANkodBztBowFxUiDi15sJWQC4GQG1BdVFtAYoTrlUFdrwjVaWx6gqzQkGOvT4zdry9/Z7+GBqb0SqSte61f97x+g9bfeKMOnezVpu2b9dCeJ9V/clT9p0ZVi2pd3Yy010e1vmONGrZdpXff8w86tOewNjfX6g07VyiGR352gkwVz7BuVYeaem7RlDevkbN7NBMKqKe2FRImrFI6QZYqCg0De4bHNutGgG91wJrPd3ggqWuuqH0O8PN3uGgAPkajjSwwFeuyGHN2K2J7Q/4A9rGEI4VEOH5PhVqpiI6RAfIlJvTwhV49vL9XFdis67av0R23rdfv/86rVEsiYSZW0ulzD2rgZ4/oyW8c11PjZImO7tf123aqNDCqEGxIEa96muTDtbfcqSvWbNLg8KCubqjTH7zrbfrQ5/+v9lHTFQjivHFzD9rjyPmTaoluUU1kAx58o9Zu3KgMz16xZ4yGlTKNg/mgJbOwPt/mHh9K/XYBPDiVUyxTcjqviqvFrdXwxtinMqxTyB9VmtRdOBxRjoR8t3tYb37PO7DPWT2+b6+u3bodJ8elbVdv1a5rr0ObhxSnHKdrRY0at6/UdVe+SueOnVffFz6pFtRj4uxZtaPKNzatUjGTVAe/b4PmnMEEHDx3Vnfd/jLdev3LdX6yoMzph9VQ1wKrJa0kUZTM+tX4qvdosnOjRvaSoQo0KUgasoijls2lYNNQzwyGYg71PBvaWbscv5HXeKaioZk8IR4XnOdtUUhw30R21rGiE/Caq9BWu6OMVHgAJIuj5AuVCWeKckEVbneRaP/6Z1W/YZNec+NN0o3Sd77+DdX7UI65SWxfGI66kU5PUV9VkAsSZP2tN+ol08Ocf7MOPvADRde1q6GtnvxxWTV1K+SpBHT48HFKLGv04pfcLGHn33DrdfrgwZ/q5jVcL4BpKKTlKvs1M/mMim2Nmin41FHToEw2TaxeUATKNJ0pUhJk0l5R0bQSW3W8zkLMy/lxbPclAPj5umOeR9Ovu3z/hDklRvqbhkatmSrkvansAB6qfRatqUWCitjggEJhpPr0L+Q+d0orYK1O7TkhVyis2g0rFWxqUYkLlSkEKI1R1VHC+apE5fM3qoJXvXHnFh0f6tOa7RvVvaJTja5a1dZ0KZBFrWLPA2EPcXWGNGMD95tW55pW3XDNzSrBfk7ncfiIfcuFesWTOdVCftSS1Aji5dfynGGFIEPw9MthBik0JkA6BI2RNLPtmXs/MHVpmK0Fl+BkrqQ4RAMFj85WlV47nJVjV4I4dwVSk4BY8Chn1GKZdFxkvVa+9E613fkOtU6e08BPv6sbdl6lybSUAwQDyxXywCVDSIGOtxSCI/Hqys07NXzkuJ78/g+1cm2PkmW30jBZNYGK+i+c0OmnevXRe7+kPBrDRSTrC9Xq9pdfpf/1yS8rGu7W9VetJlSj7PbUAY0VXFp3w+0YAnMOC5iFqv9Qg+RWKgAIv23s9vO3qhTH0UQpaNZIYH5lbMEBHoshvbS5Smxc7Iq5995KCMrR1CJOjPyUu+XoNLemW1ZonWdCmd6f6dS9H1HSE1XXna9T7eSo3NNjeLTw0rXkeksRZImOh04sFLCJsF0rt26AxEgQs6bUYDXRqUE86iPUbWX1wY/8GeAgf+SePUaMRIpqpdTnFRu2KOXOqaGxoGx2XKs9dYrc8GolZrWOPblpGtvt97Y5r7O+xC81kDaMJfK6IjC/tdYLDvA09sptCM9uTgfNveEV1hjVigQWUH3YVcFWeSl8G2tZqTUuylzP4Alv2KXu17yK2irwy/hVoPM9AFmm8yg6I1NEHQ8db1rB/rrJHxvInlRWyTEcrx/v0amDZ/WW//Z++akGqVQyysUr8iUrSk2PagJT0B4t6tR4n3ra1hOuFXT2yBkkuUBKEbX8S9vF9jgkjfP9CyUVe565GC380iV+Qx8sOMBJ4krvrCMy1yaTXgPaNoPESyzsxfnyQHSU8Eo9ebdSvloNRTu0rSWkyrrtJPghPaikzETJ4k3AXgdhr3KATCYIxNitRBZxw7NN4XiJkh03pTl9ex7Vnqf36eY3v0nuSKMe/ccv6Cf33a8MYc7Nm7do87bNOnxiv5J48DPTCV04NaA13Z2q15TG0yPyR66oSqo966zkOg/+7J85sO0Zng9yAjU939uCA5zKAZ71wa8A2RpfgeBwF4h/PVRzcE4ZaXQXcVpKRQ0GW9Sdi6s+MI1dplYKyS7nSBFGUMeEVy7jlhkoRbhjN6GVi6L2ChkhNxIao1T23ENP6vGHfqJAY5c2EQPnUzndcNebtHn7tTpx5pBip0/oOEUFiXReGeq5aiMd2rNnrxRbyfjIyh8IY17MdFQ3ezWQ5wbn7McXX+bUtaNHKLvG/5jv7flDar7v9iuuX8DBsSSRVW1UKzegnXk/tzN1iCyRAcyPDWzztn1lRQEvDTmx37+aZAEU4lQMXhMPGOYJjl8B1SmJA2NpQrO/ZQZEPjWjUnJKM2dP6dzep3X8yB7se1G3ve2d8NyNqqll8EBn+ltatHEDjBasVgIPOE0BQR2JCyvRwTdXegq73dCj2o4Ontme/eJerTypvq8eY8sZXM89p9pWF/OhfgtUtDXR44jwRfTnJMIkgbQrIJiAE/ogAX5SfrjVOFsuVK6fIvRmPUzh3IugKsOxZ5SZ7Fdb11pNkHzo8FEaa8kLP/Eo+eNMhhwxCYSzh/frzDMHFacqs2fzVVpFcmGs94TSCeLn6ZwqxbRCeOCdneuJqz3aP/MED2CkaZzB5Udii/Kvu1GpEjMi3IREcw88K5kXW2JHczI0p6pnv8UOVT2C55/9m3634CoaHeqoOWvYnOc810jrNy+ObylEHtcg5YNgIas8AJexpwa224uUepu0F6fq3Dd+rO3FAUXe2qkmYtQssXCQgZHD+7KcshEeydS0psaHFZuc0BgAJU9N6J/e/R/VhH3vumYbCYcJjTPgOtu61ff4U/JEagi3LEkwrR5YMU8BTePHvvdsVdGHE+dYgReAN9cA5/WF3118P0fpPO/03/CbBQeYwgrHhpntmnNSTA2b9Npe4QS/813OeV+mDspHGq7iQzKJNbOk+lojTZxT0KpXvF4XfvJXupYZC1hanKwU8TLzkBgYKEni1QCkRoOamLpy+JhHazbcrB9/9X5d/0fv0w133yUf01biZKV2Er8GAbbtwEGdOPQjjX3/qA4x/XTVipVUjCTl4xnCrWuRZ2Y2kHCoMJCMWjUSw6o3UR6OdFqtl2keewAr9LP20bJq2xwgfwtUtN+S+QDwXICrQFcBt2K7ue/mQHeAdzqtAkdc6yTX8zhSrdjEl73xd5WIjyhM4bobwsGdzjhq3hsMq4hBtzTe6s1bVdO5Smt37NLdb3+HEsmUYtkE/CHOVyIOAGgN+O9kIqbxZ6aUzGV004vWoZiTaoEudXffJF8bqUmcLx+0aakAsIDMiMN3sCpMctgMKNNAlImYkuK4+p+xdHPbnPKeez8frwsuwfQPSX4cIWv4s42/2AnO5/SQgTwHcLUjqp8VCxbykBOmEsNd8alQQY36YuRk+TyHPS0DGGSJj2x7sUwlJpPO3GSd2rrb5I2GqOQIyE+NV4DPJs6S/I/H1UwmKU71hiebVBPAzFhxAfY+H4H2DI6o9pY3kQ4MKIonaGW3bhgyMy/2jGDM/Xg2JNoqN73ocGfAOrH+bLtmwyX/C3yPJQlwkEYWEOEqvheBvdjYWTXmfPWCEITP8KkhG+CHUauFbFmTWY9WNjRp8MwFNVNGi7amKoRQibiXeEs+pDhADO0P1ioD0RGwcllCqgqT0Oo7m1Su9as4NaUSjJiPsttV7atw3tPqj8WYzYBD2L5Lrp4t2PW03GWqOGDWrLTWB6lixXsFcssuEiSmmg1sp17fEWVAN1Fmq7YI3pt7z/e24BJcy0x7K9OxzRnpv9TiF4Bq3fSspNPhdK6LapAsVRQ+F9JYy9RR5u7WkNUZmxhWiDKfEGreCutK3jTSSmLfW4MapTAvjINHZSSzk5TEnnsIswjLlXflmFyW1+hwvzKVmMqUf1EMJmXPKbPug+rr7aOgz6aujCsaCToAO2lNJNaqMecK8CwzZufZFJkSoFeQbJsDVUJjGfINqPL53hYc4Ag6egI1Z9ucfXquKraqiOdKd3UQVEG28woFqjzoWCttxUiyvgbXIf5tbW3V5NSoYsOTFNplneoK5rnAhHmROdJ5SKw/CGhp4nB+Dz/GwGCgoT4TLNswmaQIDw99iln/GaajlhM4e9tfo+DqrYoXLsCmechRM1W0RA44RXWmAyCWFxtsk90sE2ZefzbDwEKyq7tNeuNcntmevSvSRatrnLbP15+FB5haK5tQZttFwbSOrjbZHBFTbFXl9uzHz37mxWnyIX0FJMcS7HmyQ1bzbMsyrNm0Wcee/oUDtBXPhzxNTsmPB3ArVIrkSdz7cPJ8MFJ50oV5fh+irqu5ewWqASJiRbtyx92KlYbkwREL73olanVC3vBGpcdGFW3BnpNuzFGEb2W85kHbHCojOKxW2tpl85DL5iha4+jtihXpeVHhfNZWV516Wm3p/PxdcIDr4IqdiWW0z6TT6pfnRrwdB5ktOCvCsz0wi7x1mO3wHrGpaaUhMkosphJhWYWcP6cgqrtC9mjDjh06f2Kf4lPjlMNGFEJ6WJEBrqSkPAxVIRqQx0KvAHORKHctZYmZoUPrW1uUnPGpdc1qKj6Y3bChQz7mQSkbItkxLV+YaTGJkDKe9Kz0Vp+nDNtVMKcRzeS1uVBOLTZaghDKBp7VdlesYB4Jb6r/LQDYjxqcoU4qwSIols7L4fkawHN21pnNYDw1ewUpNGG37wJ0lg8nhVpG0nxxKirJNnmCrJxD6W2QgVHLtBNsIDN9yfvu0PiFPo0O9auYxrvu6sRWk+9l7lE4FdFM0s9AaoBfJlNVzinPIiw56qXjE2mlxk7JFZvU1PqXqq3A8g7FUVR4naKlRiXKE1CgNvUFLcTzWfWJaXl7PqsSNcn2B6xGGtNg0cJsu+z7IOdbiDjf24JLsDWwgVLX4ZGZZ50sP3bSOs06Io1EcVDlkxFXk3L73GYp2PzdAh5u2GqsYnGVXD6mlqCegb2A45ZnsPjMNodCal+7RnWU2Jw6dlTHDh9WJ2tv1NfWKw0AESZyZ2CwCgCcxHtOM2thYmgEGxvkdZy0ngdueotGEkmGk5uaKpZaglgpBt0KYxLQ59zT1HA1Zudpnf8cjUQWyjYvkmsDt3rMck5MWL8U26IAeHVXg06dG3QkwJgeI+YtqDCPNEIIRN+xmycKqUAnmaQgOoBIyo+ZC25ADzPN0wAeON+nbNSvaG2Uz6AZcbwCtUgRNjeLIli/80qNnzunE3v3wkszOJB8P5RjIgGvjD+QYEW8xMwUBQE4ZtCSsUqdHjw5pLffNU5ZLbMqoE7RHdj6NKU6Qd5XnSizqQao7XObmRhrjON4ETYx+8n5ysdxWysO2iXYFgXArY1RJldHHc7YHBTL2zqOF501juq2UhuT2hIetTOTwPCl82zHvaHchowx9jfKDMCHvrdHb7v2NsVj004BHLQxTJPRlBXqulpYeQf2q30Fpa5bdGTfHu194JsU0Ie4n4sKC2ZJBAMMIgZFuJYB5tLxkYQeOz2o+vu+pv/wzv8El2XSWGDWTFguKiOLzIGyZ7PNsJ3D1wEbNZxjSkuFgWI13zZBw4ZuhGUgWi6B/bW7mWwsiq2NBckIaKmqRA0Dm3NMDjhM7rZGadUxZaXRk1ezP6/2cJkJ3xVnb6vxKkhh3aq2Bk2NDujez9wD+swdqgEAFz2K+vaGggrXNxMG4XhRmyUqQwrMithx+916y7t+n/g3SjwdYHZiK8swkeOF1SpxLo41167ayR99+6tKjfaxJFOYCefw4oqpvo4gh8RHhDRmGBLFdju2PYqnXEsWK2AjrJJE4RijhgNX4Vkv4ZKIi0KCbYR1QPSfYwZf1mqJHU9llpinYM6F1+kiyc8XzgRwRx3ibZm6LhrRb1mi+KSefupRrSOPa4uq2FINJuFxcrEB1LQboiOA+2wxaJyQxw/zlGHOrrtlja586e06uPshpbCxxiGbGOYoXg96g+YEY1ulgiure++9R5/4m8+SYQoohr2ugShhaDyrTUyS5/Y5sqPLuC6K61yoZZNqY7g29LRdMqFaNBJsIURLZwseKg4Mdi3JdM4ktF8ecHPYXsqgAL9M/TETu/kuBxmRBTRxXMRe5kgI7H7ySYrOo5piDUo3oU4QIiOENGIFSQow149qjwLlOtEgFCFZoyJkRgn31lRxgcSBFefZoMhBnZax7SPT0zrBcodubLQ77Najjz+p/3PPJ7C9FCHkAJOBVOa+JWqibbdjqxix3Y6d73IzMGyEbWSdrJKkvZN1vKya4RJti0aCrb1rKWMdHxjCm8ViMtrN0cqTQCgzw9CN/TXCC7IPYoPHxukqIw1e9jA101/85jcpccUjJvR4au9+da1cy2IpnIv0erHRJcgQNyofbtIp4amgGWxgTBM6HXv6KdURt8ZjWZiwkpJQnllKYuMAb4uleSjX8eON57DkX/zaV9W8slO33Hg7+WDiW8TbNEnV5pJVmrXH1h6T4mKRqTc8lwc/whrQ0tlpX12ybdGtdDfZf0QTJ/crnaM/kMI8B24md2cotIOioNNs2QVUtkkRnvNZymceeewxHTna60z4tjUoh6inevg7X1aNO0NxQDPTTROoZ7SAqQE8a8aOylR3ZKeGdK7vGQ0d6VV+Mq5pVHQBINIMihjZpxMDgzo0nCBGz1DDzKq0yLgXac6QaPDxHLe9/Fb9m9tfrauuukoZ4uuAk460QVjhHJgvVhuouLHHjDJLQDSu2Kz27pWXDFy70aID2B6qb993lZoZwjFBtWJjywCaAxQP0lmGKw6Q4D9+eky7f3EEaT2E+iWRX8fMBaQnlWSxtNSk3vbaW/W7r7sDe1zCcaKUlmWCTcqMazaPuYBKNYJkaqhXg8dOM3Ec3hrgJphvXIH+HJhMMCt/Uvv6iY9R2baetNWV2HSyANKcIr41dqqAVHoZFB/7yEd01ZU71FBfi8Ta7AZMCV5aiXMiNSW1NDSrtWuzNe+Sbp4Ps13SO/4rbhYgWT9wfDcAm9NiMwQnSCYQ6qSpniQR/8TTR/TxL96vY8MlWYhVhMC3NSuLlKF6GQQGQ2/vKW3ZtkM9HY2YaWw2MXXQisyJh93M6LewxVYUyMNSVXg1Kc0Algd1OsPqtQNMFR2Fyoy0dhMr12iEhcLN9/NBgaaR1lrMghX0FYl9LFP04M9/qu9851uKEUc3NdWrEaBbW5uZ6kq4lplWGyU+rl9ZQ/2v6JD/j1MWpQRbe8bP7NOFww84CXXzfjOUzj6yr18P7D6qmQy+Iaq4g1VkC8xVKnNcS8Lf1tnIoYZ90J9lEv4dLQ16+9036cabrsfLjgOw1XUV+Sn5JECP2wLgAyc1PjihC9j+CMBcsfoKPfXkAf3ksQPKMW1l3a5biKcj2v3Yo5qOkTcEZWPRpmC+ZuDAPcTNRlNm0sy+QIlbRGy7+VF/+N53653XNajnJW+Qt2WrNeuSb4vGi35hy1vWXKXuLddTQRHSE70T+qPPPajvHRpjtp6HGDOB88KiohAGxhKZyjSq0orrbLW7HJmdCrPrS3DT933/Ye3ZfwQyg3MBIo0nXnSR1EeiC5TRJlmNJ01dVy0Lma7dtIHHqGjgQr+aWbHnllfcpqRJNh5776mTjsq1AngvHnljM7UekDJWkVMmY+Si6M+89kCIVWi5ShHt81cf/zt96QxrYy4QuNanixZge7iW9a/Q/Udr9NXvHYP3KMiTG4dbtsqoohq72mC4CG0AbZoKDFstxyor4gDg1EED1DghTrhphT5975c1Oj6FqoaEgH/OEgtbUsPqkwPw0A0d3dpy1TVat2WrpljOYXxsTDfe8hKNWbjFdR57bDeVmKzTcf6sBgbO69jRo6hi1uLgfhb3FjANIQoIMizeYokFL3OaunrW6E//7GP62Pvfa01ZsG1RA2y98oH3/RfdfNPLiEvrcXRwXsjejPSPEg6xdk4WdQlQQdJy5ki5kGaH9+W9gWer4Q2PTrEMYbc+8NG/1iQT3ZxsFHbcKiC9qH5/fZM6mNXfvnoD2iHoJPi3X3ml1m3dRphU0QP3f1cH9+3jSSyTZQ4VThYpzg4yUubUmSq2grs0XrNJfwMz/reRorz7ta/Vhz/8QWvCgm6LHmDrnb/46P/gXz65EkaKBMPktK5o6cBZwqP21FIxQWksttcW9XakEo82Z5OxAfjMqWN6+OFHYKF8GppM6dOf/xIYEK5QbGfJijJqvKX7Ctbw2CifzWgI16musU23vvIOfeLTn9MXv/D3mpwcq9punsPCnyK53g0bNjgeud2vAi1qKc+V3Z269sW7tGnLJt31mjt1z9/+pT36gm+XBcDWSx/50/frdW+8SxOsyxFpaUKas2R1KHyDcbLwxWyqTS0hO+8sNTxCxcXgmKnbAVTsI1q3ebvODM/oQ395r9Je7GK0TQ1MQa1ZsUYu/gEOPzMZSlRo7rrtDn3uJ3v0rZ9R9I5Kd2FnC4Boa1laKVV7R5eTiuztPekUG5CdcLJcjSzx4GGNhze/6Y360P98/4IDO/cAi9aLnnvAF77e90//rM998StOaELUQidXC93yzHiwAoAoRW795/t0lLWwXNhn29qplx4eHNJr7nyVzp48prMnTmv3z76jHfzDV/ZvJZnKpWaH8KnIv8iSVM/262GkoDNR5bjIDn1prnFPz2qWKjbVbFlAAMfu257CVkehSP/4T96n17/+tc49F8ufyw5g67izfef1qc9+XvuYeUAuQeM4QLZ2pYUwQ0OD1DTP4ExFiEUbtHLNFU5fp0zyWebh8d0PsUJPLefE9ciD39O1V1/Jb1NobmhHX43++AMf1l9/5vMOiDWU1qYZOGvXrnWoRvPQAzhTRmD4IVfMLNQQnm3ZtEnvfc9/1rr1axcLrs8+x2UJ8NzT3/ft7+qLSLOxSk8/vcepVe7uWalWZgc2NkJwkIwwgtG86xIVHmN4x81NDXjBh5loxho8hEf7d/9U23auJ45lVsNMWSvXb4UarfLLnnJI22GnArZOFwOgzAAy+tESEhmqOppwqH7v996qN/3b18890qJ7vawBtt5MUZXxjfu+rU988lOseUWxHPY0SZYoCCi2bpWFRkb22xwmA8mkz6bDGDFhnvHJIwe19xc/QUrX69V3v00/f/Qp7C4LnRI372SeMKKLozXpxNcWb1tYZK+/89q79e/e9iaHBFl0qD7ngS57gOfaYir4ge//UA8+9IjOnDnLgqP8Y1kAaeGQAywAm422MCoNuPZq35tjdezAPn38b/63/uC/vh/VbPlg6Zpd1zhhUCyOaofJsoHTQ6Lg1pfforvvutOx9XP3XsyvSwbg53bywUNH9OhjT2jPvgMa6O93gDXJdaoeQc8AN0m0YvUQKrcIZbl3zxMkNfCrcMQ3b9yB+m3SBKvovWjblbrpxut1/Yuv5V9y2fbc21wWx0sS4Of2/Cj/otmRZ55R37nzOg/Y5/vPKw49OTUdc1R5haK+AKU5yZlRhRuCevH112n7pqvV3dOtnVduozju0lVfPPe5f1PHSx7g31RHXa7XuWyIjsu1gxf6uZcBXmgE5vn+ywDPcwcv9OWXAV5oBOb5/ssAz3MHL/TllwFeaATm+f7LAM9zBy/05ZcBXmgE5vn+ywDPcwcv9OWXAV5oBOb5/ssAz3MHL/TllwFeaATm+f7LAM9zBy/05ZcBXmgE5vn+ywDPcwcv9OWXAV5oBOb5/ssAz3MHL/TllwFeaATm+f7LAM9zBy/05f8fpg4kxyYlxhQAAAAASUVORK5CYII=;" vertex="1" parent="JkzQYC3tinYeZxNrL9B7-1">
          <mxGeometry x="385" y="160" width="30" height="28.5" as="geometry" />
        </mxCell>
        <mxCell id="JkzQYC3tinYeZxNrL9B7-28" value="Change Tanks" style="rounded=1;whiteSpace=wrap;html=1;" vertex="1" parent="JkzQYC3tinYeZxNrL9B7-1">
          <mxGeometry x="450" y="163.75" width="90" height="22.5" as="geometry" />
        </mxCell>
        <mxCell id="7OpFpwgkAL-PiZH7MPWx-0" value="" style="rounded=1;whiteSpace=wrap;html=1;" vertex="1" parent="JkzQYC3tinYeZxNrL9B7-1">
          <mxGeometry x="320" y="144.25" width="210" height="355.75" as="geometry" />
        </mxCell>
        <mxCell id="7OpFpwgkAL-PiZH7MPWx-3" value="Gerald is currently hungry" style="text;html=1;strokeColor=none;fillColor=none;align=left;verticalAlign=middle;whiteSpace=wrap;rounded=0;" vertex="1" parent="JkzQYC3tinYeZxNrL9B7-1">
          <mxGeometry x="335" y="163.75" width="185" height="30" as="geometry" />
        </mxCell>
        <mxCell id="7OpFpwgkAL-PiZH7MPWx-5" value="To feed gerald..." style="text;html=1;strokeColor=none;fillColor=none;align=left;verticalAlign=middle;whiteSpace=wrap;rounded=0;" vertex="1" parent="JkzQYC3tinYeZxNrL9B7-1">
          <mxGeometry x="335" y="215" width="170" height="30" as="geometry" />
        </mxCell>
        <mxCell id="7OpFpwgkAL-PiZH7MPWx-6" value="" style="rounded=0;whiteSpace=wrap;html=1;" vertex="1" parent="JkzQYC3tinYeZxNrL9B7-1">
          <mxGeometry x="340" y="270" width="20" height="20" as="geometry" />
        </mxCell>
        <mxCell id="7OpFpwgkAL-PiZH7MPWx-7" value="Exercise for 30 minutes" style="text;html=1;strokeColor=none;fillColor=none;align=left;verticalAlign=middle;whiteSpace=wrap;rounded=0;" vertex="1" parent="JkzQYC3tinYeZxNrL9B7-1">
          <mxGeometry x="365" y="265" width="135" height="30" as="geometry" />
        </mxCell>
        <mxCell id="7OpFpwgkAL-PiZH7MPWx-8" value="Feed" style="rounded=1;whiteSpace=wrap;html=1;" vertex="1" parent="JkzQYC3tinYeZxNrL9B7-1">
          <mxGeometry x="360" y="380" width="127.5" height="80" as="geometry" />
        </mxCell>
      </root>
    </mxGraphModel>
  </diagram>
  <diagram name="Feed view 2 (above and beyond)" id="ysDwXyL-BMypk4GrbPI2">
    <mxGraphModel dx="714" dy="450" grid="1" gridSize="10" guides="1" tooltips="1" connect="1" arrows="1" fold="1" page="1" pageScale="1" pageWidth="850" pageHeight="1100" math="0" shadow="0">
      <root>
        <mxCell id="--Ej98XuXZJGyUWXsUNA-0" />
        <mxCell id="--Ej98XuXZJGyUWXsUNA-1" parent="--Ej98XuXZJGyUWXsUNA-0" />
        <mxCell id="--Ej98XuXZJGyUWXsUNA-2" value="" style="rounded=1;whiteSpace=wrap;html=1;rotation=-90;" vertex="1" parent="--Ej98XuXZJGyUWXsUNA-1">
          <mxGeometry x="150" y="190" width="550" height="270" as="geometry" />
        </mxCell>
        <mxCell id="--Ej98XuXZJGyUWXsUNA-3" value="" style="rounded=0;whiteSpace=wrap;html=1;" vertex="1" parent="--Ej98XuXZJGyUWXsUNA-1">
          <mxGeometry x="300" y="202.5" width="250" height="135" as="geometry" />
        </mxCell>
        <mxCell id="--Ej98XuXZJGyUWXsUNA-4" value="" style="triangle;whiteSpace=wrap;html=1;" vertex="1" parent="--Ej98XuXZJGyUWXsUNA-1">
          <mxGeometry x="340" y="255" width="30" height="40" as="geometry" />
        </mxCell>
        <mxCell id="--Ej98XuXZJGyUWXsUNA-5" value="" style="ellipse;whiteSpace=wrap;html=1;aspect=fixed;" vertex="1" parent="--Ej98XuXZJGyUWXsUNA-1">
          <mxGeometry x="360" y="245" width="60" height="60" as="geometry" />
        </mxCell>
        <mxCell id="--Ej98XuXZJGyUWXsUNA-6" value="" style="ellipse;whiteSpace=wrap;html=1;aspect=fixed;" vertex="1" parent="--Ej98XuXZJGyUWXsUNA-1">
          <mxGeometry x="415" y="230" width="15" height="15" as="geometry" />
        </mxCell>
        <mxCell id="--Ej98XuXZJGyUWXsUNA-7" value="" style="ellipse;whiteSpace=wrap;html=1;aspect=fixed;" vertex="1" parent="--Ej98XuXZJGyUWXsUNA-1">
          <mxGeometry x="430" y="210" width="20" height="20" as="geometry" />
        </mxCell>
        <mxCell id="--Ej98XuXZJGyUWXsUNA-8" value="" style="rounded=0;whiteSpace=wrap;html=1;fillColor=#f5f5f5;fontColor=#333333;strokeColor=#666666;" vertex="1" parent="--Ej98XuXZJGyUWXsUNA-1">
          <mxGeometry x="490" y="70" width="50" height="10" as="geometry" />
        </mxCell>
        <mxCell id="--Ej98XuXZJGyUWXsUNA-9" value="" style="rounded=0;whiteSpace=wrap;html=1;fillColor=#f5f5f5;fontColor=#333333;strokeColor=#666666;" vertex="1" parent="--Ej98XuXZJGyUWXsUNA-1">
          <mxGeometry x="490" y="90" width="50" height="10" as="geometry" />
        </mxCell>
        <mxCell id="--Ej98XuXZJGyUWXsUNA-10" value="" style="rounded=0;whiteSpace=wrap;html=1;fillColor=#f5f5f5;fontColor=#333333;strokeColor=#666666;" vertex="1" parent="--Ej98XuXZJGyUWXsUNA-1">
          <mxGeometry x="490" y="110" width="50" height="10" as="geometry" />
        </mxCell>
        <mxCell id="--Ej98XuXZJGyUWXsUNA-11" value="&lt;b&gt;Logo&lt;/b&gt;" style="text;html=1;strokeColor=none;fillColor=none;align=center;verticalAlign=middle;whiteSpace=wrap;rounded=0;" vertex="1" parent="--Ej98XuXZJGyUWXsUNA-1">
          <mxGeometry x="300" y="60" width="60" height="30" as="geometry" />
        </mxCell>
        <mxCell id="--Ej98XuXZJGyUWXsUNA-12" value="" style="rounded=1;whiteSpace=wrap;html=1;" vertex="1" parent="--Ej98XuXZJGyUWXsUNA-1">
          <mxGeometry x="320" y="360" width="220" height="90" as="geometry" />
        </mxCell>
        <mxCell id="--Ej98XuXZJGyUWXsUNA-13" value="&lt;b&gt;Gerald&lt;/b&gt;" style="text;html=1;strokeColor=none;fillColor=none;align=left;verticalAlign=middle;whiteSpace=wrap;rounded=0;" vertex="1" parent="--Ej98XuXZJGyUWXsUNA-1">
          <mxGeometry x="330" y="360" width="40" height="30" as="geometry" />
        </mxCell>
        <mxCell id="--Ej98XuXZJGyUWXsUNA-14" value="" style="triangle;whiteSpace=wrap;html=1;" vertex="1" parent="--Ej98XuXZJGyUWXsUNA-1">
          <mxGeometry x="490" y="365" width="20" height="25" as="geometry" />
        </mxCell>
        <mxCell id="--Ej98XuXZJGyUWXsUNA-15" value="" style="ellipse;whiteSpace=wrap;html=1;aspect=fixed;" vertex="1" parent="--Ej98XuXZJGyUWXsUNA-1">
          <mxGeometry x="500" y="362.5" width="30" height="30" as="geometry" />
        </mxCell>
        <mxCell id="--Ej98XuXZJGyUWXsUNA-16" value="Status: Hungry" style="text;html=1;strokeColor=none;fillColor=none;align=left;verticalAlign=middle;whiteSpace=wrap;rounded=0;" vertex="1" parent="--Ej98XuXZJGyUWXsUNA-1">
          <mxGeometry x="330" y="380" width="85" height="30" as="geometry" />
        </mxCell>
        <mxCell id="--Ej98XuXZJGyUWXsUNA-17" value="&lt;b&gt;Feed&lt;/b&gt;" style="rounded=1;whiteSpace=wrap;html=1;" vertex="1" parent="--Ej98XuXZJGyUWXsUNA-1">
          <mxGeometry x="370" y="420" width="120" height="20" as="geometry" />
        </mxCell>
        <mxCell id="--Ej98XuXZJGyUWXsUNA-18" value="" style="rounded=1;whiteSpace=wrap;html=1;" vertex="1" parent="--Ej98XuXZJGyUWXsUNA-1">
          <mxGeometry x="320" y="480" width="220" height="90" as="geometry" />
        </mxCell>
        <mxCell id="--Ej98XuXZJGyUWXsUNA-19" value="&lt;b&gt;Gerald&lt;/b&gt;" style="text;html=1;strokeColor=none;fillColor=none;align=left;verticalAlign=middle;whiteSpace=wrap;rounded=0;" vertex="1" parent="--Ej98XuXZJGyUWXsUNA-1">
          <mxGeometry x="330" y="480" width="40" height="30" as="geometry" />
        </mxCell>
        <mxCell id="--Ej98XuXZJGyUWXsUNA-20" value="" style="triangle;whiteSpace=wrap;html=1;" vertex="1" parent="--Ej98XuXZJGyUWXsUNA-1">
          <mxGeometry x="490" y="485" width="20" height="25" as="geometry" />
        </mxCell>
        <mxCell id="--Ej98XuXZJGyUWXsUNA-21" value="Status: Hungry" style="text;html=1;strokeColor=none;fillColor=none;align=left;verticalAlign=middle;whiteSpace=wrap;rounded=0;" vertex="1" parent="--Ej98XuXZJGyUWXsUNA-1">
          <mxGeometry x="330" y="500" width="85" height="30" as="geometry" />
        </mxCell>
        <mxCell id="--Ej98XuXZJGyUWXsUNA-22" value="&lt;b&gt;Feed&lt;/b&gt;" style="rounded=1;whiteSpace=wrap;html=1;" vertex="1" parent="--Ej98XuXZJGyUWXsUNA-1">
          <mxGeometry x="370" y="540" width="120" height="20" as="geometry" />
        </mxCell>
        <mxCell id="--Ej98XuXZJGyUWXsUNA-23" value="" style="ellipse;whiteSpace=wrap;html=1;aspect=fixed;" vertex="1" parent="--Ej98XuXZJGyUWXsUNA-1">
          <mxGeometry x="500" y="482.5" width="30" height="30" as="geometry" />
        </mxCell>
        <mxCell id="--Ej98XuXZJGyUWXsUNA-24" value="" style="triangle;whiteSpace=wrap;html=1;rotation=-180;" vertex="1" parent="--Ej98XuXZJGyUWXsUNA-1">
          <mxGeometry x="490" y="255" width="20" height="25" as="geometry" />
        </mxCell>
        <mxCell id="--Ej98XuXZJGyUWXsUNA-25" value="" style="ellipse;whiteSpace=wrap;html=1;aspect=fixed;" vertex="1" parent="--Ej98XuXZJGyUWXsUNA-1">
          <mxGeometry x="470" y="255" width="30" height="30" as="geometry" />
        </mxCell>
        <mxCell id="--Ej98XuXZJGyUWXsUNA-26" value="&lt;b&gt;Jaden&#39;s Tank&lt;/b&gt;" style="text;html=1;strokeColor=none;fillColor=none;align=left;verticalAlign=middle;whiteSpace=wrap;rounded=0;" vertex="1" parent="--Ej98XuXZJGyUWXsUNA-1">
          <mxGeometry x="307.5" y="160" width="95" height="30" as="geometry" />
        </mxCell>
        <mxCell id="--Ej98XuXZJGyUWXsUNA-27" value="" style="shape=image;verticalLabelPosition=bottom;labelBackgroundColor=default;verticalAlign=top;aspect=fixed;imageAspect=0;image=data:image/png,iVBORw0KGgoAAAANSUhEUgAAAHgAAAByCAYAAACY/xW0AAAMP2lDQ1BJQ0MgUHJvZmlsZQAASImVVwdYU8kWnluSkEBoAQSkhN4EkRpASggt9I5gIyQBQokxEFTsyKKCa0FFBGzoqoiCFRA7YmdR7H2xoKKsiwW78iYFdN1XvjffN3f++8+Z/5w5M7cMAGrHOSJRDqoOQK4wXxwb7E8fl5xCJz0FFKAOdAAJEDncPBEzOjocwDLU/r28uw4QaXvFXqr1z/7/WjR4/DwuAEg0xGm8PG4uxPsBwGu4InE+AEQpbzYtXyTFsAItMQwQ4kVSnCHHNVKcJse7ZTbxsSyI2wFQUuFwxBkAqF6CPL2AmwE1VPshdhTyBEIA1OgQ++TmTuFBnAqxNbQRQSzVZ6T9oJPxN820YU0OJ2MYy+ciK0oBgjxRDmfG/5mO/11ycyRDPixhVckUh8RK5wzzdjN7SpgUq0DcJ0yLjIJYE+IPAp7MHmKUkikJSZDbowbcPBbMGVxngDryOAFhEBtAHCTMiQxX8GnpgiA2xHCHoNMF+ex4iHUhXsTPC4xT2GwUT4lV+EKb0sUspoI/yxHL/Ep93ZdkJzAV+q8z+WyFPqZamBmfBDEFYvMCQWIkxKoQO+Rlx4UpbMYWZrIih2zEklhp/OYQx/KFwf5yfawgXRwUq7Avzc0bmi+2MVPAjlTgvfmZ8SHy/GDtXI4sfjgX7BJfyEwY0uHnjQsfmguPHxAonzv2jC9MiFPofBDl+8fKx+IUUU60wh435ecES3lTiF3yCuIUY/HEfLgh5fp4uig/Ol4eJ16YxQmNlseDLwfhgAUCAB1IYE0DU0AWEHT2NffBO3lPEOAAMcgAfGCvYIZGJMl6hPAaBwrBnxDxQd7wOH9ZLx8UQP7rMCu/2oN0WW+BbEQ2eAJxLggDOfBeIhslHPaWCB5DRvAP7xxYuTDeHFil/f+eH2K/M0zIhCsYyZBHutqQJTGQGEAMIQYRbXB93Af3wsPh1Q9WJ5yBewzN47s94Qmhi/CQcI3QTbg1WVAk/inKCNAN9YMUuUj7MRe4JdR0xf1xb6gOlXEdXB/Y4y7QDxP3hZ5dIctSxC3NCv0n7b/N4IfVUNiRHckoeQTZj2z980hVW1XXYRVprn/MjzzWtOF8s4Z7fvbP+iH7PNiG/WyJLcL2YWewE9g57DDWDOjYMawF68COSPHw7nos211D3mJl8WRDHcE//A2trDSTeY71jr2OX+R9+fzp0nc0YE0RzRALMjLz6Uz4ReDT2UKuwyi6k6OTMwDS74v89fUmRvbdQHQ6vnML/gDA+9jg4OCh71zoMQD2uMPH/+B3zpoBPx3KAJw9yJWIC+QcLr0Q4FtCDT5pesAImAFrOB8n4Aa8gB8IBKEgCsSDZDAJRp8J97kYTAOzwHxQAsrAcrAaVIENYDPYDnaBvaAZHAYnwGlwAVwC18AduHt6wAvQD96BzwiCkBAqQkP0EGPEArFDnBAG4oMEIuFILJKMpCIZiBCRILOQBUgZUo5UIZuQOmQPchA5gZxDupBbyAOkF3mNfEIxVAXVQg1RS3Q0ykCZaBgaj05EM9CpaCFajC5FK9FadCfahJ5AL6DX0G70BTqAAUwZ08FMMHuMgbGwKCwFS8fE2BysFKvAarEGrBWu8xWsG+vDPuJEnIbTcXu4g0PwBJyLT8Xn4EvwKnw73oS341fwB3g//o1AJRgQ7AieBDZhHCGDMI1QQqggbCUcIJyCz1IP4R2RSNQhWhHd4bOYTMwiziQuIa4jNhKPE7uIj4gDJBJJj2RH8iZFkTikfFIJaS1pJ+kY6TKph/RBSVnJWMlJKUgpRUmoVKRUobRD6ajSZaWnSp/J6mQLsic5iswjzyAvI28ht5IvknvInykaFCuKNyWekkWZT6mkNFBOUe5S3igrK5sqeyjHKAuU5ylXKu9WPqv8QPmjiqaKrQpLZYKKRGWpyjaV4yq3VN5QqVRLqh81hZpPXUqto56k3qd+UKWpOqiyVXmqc1WrVZtUL6u+VCOrWagx1SapFapVqO1Tu6jWp05Wt1RnqXPU56hXqx9Uv6E+oEHTGKMRpZGrsURjh8Y5jWeaJE1LzUBNnmax5mbNk5qPaBjNjMaicWkLaFtop2g9WkQtKy22VpZWmdYurU6tfm1NbRftRO3p2tXaR7S7dTAdSx22To7OMp29Otd1Po0wHMEcwR+xeETDiMsj3uuO1PXT5euW6jbqXtP9pEfXC9TL1luh16x3Tx/Xt9WP0Z+mv17/lH7fSK2RXiO5I0tH7h152wA1sDWINZhpsNmgw2DA0Mgw2FBkuNbwpGGfkY6Rn1GW0Sqjo0a9xjRjH2OB8SrjY8bP6dp0Jj2HXklvp/ebGJiEmEhMNpl0mnw2tTJNMC0ybTS9Z0YxY5ilm60yazPrNzc2jzCfZV5vftuCbMGwyLRYY3HG4r2llWWS5ULLZstnVrpWbKtCq3qru9ZUa1/rqda11ldtiDYMm2ybdTaXbFFbV9tM22rbi3aonZudwG6dXdcowiiPUcJRtaNu2KvYM+0L7OvtHzjoOIQ7FDk0O7wcbT46ZfSK0WdGf3N0dcxx3OJ4Z4zmmNAxRWNax7x2snXiOlU7XXWmOgc5z3VucX7lYufCd1nvctOV5hrhutC1zfWrm7ub2K3Brdfd3D3Vvcb9BkOLEc1YwjjrQfDw95jrcdjjo6ebZ77nXs+/vOy9sr12eD0bazWWP3bL2Efept4c703e3T50n1SfjT7dvia+HN9a34d+Zn48v61+T5k2zCzmTuZLf0d/sf8B//csT9Zs1vEALCA4oDSgM1AzMCGwKvB+kGlQRlB9UH+wa/DM4OMhhJCwkBUhN9iGbC67jt0f6h46O7Q9TCUsLqwq7GG4bbg4vDUCjQiNWBlxN9IiUhjZHAWi2FEro+5FW0VPjT4UQ4yJjqmOeRI7JnZW7Jk4WtzkuB1x7+L945fF30mwTpAktCWqJU5IrEt8nxSQVJ7UPW70uNnjLiTrJwuSW1JIKYkpW1MGxgeOXz2+Z4LrhJIJ1ydaTZw+8dwk/Uk5k45MVpvMmbwvlZCalLoj9QsnilPLGUhjp9Wk9XNZ3DXcFzw/3ipeL9+bX85/mu6dXp7+LMM7Y2VGb6ZvZkVmn4AlqBK8ygrJ2pD1Pjsqe1v2YE5STmOuUm5q7kGhpjBb2D7FaMr0KV0iO1GJqHuq59TVU/vFYeKteUjexLyWfC34I98hsZb8InlQ4FNQXfBhWuK0fdM1pgund8ywnbF4xtPCoMLfZuIzuTPbZpnMmj/rwWzm7E1zkDlpc9rmms0tntszL3je9vmU+dnzfy9yLCoversgaUFrsWHxvOJHvwT/Ul+iWiIuubHQa+GGRfgiwaLOxc6L1y7+VsorPV/mWFZR9mUJd8n5X8f8Wvnr4NL0pZ3L3JatX05cLlx+fYXviu3lGuWF5Y9WRqxsWkVfVbrq7erJq89VuFRsWENZI1nTXRle2bLWfO3ytV+qMquuVftXN9YY1Cyueb+Ot+7yer/1DRsMN5Rt+LRRsPHmpuBNTbWWtRWbiZsLNj/ZkrjlzG+M3+q26m8t2/p1m3Bb9/bY7e117nV1Owx2LKtH6yX1vTsn7Ly0K2BXS4N9w6ZGncay3WC3ZPfzPal7ru8N29u2j7GvYb/F/poDtAOlTUjTjKb+5szm7pbklq6DoQfbWr1aDxxyOLTtsMnh6iPaR5YdpRwtPjp4rPDYwHHR8b4TGScetU1uu3Ny3Mmr7THtnafCTp09HXT65BnmmWNnvc8ePud57uB5xvnmC24XmjpcOw787vr7gU63zqaL7hdbLnlcau0a23X0su/lE1cCrpy+yr564Vrkta7rCddv3phwo/sm7+azWzm3Xt0uuP35zry7hLul99TvVdw3uF/7h80fjd1u3UceBDzoeBj38M4j7qMXj/Mef+kpfkJ9UvHU+GndM6dnh3uDei89H/+854Xoxee+kj81/qx5af1y/19+f3X0j+vveSV+Nfh6yRu9N9veurxtG4geuP8u993n96Uf9D5s/8j4eOZT0qenn6d9IX2p/GrztfVb2Le7g7mDgyKOmCP7FcBgRdPTAXi9DQBqMgA0eD6jjJef/2QFkZ9ZZQj8Jyw/I8qKGwAN8P89pg/+3dwAYPcWePyC+moTAIimAhDvAVBn5+E6dFaTnSulhQjPARujvqblpoF/U+Rnzh/i/rkFUlUX8HP7Ly0YfEb83gjCAAAAlmVYSWZNTQAqAAAACAAFARIAAwAAAAEAAQAAARoABQAAAAEAAABKARsABQAAAAEAAABSASgAAwAAAAEAAgAAh2kABAAAAAEAAABaAAAAAAAAAJAAAAABAAAAkAAAAAEAA5KGAAcAAAASAAAAhKACAAQAAAABAAAAeKADAAQAAAABAAAAcgAAAABBU0NJSQAAAFNjcmVlbnNob3R+QTpKAAAACXBIWXMAABYlAAAWJQFJUiTwAAAC22lUWHRYTUw6Y29tLmFkb2JlLnhtcAAAAAAAPHg6eG1wbWV0YSB4bWxuczp4PSJhZG9iZTpuczptZXRhLyIgeDp4bXB0az0iWE1QIENvcmUgNi4wLjAiPgogICA8cmRmOlJERiB4bWxuczpyZGY9Imh0dHA6Ly93d3cudzMub3JnLzE5OTkvMDIvMjItcmRmLXN5bnRheC1ucyMiPgogICAgICA8cmRmOkRlc2NyaXB0aW9uIHJkZjphYm91dD0iIgogICAgICAgICAgICB4bWxuczpleGlmPSJodHRwOi8vbnMuYWRvYmUuY29tL2V4aWYvMS4wLyIKICAgICAgICAgICAgeG1sbnM6dGlmZj0iaHR0cDovL25zLmFkb2JlLmNvbS90aWZmLzEuMC8iPgogICAgICAgICA8ZXhpZjpVc2VyQ29tbWVudD5TY3JlZW5zaG90PC9leGlmOlVzZXJDb21tZW50PgogICAgICAgICA8ZXhpZjpQaXhlbFhEaW1lbnNpb24+MTIwPC9leGlmOlBpeGVsWERpbWVuc2lvbj4KICAgICAgICAgPGV4aWY6UGl4ZWxZRGltZW5zaW9uPjExNDwvZXhpZjpQaXhlbFlEaW1lbnNpb24+CiAgICAgICAgIDx0aWZmOlJlc29sdXRpb25Vbml0PjI8L3RpZmY6UmVzb2x1dGlvblVuaXQ+CiAgICAgICAgIDx0aWZmOlhSZXNvbHV0aW9uPjE0NC8xPC90aWZmOlhSZXNvbHV0aW9uPgogICAgICAgICA8dGlmZjpZUmVzb2x1dGlvbj4xNDQvMTwvdGlmZjpZUmVzb2x1dGlvbj4KICAgICAgICAgPHRpZmY6T3JpZW50YXRpb24+MTwvdGlmZjpPcmllbnRhdGlvbj4KICAgICAgPC9yZGY6RGVzY3JpcHRpb24+CiAgIDwvcmRmOlJERj4KPC94OnhtcG1ldGE+CtDzbp8AACexSURBVHgB7Z0HlGRXeef/lWPn3D09PZqcmVEYoYgACVYCIWFgSWbX7MKa413AGzDGizHBx2fXASMMLAiMgbOYIINBIoOQNIpo8owm9KSe6emcK+eq/X2vujWSAB+fs/R0T9NPel2vql699+793y/9v+/ecVXYtLwt2R5wL9mWLTfM6YFlgJf4QFgGeBngJd4DS7x5yxK8DPAS74El3rxlCV4GeIn3wBJv3rIELwO8xHtgiTdvWYKXAV7iPbDEm7cswcsAL/EeWOLNW5bgZYCXeA8s8eYtS/AywEu8B5Z485YleBngJd4DS7x5yxK8DPAS74El3rxlCV4GeIn3wBJv3rIELwO8xHtgiTdvWYKXAV7iPbDEm7cswUscYO8Sb58mkyWdGZpRKj6tmf6jOnV4j0YmEppIFnTo8DGt9I9psigVvSHVh4Na3dGl7rVbdO3L7tDOHdvUVBe8rLvItRSnj54cjutQf0Z7++Ma7jurxnSvSuce00j/GbWtXK9ItEFjgwMa7j+nSMCnqekZ5UsVpfMFDY9PKJHNyxeqUSyV1rv+4qt62U1Xa+eaDq3tuPzAXjIAZ/IlPXxsXD8/OqXpnEfZkfPK9J/U6DMPaEOrX7GhEyp7vGpbtVaJdFbBoF/xeFJZFVTOFjU5NKaZWEKpYk6JTEalikdueeXO5TVdbNbdf/J32nn1zbpmlV+3bKlTyH95WLfLHuBMvqgfHRrXjw4Mq1DyqFzI6NyjX9HZ3X+vpuag6rx1yriCitY3ylfKqaUuqrHJmHy+sCYmJlTf0aAKg6OQLig2HVe2WFYsnVRdfb0CXp9y42c1mvHKXwzqtv/+aYW7XySFpds3N+q2HW0A7VnUKvyyBvjBZyZ0/764csmM3DVuDR3/ufq+/knlZsalujp1+/wqlcdV39ohbzCofDGvwYlJBaJ1qhRyqvGX5fM0qJBNyc/350cTyrkicrnL2r62QcoMqffMlCL+sBIT42rYdLs2veOjSLaP62ZVi82+Y0eHXrq1adGCfFk6WYNTWd331IhODCYV8lRUiESUP31Yez/5IQUDM/I3t8kNaJ66mNb0rFV7Y0SZREIN7euULazVqrZmVVJxhQMB9c2kNTw6qOGxcdV4U9rQ2aZyqaSwq6BEqazu1nZNA27SG5G7MqnaSlAJBo4XbZBDM3zr6TEduZDS665tU1djYNEBfdlJ8KMnpvW1J4al2ZVFSuWiKuO9+sE9f6gGX0bFcKM8dP7m1jrd+aq7tLozqFIureb2ThynqBobauQv51Usu5QtoXrdJWWwuelUStOjoxodGNCJ42eQ9LgGxmIaSibkcbux3zVKDp3Tyz/3NM6YR153RGVXSD5X6llQ33hdm27YUP/s+8VwcFlJ8LeRlp8/M4mKdMn+t61SKesH//DnqqSHVW5tUxtC1OSXdl29Wu3tUnNXt1q71zrnRiN+5acnVaw0KBysUxmprrjzagjW400n1dbaqVWbN+uG292avHBe/Sd6deDISe0/PazRFBIdYlAkXWqsDWLXwwpkxpXDllefo6JvPjmq8XhBd1/T4ny2GP5cNgB/ZfeQDg3FVPH4VS4m5A+1yFuM6cR3P6HY4EmtamlU0IXf6/Uq2t6iHS+6BnW7QvUrerCzbrl9PhXziH2oEd8YtV7Kyx/2yU1olM9lkeiSXHnCIxYdKmRyCkXqtW7nNerp2ajVJ47rwd2HNFyqUyAccFR40TUuT7Rebux6dauOuN2900rhtL31BkbXItguC4A//8iInjkXk8dblttVASyPgj6XEpMj2vPDf1ZXV6tyBDxBQKxHSq/c2MNAcKlu9Vr53C6cJlRsuSzx6nET/thnLpcq5QoaoOh8Vy4WeM85phwYENxIxWJJZcKhnpWrtGtrQQOVQRWnR+RrX6m6AHYfqa7YuS/YDpxPMmBG9O9vWniQf/npXvCwC/32Hx8f1tGhNDaPcKRSQhpd8tOpXuU1dvqAIq6kGqJBwA2rpqZGa1a3qaMDO4t0psrEsR5CJyTWdgPa4/fJ5WNc83n1Fel2jrk+96igBVxevmOvAHIFTzvg96uzpU6bWhs1fXKvMkWkPFvC6WLnur9qP3ohga8wutDdx7Mt4u2BA+Pa3xdH6iryAqyHDrewE5yIXVMaPvGEos0RwhiX2iNhaMZWBSI+RZpr1GbHJVXBtbXekFiPAcuPzW4XSwWVkNoixybtbo/POaeCBLtdHvm8fvl9Abm5oYVYtU0hdTcFles7oDBS7cdUECY7z2TP9av2w/0J/eDg1IL28KIF+BdnYnq0d4belryoZS/AuM3GGlBIXBGA0yPH1bV+NdJWVHtTQI11fiT4Cs3EMyLolSeTBkwkd/Y3Bq4dl1DFzg646GO5QcqLendjvx15NJA514u0+5Fed9ivEINmRVedOjwJJc/3yuPit0FT986Y+bWvT5yKac/Z+IKBvCgBHpnJ6bv7xpAKwKXTrTNdSLF1uguZ9CBdpUJeNZUEIVBZzS31CjX41QwInkJZPU1dSHiRmDfh/MbCHAMWtB3A7To2SDxc2wu4HqTXyzXtM87i2gwAuGnOUpAkRCDkV6SuQSva67Wps0YTh3ernE/OXtuk+F/ev3dgUqOxOWfs0mK9KAH+weEJAK1KhtdnkguofGAA2OYygMsFNRC2dNY3qLWpSRs2rFNrW4tqwmHFpiaVIAQq8VvhSNlmDpQRGCbRdh0bOA7ofFfi82KReJrY2ITaHLIKJIf91u0OEEIFFCAsUj6rhojUCeER9GCbKwwQ8wf+hd0Gk+0/PjLtPMel/rPoAH7y9Iz6xjNO51vH2GZSa4duHB9TqS63VwVCkRAA1kUjqgtHFcWr9bt9itaEFG0Iyx30KhSNVkEFLAOtjFeMtq+OHF5KgGrA5gmP8oRL9t6R8tnz7c4YaE2Ojmjw1AXFJ8aUS8fVGiwpMT2uUAX1PQvgr3t1cUPbz01k9Iszl15VL6owKYtqfPTEFKEN/Wq6EouYRzWHCYtKJfI+aY6jjcSwLgWFfa6tU0NXjXzlgOP1ll0ZTQ2kYK2a1Lm+hd/5lUL9AjPqegZvOKJKsEbZdFne8WkNJs7JHUsrA7NVU0wqzyBQTVQu0oVhby1gjinOPafHD6qUKGhwZlLxkZx8OGd1voiywRzXzipd8DKA0AgMEFP5FX+IgZPH08/Adl2Uocd7J7VjZVQBa+Al2hYVwE+emlGOEKQquXQ2m7dMuEI4Im9FwZogoUsWQqKsoEmtH682SQhVC/lfKGp8ZAShc2nzjq2qDTWrQGf7Te1mCgp4wuo7P6HB8RPqPXJEqcFhDZ7tU+/4eXnzOa2/YpPWrYT16lmhls52NfqGFU/FlDh7TmfgovvHXeSYpzQ5c0EdeNc7Jo8r0F2HN87gw6MO1deolI1BksShL2kDA9Tten738thIcUw3bySRcYm25z/BJbrpr7pNDund25dwwiH73lwc26LuoLKZrDwBi4+QlFIcsAAtUqtIqAE76FYE0qMI3xyJEv9GfepavU6BmhUamk7q4OkBPfLoQf3tZ77Odw3aGErqU3/2FjXv6tToyBU6t++QijPTShY8Sk0O6vBwv/KegHZClsQmpnXq5IiOxabUXlvW1VGkesV6lWLjOv2jexWgWqSCBHdu3mVoOiFcNBJSLpvD8SLE4jquSsFpR/WPS/sgQa5dAyN2iaR40QB8kJixjANkodBztBowFxUiDi15sJWQC4GQG1BdVFtAYoTrlUFdrwjVaWx6gqzQkGOvT4zdry9/Z7+GBqb0SqSte61f97x+g9bfeKMOnezVpu2b9dCeJ9V/clT9p0ZVi2pd3Yy010e1vmONGrZdpXff8w86tOewNjfX6g07VyiGR352gkwVz7BuVYeaem7RlDevkbN7NBMKqKe2FRImrFI6QZYqCg0De4bHNutGgG91wJrPd3ggqWuuqH0O8PN3uGgAPkajjSwwFeuyGHN2K2J7Q/4A9rGEI4VEOH5PhVqpiI6RAfIlJvTwhV49vL9XFdis67av0R23rdfv/86rVEsiYSZW0ulzD2rgZ4/oyW8c11PjZImO7tf123aqNDCqEGxIEa96muTDtbfcqSvWbNLg8KCubqjTH7zrbfrQ5/+v9lHTFQjivHFzD9rjyPmTaoluUU1kAx58o9Zu3KgMz16xZ4yGlTKNg/mgJbOwPt/mHh9K/XYBPDiVUyxTcjqviqvFrdXwxtinMqxTyB9VmtRdOBxRjoR8t3tYb37PO7DPWT2+b6+u3bodJ8elbVdv1a5rr0ObhxSnHKdrRY0at6/UdVe+SueOnVffFz6pFtRj4uxZtaPKNzatUjGTVAe/b4PmnMEEHDx3Vnfd/jLdev3LdX6yoMzph9VQ1wKrJa0kUZTM+tX4qvdosnOjRvaSoQo0KUgasoijls2lYNNQzwyGYg71PBvaWbscv5HXeKaioZk8IR4XnOdtUUhw30R21rGiE/Caq9BWu6OMVHgAJIuj5AuVCWeKckEVbneRaP/6Z1W/YZNec+NN0o3Sd77+DdX7UI65SWxfGI66kU5PUV9VkAsSZP2tN+ol08Ocf7MOPvADRde1q6GtnvxxWTV1K+SpBHT48HFKLGv04pfcLGHn33DrdfrgwZ/q5jVcL4BpKKTlKvs1M/mMim2Nmin41FHToEw2TaxeUATKNJ0pUhJk0l5R0bQSW3W8zkLMy/lxbPclAPj5umOeR9Ovu3z/hDklRvqbhkatmSrkvansAB6qfRatqUWCitjggEJhpPr0L+Q+d0orYK1O7TkhVyis2g0rFWxqUYkLlSkEKI1R1VHC+apE5fM3qoJXvXHnFh0f6tOa7RvVvaJTja5a1dZ0KZBFrWLPA2EPcXWGNGMD95tW55pW3XDNzSrBfk7ncfiIfcuFesWTOdVCftSS1Aji5dfynGGFIEPw9MthBik0JkA6BI2RNLPtmXs/MHVpmK0Fl+BkrqQ4RAMFj85WlV47nJVjV4I4dwVSk4BY8Chn1GKZdFxkvVa+9E613fkOtU6e08BPv6sbdl6lybSUAwQDyxXywCVDSIGOtxSCI/Hqys07NXzkuJ78/g+1cm2PkmW30jBZNYGK+i+c0OmnevXRe7+kPBrDRSTrC9Xq9pdfpf/1yS8rGu7W9VetJlSj7PbUAY0VXFp3w+0YAnMOC5iFqv9Qg+RWKgAIv23s9vO3qhTH0UQpaNZIYH5lbMEBHoshvbS5Smxc7Iq5995KCMrR1CJOjPyUu+XoNLemW1ZonWdCmd6f6dS9H1HSE1XXna9T7eSo3NNjeLTw0rXkeksRZImOh04sFLCJsF0rt26AxEgQs6bUYDXRqUE86iPUbWX1wY/8GeAgf+SePUaMRIpqpdTnFRu2KOXOqaGxoGx2XKs9dYrc8GolZrWOPblpGtvt97Y5r7O+xC81kDaMJfK6IjC/tdYLDvA09sptCM9uTgfNveEV1hjVigQWUH3YVcFWeSl8G2tZqTUuylzP4Alv2KXu17yK2irwy/hVoPM9AFmm8yg6I1NEHQ8db1rB/rrJHxvInlRWyTEcrx/v0amDZ/WW//Z++akGqVQyysUr8iUrSk2PagJT0B4t6tR4n3ra1hOuFXT2yBkkuUBKEbX8S9vF9jgkjfP9CyUVe565GC380iV+Qx8sOMBJ4krvrCMy1yaTXgPaNoPESyzsxfnyQHSU8Eo9ebdSvloNRTu0rSWkyrrtJPghPaikzETJ4k3AXgdhr3KATCYIxNitRBZxw7NN4XiJkh03pTl9ex7Vnqf36eY3v0nuSKMe/ccv6Cf33a8MYc7Nm7do87bNOnxiv5J48DPTCV04NaA13Z2q15TG0yPyR66oSqo966zkOg/+7J85sO0Zng9yAjU939uCA5zKAZ71wa8A2RpfgeBwF4h/PVRzcE4ZaXQXcVpKRQ0GW9Sdi6s+MI1dplYKyS7nSBFGUMeEVy7jlhkoRbhjN6GVi6L2ChkhNxIao1T23ENP6vGHfqJAY5c2EQPnUzndcNebtHn7tTpx5pBip0/oOEUFiXReGeq5aiMd2rNnrxRbyfjIyh8IY17MdFQ3ezWQ5wbn7McXX+bUtaNHKLvG/5jv7flDar7v9iuuX8DBsSSRVW1UKzegnXk/tzN1iCyRAcyPDWzztn1lRQEvDTmx37+aZAEU4lQMXhMPGOYJjl8B1SmJA2NpQrO/ZQZEPjWjUnJKM2dP6dzep3X8yB7se1G3ve2d8NyNqqll8EBn+ltatHEDjBasVgIPOE0BQR2JCyvRwTdXegq73dCj2o4Ontme/eJerTypvq8eY8sZXM89p9pWF/OhfgtUtDXR44jwRfTnJMIkgbQrIJiAE/ogAX5SfrjVOFsuVK6fIvRmPUzh3IugKsOxZ5SZ7Fdb11pNkHzo8FEaa8kLP/Eo+eNMhhwxCYSzh/frzDMHFacqs2fzVVpFcmGs94TSCeLn6ZwqxbRCeOCdneuJqz3aP/MED2CkaZzB5Udii/Kvu1GpEjMi3IREcw88K5kXW2JHczI0p6pnv8UOVT2C55/9m3634CoaHeqoOWvYnOc810jrNy+ObylEHtcg5YNgIas8AJexpwa224uUepu0F6fq3Dd+rO3FAUXe2qkmYtQssXCQgZHD+7KcshEeydS0psaHFZuc0BgAJU9N6J/e/R/VhH3vumYbCYcJjTPgOtu61ff4U/JEagi3LEkwrR5YMU8BTePHvvdsVdGHE+dYgReAN9cA5/WF3118P0fpPO/03/CbBQeYwgrHhpntmnNSTA2b9Npe4QS/813OeV+mDspHGq7iQzKJNbOk+lojTZxT0KpXvF4XfvJXupYZC1hanKwU8TLzkBgYKEni1QCkRoOamLpy+JhHazbcrB9/9X5d/0fv0w133yUf01biZKV2Er8GAbbtwEGdOPQjjX3/qA4x/XTVipVUjCTl4xnCrWuRZ2Y2kHCoMJCMWjUSw6o3UR6OdFqtl2keewAr9LP20bJq2xwgfwtUtN+S+QDwXICrQFcBt2K7ue/mQHeAdzqtAkdc6yTX8zhSrdjEl73xd5WIjyhM4bobwsGdzjhq3hsMq4hBtzTe6s1bVdO5Smt37NLdb3+HEsmUYtkE/CHOVyIOAGgN+O9kIqbxZ6aUzGV004vWoZiTaoEudXffJF8bqUmcLx+0aakAsIDMiMN3sCpMctgMKNNAlImYkuK4+p+xdHPbnPKeez8frwsuwfQPSX4cIWv4s42/2AnO5/SQgTwHcLUjqp8VCxbykBOmEsNd8alQQY36YuRk+TyHPS0DGGSJj2x7sUwlJpPO3GSd2rrb5I2GqOQIyE+NV4DPJs6S/I/H1UwmKU71hiebVBPAzFhxAfY+H4H2DI6o9pY3kQ4MKIonaGW3bhgyMy/2jGDM/Xg2JNoqN73ocGfAOrH+bLtmwyX/C3yPJQlwkEYWEOEqvheBvdjYWTXmfPWCEITP8KkhG+CHUauFbFmTWY9WNjRp8MwFNVNGi7amKoRQibiXeEs+pDhADO0P1ioD0RGwcllCqgqT0Oo7m1Su9as4NaUSjJiPsttV7atw3tPqj8WYzYBD2L5Lrp4t2PW03GWqOGDWrLTWB6lixXsFcssuEiSmmg1sp17fEWVAN1Fmq7YI3pt7z/e24BJcy0x7K9OxzRnpv9TiF4Bq3fSspNPhdK6LapAsVRQ+F9JYy9RR5u7WkNUZmxhWiDKfEGreCutK3jTSSmLfW4MapTAvjINHZSSzk5TEnnsIswjLlXflmFyW1+hwvzKVmMqUf1EMJmXPKbPug+rr7aOgz6aujCsaCToAO2lNJNaqMecK8CwzZufZFJkSoFeQbJsDVUJjGfINqPL53hYc4Ag6egI1Z9ucfXquKraqiOdKd3UQVEG28woFqjzoWCttxUiyvgbXIf5tbW3V5NSoYsOTFNplneoK5rnAhHmROdJ5SKw/CGhp4nB+Dz/GwGCgoT4TLNswmaQIDw99iln/GaajlhM4e9tfo+DqrYoXLsCmechRM1W0RA44RXWmAyCWFxtsk90sE2ZefzbDwEKyq7tNeuNcntmevSvSRatrnLbP15+FB5haK5tQZttFwbSOrjbZHBFTbFXl9uzHz37mxWnyIX0FJMcS7HmyQ1bzbMsyrNm0Wcee/oUDtBXPhzxNTsmPB3ArVIrkSdz7cPJ8MFJ50oV5fh+irqu5ewWqASJiRbtyx92KlYbkwREL73olanVC3vBGpcdGFW3BnpNuzFGEb2W85kHbHCojOKxW2tpl85DL5iha4+jtihXpeVHhfNZWV516Wm3p/PxdcIDr4IqdiWW0z6TT6pfnRrwdB5ktOCvCsz0wi7x1mO3wHrGpaaUhMkosphJhWYWcP6cgqrtC9mjDjh06f2Kf4lPjlMNGFEJ6WJEBrqSkPAxVIRqQx0KvAHORKHctZYmZoUPrW1uUnPGpdc1qKj6Y3bChQz7mQSkbItkxLV+YaTGJkDKe9Kz0Vp+nDNtVMKcRzeS1uVBOLTZaghDKBp7VdlesYB4Jb6r/LQDYjxqcoU4qwSIols7L4fkawHN21pnNYDw1ewUpNGG37wJ0lg8nhVpG0nxxKirJNnmCrJxD6W2QgVHLtBNsIDN9yfvu0PiFPo0O9auYxrvu6sRWk+9l7lE4FdFM0s9AaoBfJlNVzinPIiw56qXjE2mlxk7JFZvU1PqXqq3A8g7FUVR4naKlRiXKE1CgNvUFLcTzWfWJaXl7PqsSNcn2B6xGGtNg0cJsu+z7IOdbiDjf24JLsDWwgVLX4ZGZZ50sP3bSOs06Io1EcVDlkxFXk3L73GYp2PzdAh5u2GqsYnGVXD6mlqCegb2A45ZnsPjMNodCal+7RnWU2Jw6dlTHDh9WJ2tv1NfWKw0AESZyZ2CwCgCcxHtOM2thYmgEGxvkdZy0ngdueotGEkmGk5uaKpZaglgpBt0KYxLQ59zT1HA1Zudpnf8cjUQWyjYvkmsDt3rMck5MWL8U26IAeHVXg06dG3QkwJgeI+YtqDCPNEIIRN+xmycKqUAnmaQgOoBIyo+ZC25ADzPN0wAeON+nbNSvaG2Uz6AZcbwCtUgRNjeLIli/80qNnzunE3v3wkszOJB8P5RjIgGvjD+QYEW8xMwUBQE4ZtCSsUqdHjw5pLffNU5ZLbMqoE7RHdj6NKU6Qd5XnSizqQao7XObmRhrjON4ETYx+8n5ysdxWysO2iXYFgXArY1RJldHHc7YHBTL2zqOF501juq2UhuT2hIetTOTwPCl82zHvaHchowx9jfKDMCHvrdHb7v2NsVj004BHLQxTJPRlBXqulpYeQf2q30Fpa5bdGTfHu194JsU0Ie4n4sKC2ZJBAMMIgZFuJYB5tLxkYQeOz2o+vu+pv/wzv8El2XSWGDWTFguKiOLzIGyZ7PNsJ3D1wEbNZxjSkuFgWI13zZBw4ZuhGUgWi6B/bW7mWwsiq2NBckIaKmqRA0Dm3NMDjhM7rZGadUxZaXRk1ezP6/2cJkJ3xVnb6vxKkhh3aq2Bk2NDujez9wD+swdqgEAFz2K+vaGggrXNxMG4XhRmyUqQwrMithx+916y7t+n/g3SjwdYHZiK8swkeOF1SpxLo41167ayR99+6tKjfaxJFOYCefw4oqpvo4gh8RHhDRmGBLFdju2PYqnXEsWK2AjrJJE4RijhgNX4Vkv4ZKIi0KCbYR1QPSfYwZf1mqJHU9llpinYM6F1+kiyc8XzgRwRx3ibZm6LhrRb1mi+KSefupRrSOPa4uq2FINJuFxcrEB1LQboiOA+2wxaJyQxw/zlGHOrrtlja586e06uPshpbCxxiGbGOYoXg96g+YEY1ulgiure++9R5/4m8+SYQoohr2ugShhaDyrTUyS5/Y5sqPLuC6K61yoZZNqY7g29LRdMqFaNBJsIURLZwseKg4Mdi3JdM4ktF8ecHPYXsqgAL9M/TETu/kuBxmRBTRxXMRe5kgI7H7ySYrOo5piDUo3oU4QIiOENGIFSQow149qjwLlOtEgFCFZoyJkRgn31lRxgcSBFefZoMhBnZax7SPT0zrBcodubLQ77Najjz+p/3PPJ7C9FCHkAJOBVOa+JWqibbdjqxix3Y6d73IzMGyEbWSdrJKkvZN1vKya4RJti0aCrb1rKWMdHxjCm8ViMtrN0cqTQCgzw9CN/TXCC7IPYoPHxukqIw1e9jA101/85jcpccUjJvR4au9+da1cy2IpnIv0erHRJcgQNyofbtIp4amgGWxgTBM6HXv6KdURt8ZjWZiwkpJQnllKYuMAb4uleSjX8eON57DkX/zaV9W8slO33Hg7+WDiW8TbNEnV5pJVmrXH1h6T4mKRqTc8lwc/whrQ0tlpX12ybdGtdDfZf0QTJ/crnaM/kMI8B24md2cotIOioNNs2QVUtkkRnvNZymceeewxHTna60z4tjUoh6inevg7X1aNO0NxQDPTTROoZ7SAqQE8a8aOylR3ZKeGdK7vGQ0d6VV+Mq5pVHQBINIMihjZpxMDgzo0nCBGz1DDzKq0yLgXac6QaPDxHLe9/Fb9m9tfrauuukoZ4uuAk460QVjhHJgvVhuouLHHjDJLQDSu2Kz27pWXDFy70aID2B6qb993lZoZwjFBtWJjywCaAxQP0lmGKw6Q4D9+eky7f3EEaT2E+iWRX8fMBaQnlWSxtNSk3vbaW/W7r7sDe1zCcaKUlmWCTcqMazaPuYBKNYJkaqhXg8dOM3Ec3hrgJphvXIH+HJhMMCt/Uvv6iY9R2baetNWV2HSyANKcIr41dqqAVHoZFB/7yEd01ZU71FBfi8Ta7AZMCV5aiXMiNSW1NDSrtWuzNe+Sbp4Ps13SO/4rbhYgWT9wfDcAm9NiMwQnSCYQ6qSpniQR/8TTR/TxL96vY8MlWYhVhMC3NSuLlKF6GQQGQ2/vKW3ZtkM9HY2YaWw2MXXQisyJh93M6LewxVYUyMNSVXg1Kc0Algd1OsPqtQNMFR2Fyoy0dhMr12iEhcLN9/NBgaaR1lrMghX0FYl9LFP04M9/qu9851uKEUc3NdWrEaBbW5uZ6kq4lplWGyU+rl9ZQ/2v6JD/j1MWpQRbe8bP7NOFww84CXXzfjOUzj6yr18P7D6qmQy+Iaq4g1VkC8xVKnNcS8Lf1tnIoYZ90J9lEv4dLQ16+9036cabrsfLjgOw1XUV+Sn5JECP2wLgAyc1PjihC9j+CMBcsfoKPfXkAf3ksQPKMW1l3a5biKcj2v3Yo5qOkTcEZWPRpmC+ZuDAPcTNRlNm0sy+QIlbRGy7+VF/+N53653XNajnJW+Qt2WrNeuSb4vGi35hy1vWXKXuLddTQRHSE70T+qPPPajvHRpjtp6HGDOB88KiohAGxhKZyjSq0orrbLW7HJmdCrPrS3DT933/Ye3ZfwQyg3MBIo0nXnSR1EeiC5TRJlmNJ01dVy0Lma7dtIHHqGjgQr+aWbHnllfcpqRJNh5776mTjsq1AngvHnljM7UekDJWkVMmY+Si6M+89kCIVWi5ShHt81cf/zt96QxrYy4QuNanixZge7iW9a/Q/Udr9NXvHYP3KMiTG4dbtsqoohq72mC4CG0AbZoKDFstxyor4gDg1EED1DghTrhphT5975c1Oj6FqoaEgH/OEgtbUsPqkwPw0A0d3dpy1TVat2WrpljOYXxsTDfe8hKNWbjFdR57bDeVmKzTcf6sBgbO69jRo6hi1uLgfhb3FjANIQoIMizeYokFL3OaunrW6E//7GP62Pvfa01ZsG1RA2y98oH3/RfdfNPLiEvrcXRwXsjejPSPEg6xdk4WdQlQQdJy5ki5kGaH9+W9gWer4Q2PTrEMYbc+8NG/1iQT3ZxsFHbcKiC9qH5/fZM6mNXfvnoD2iHoJPi3X3ml1m3dRphU0QP3f1cH9+3jSSyTZQ4VThYpzg4yUubUmSq2grs0XrNJfwMz/reRorz7ta/Vhz/8QWvCgm6LHmDrnb/46P/gXz65EkaKBMPktK5o6cBZwqP21FIxQWksttcW9XakEo82Z5OxAfjMqWN6+OFHYKF8GppM6dOf/xIYEK5QbGfJijJqvKX7Ctbw2CifzWgI16musU23vvIOfeLTn9MXv/D3mpwcq9punsPCnyK53g0bNjgeud2vAi1qKc+V3Z269sW7tGnLJt31mjt1z9/+pT36gm+XBcDWSx/50/frdW+8SxOsyxFpaUKas2R1KHyDcbLwxWyqTS0hO+8sNTxCxcXgmKnbAVTsI1q3ebvODM/oQ395r9Je7GK0TQ1MQa1ZsUYu/gEOPzMZSlRo7rrtDn3uJ3v0rZ9R9I5Kd2FnC4Boa1laKVV7R5eTiuztPekUG5CdcLJcjSzx4GGNhze/6Y360P98/4IDO/cAi9aLnnvAF77e90//rM998StOaELUQidXC93yzHiwAoAoRW795/t0lLWwXNhn29qplx4eHNJr7nyVzp48prMnTmv3z76jHfzDV/ZvJZnKpWaH8KnIv8iSVM/262GkoDNR5bjIDn1prnFPz2qWKjbVbFlAAMfu257CVkehSP/4T96n17/+tc49F8ufyw5g67izfef1qc9+XvuYeUAuQeM4QLZ2pYUwQ0OD1DTP4ExFiEUbtHLNFU5fp0zyWebh8d0PsUJPLefE9ciD39O1V1/Jb1NobmhHX43++AMf1l9/5vMOiDWU1qYZOGvXrnWoRvPQAzhTRmD4IVfMLNQQnm3ZtEnvfc9/1rr1axcLrs8+x2UJ8NzT3/ft7+qLSLOxSk8/vcepVe7uWalWZgc2NkJwkIwwgtG86xIVHmN4x81NDXjBh5loxho8hEf7d/9U23auJ45lVsNMWSvXb4UarfLLnnJI22GnArZOFwOgzAAy+tESEhmqOppwqH7v996qN/3b18890qJ7vawBtt5MUZXxjfu+rU988lOseUWxHPY0SZYoCCi2bpWFRkb22xwmA8mkz6bDGDFhnvHJIwe19xc/QUrX69V3v00/f/Qp7C4LnRI372SeMKKLozXpxNcWb1tYZK+/89q79e/e9iaHBFl0qD7ngS57gOfaYir4ge//UA8+9IjOnDnLgqP8Y1kAaeGQAywAm422MCoNuPZq35tjdezAPn38b/63/uC/vh/VbPlg6Zpd1zhhUCyOaofJsoHTQ6Lg1pfforvvutOx9XP3XsyvSwbg53bywUNH9OhjT2jPvgMa6O93gDXJdaoeQc8AN0m0YvUQKrcIZbl3zxMkNfCrcMQ3b9yB+m3SBKvovWjblbrpxut1/Yuv5V9y2fbc21wWx0sS4Of2/Cj/otmRZ55R37nzOg/Y5/vPKw49OTUdc1R5haK+AKU5yZlRhRuCevH112n7pqvV3dOtnVduozju0lVfPPe5f1PHSx7g31RHXa7XuWyIjsu1gxf6uZcBXmgE5vn+ywDPcwcv9OWXAV5oBOb5/ssAz3MHL/TllwFeaATm+f7LAM9zBy/05ZcBXmgE5vn+ywDPcwcv9OWXAV5oBOb5/ssAz3MHL/TllwFeaATm+f7LAM9zBy/05ZcBXmgE5vn+ywDPcwcv9OWXAV5oBOb5/ssAz3MHL/TllwFeaATm+f7LAM9zBy/05f8fpg4kxyYlxhQAAAAASUVORK5CYII=;" vertex="1" parent="--Ej98XuXZJGyUWXsUNA-1">
          <mxGeometry x="385" y="160" width="30" height="28.5" as="geometry" />
        </mxCell>
        <mxCell id="--Ej98XuXZJGyUWXsUNA-28" value="Change Tanks" style="rounded=1;whiteSpace=wrap;html=1;" vertex="1" parent="--Ej98XuXZJGyUWXsUNA-1">
          <mxGeometry x="450" y="163.75" width="90" height="22.5" as="geometry" />
        </mxCell>
        <mxCell id="--Ej98XuXZJGyUWXsUNA-29" value="" style="rounded=1;whiteSpace=wrap;html=1;" vertex="1" parent="--Ej98XuXZJGyUWXsUNA-1">
          <mxGeometry x="320" y="144.25" width="210" height="355.75" as="geometry" />
        </mxCell>
        <mxCell id="--Ej98XuXZJGyUWXsUNA-30" value="Fido is currently happy" style="text;html=1;strokeColor=none;fillColor=none;align=left;verticalAlign=middle;whiteSpace=wrap;rounded=0;" vertex="1" parent="--Ej98XuXZJGyUWXsUNA-1">
          <mxGeometry x="335" y="163.75" width="185" height="30" as="geometry" />
        </mxCell>
        <mxCell id="--Ej98XuXZJGyUWXsUNA-31" value="To feed gerald..." style="text;html=1;strokeColor=none;fillColor=none;align=left;verticalAlign=middle;whiteSpace=wrap;rounded=0;" vertex="1" parent="--Ej98XuXZJGyUWXsUNA-1">
          <mxGeometry x="335" y="215" width="170" height="30" as="geometry" />
        </mxCell>
        <mxCell id="--Ej98XuXZJGyUWXsUNA-32" value="" style="rounded=0;whiteSpace=wrap;html=1;" vertex="1" parent="--Ej98XuXZJGyUWXsUNA-1">
          <mxGeometry x="340" y="270" width="20" height="20" as="geometry" />
        </mxCell>
        <mxCell id="--Ej98XuXZJGyUWXsUNA-33" value="Review flashcards:&amp;nbsp;" style="text;html=1;strokeColor=none;fillColor=none;align=left;verticalAlign=middle;whiteSpace=wrap;rounded=0;" vertex="1" parent="--Ej98XuXZJGyUWXsUNA-1">
          <mxGeometry x="365" y="265" width="135" height="30" as="geometry" />
        </mxCell>
        <mxCell id="--Ej98XuXZJGyUWXsUNA-34" value="Feed" style="rounded=1;whiteSpace=wrap;html=1;" vertex="1" parent="--Ej98XuXZJGyUWXsUNA-1">
          <mxGeometry x="360" y="380" width="127.5" height="80" as="geometry" />
        </mxCell>
      </root>
    </mxGraphModel>
  </diagram>
  <diagram name="Add Fish View" id="jFxeC-O4OEAGbPQU_h5F">
    <mxGraphModel dx="714" dy="450" grid="1" gridSize="10" guides="1" tooltips="1" connect="1" arrows="1" fold="1" page="1" pageScale="1" pageWidth="850" pageHeight="1100" math="0" shadow="0">
      <root>
        <mxCell id="-j13bRqeIP-MtHbCBuNI-0" />
        <mxCell id="-j13bRqeIP-MtHbCBuNI-1" parent="-j13bRqeIP-MtHbCBuNI-0" />
        <mxCell id="-j13bRqeIP-MtHbCBuNI-2" value="" style="rounded=1;whiteSpace=wrap;html=1;rotation=-90;" vertex="1" parent="-j13bRqeIP-MtHbCBuNI-1">
          <mxGeometry x="150" y="190" width="550" height="270" as="geometry" />
        </mxCell>
        <mxCell id="-j13bRqeIP-MtHbCBuNI-3" value="" style="rounded=0;whiteSpace=wrap;html=1;" vertex="1" parent="-j13bRqeIP-MtHbCBuNI-1">
          <mxGeometry x="300" y="202.5" width="250" height="135" as="geometry" />
        </mxCell>
        <mxCell id="-j13bRqeIP-MtHbCBuNI-4" value="" style="triangle;whiteSpace=wrap;html=1;" vertex="1" parent="-j13bRqeIP-MtHbCBuNI-1">
          <mxGeometry x="340" y="255" width="30" height="40" as="geometry" />
        </mxCell>
        <mxCell id="-j13bRqeIP-MtHbCBuNI-5" value="" style="ellipse;whiteSpace=wrap;html=1;aspect=fixed;" vertex="1" parent="-j13bRqeIP-MtHbCBuNI-1">
          <mxGeometry x="360" y="245" width="60" height="60" as="geometry" />
        </mxCell>
        <mxCell id="-j13bRqeIP-MtHbCBuNI-6" value="" style="ellipse;whiteSpace=wrap;html=1;aspect=fixed;" vertex="1" parent="-j13bRqeIP-MtHbCBuNI-1">
          <mxGeometry x="415" y="230" width="15" height="15" as="geometry" />
        </mxCell>
        <mxCell id="-j13bRqeIP-MtHbCBuNI-7" value="" style="ellipse;whiteSpace=wrap;html=1;aspect=fixed;" vertex="1" parent="-j13bRqeIP-MtHbCBuNI-1">
          <mxGeometry x="430" y="210" width="20" height="20" as="geometry" />
        </mxCell>
        <mxCell id="-j13bRqeIP-MtHbCBuNI-8" value="" style="rounded=0;whiteSpace=wrap;html=1;fillColor=#f5f5f5;fontColor=#333333;strokeColor=#666666;" vertex="1" parent="-j13bRqeIP-MtHbCBuNI-1">
          <mxGeometry x="490" y="70" width="50" height="10" as="geometry" />
        </mxCell>
        <mxCell id="-j13bRqeIP-MtHbCBuNI-9" value="" style="rounded=0;whiteSpace=wrap;html=1;fillColor=#f5f5f5;fontColor=#333333;strokeColor=#666666;" vertex="1" parent="-j13bRqeIP-MtHbCBuNI-1">
          <mxGeometry x="490" y="90" width="50" height="10" as="geometry" />
        </mxCell>
        <mxCell id="-j13bRqeIP-MtHbCBuNI-10" value="" style="rounded=0;whiteSpace=wrap;html=1;fillColor=#f5f5f5;fontColor=#333333;strokeColor=#666666;" vertex="1" parent="-j13bRqeIP-MtHbCBuNI-1">
          <mxGeometry x="490" y="110" width="50" height="10" as="geometry" />
        </mxCell>
        <mxCell id="-j13bRqeIP-MtHbCBuNI-11" value="&lt;b&gt;Logo&lt;/b&gt;" style="text;html=1;strokeColor=none;fillColor=none;align=center;verticalAlign=middle;whiteSpace=wrap;rounded=0;" vertex="1" parent="-j13bRqeIP-MtHbCBuNI-1">
          <mxGeometry x="300" y="60" width="60" height="30" as="geometry" />
        </mxCell>
        <mxCell id="-j13bRqeIP-MtHbCBuNI-12" value="" style="rounded=1;whiteSpace=wrap;html=1;" vertex="1" parent="-j13bRqeIP-MtHbCBuNI-1">
          <mxGeometry x="320" y="360" width="220" height="90" as="geometry" />
        </mxCell>
        <mxCell id="-j13bRqeIP-MtHbCBuNI-13" value="&lt;b&gt;Gerald&lt;/b&gt;" style="text;html=1;strokeColor=none;fillColor=none;align=left;verticalAlign=middle;whiteSpace=wrap;rounded=0;" vertex="1" parent="-j13bRqeIP-MtHbCBuNI-1">
          <mxGeometry x="330" y="360" width="40" height="30" as="geometry" />
        </mxCell>
        <mxCell id="-j13bRqeIP-MtHbCBuNI-14" value="" style="triangle;whiteSpace=wrap;html=1;" vertex="1" parent="-j13bRqeIP-MtHbCBuNI-1">
          <mxGeometry x="490" y="365" width="20" height="25" as="geometry" />
        </mxCell>
        <mxCell id="-j13bRqeIP-MtHbCBuNI-15" value="" style="ellipse;whiteSpace=wrap;html=1;aspect=fixed;" vertex="1" parent="-j13bRqeIP-MtHbCBuNI-1">
          <mxGeometry x="500" y="362.5" width="30" height="30" as="geometry" />
        </mxCell>
        <mxCell id="-j13bRqeIP-MtHbCBuNI-16" value="Status: Hungry" style="text;html=1;strokeColor=none;fillColor=none;align=left;verticalAlign=middle;whiteSpace=wrap;rounded=0;" vertex="1" parent="-j13bRqeIP-MtHbCBuNI-1">
          <mxGeometry x="330" y="380" width="85" height="30" as="geometry" />
        </mxCell>
        <mxCell id="-j13bRqeIP-MtHbCBuNI-17" value="&lt;b&gt;Feed&lt;/b&gt;" style="rounded=1;whiteSpace=wrap;html=1;" vertex="1" parent="-j13bRqeIP-MtHbCBuNI-1">
          <mxGeometry x="370" y="420" width="120" height="20" as="geometry" />
        </mxCell>
        <mxCell id="-j13bRqeIP-MtHbCBuNI-18" value="" style="rounded=1;whiteSpace=wrap;html=1;" vertex="1" parent="-j13bRqeIP-MtHbCBuNI-1">
          <mxGeometry x="320" y="480" width="220" height="90" as="geometry" />
        </mxCell>
        <mxCell id="-j13bRqeIP-MtHbCBuNI-19" value="&lt;b&gt;Fido&lt;/b&gt;" style="text;html=1;strokeColor=none;fillColor=none;align=left;verticalAlign=middle;whiteSpace=wrap;rounded=0;" vertex="1" parent="-j13bRqeIP-MtHbCBuNI-1">
          <mxGeometry x="330" y="480" width="40" height="30" as="geometry" />
        </mxCell>
        <mxCell id="-j13bRqeIP-MtHbCBuNI-20" value="" style="triangle;whiteSpace=wrap;html=1;" vertex="1" parent="-j13bRqeIP-MtHbCBuNI-1">
          <mxGeometry x="490" y="485" width="20" height="25" as="geometry" />
        </mxCell>
        <mxCell id="-j13bRqeIP-MtHbCBuNI-21" value="Status: Happy" style="text;html=1;strokeColor=none;fillColor=none;align=left;verticalAlign=middle;whiteSpace=wrap;rounded=0;" vertex="1" parent="-j13bRqeIP-MtHbCBuNI-1">
          <mxGeometry x="330" y="500" width="85" height="30" as="geometry" />
        </mxCell>
        <mxCell id="-j13bRqeIP-MtHbCBuNI-22" value="&lt;b&gt;Feed&lt;/b&gt;" style="rounded=1;whiteSpace=wrap;html=1;" vertex="1" parent="-j13bRqeIP-MtHbCBuNI-1">
          <mxGeometry x="370" y="540" width="120" height="20" as="geometry" />
        </mxCell>
        <mxCell id="-j13bRqeIP-MtHbCBuNI-23" value="" style="ellipse;whiteSpace=wrap;html=1;aspect=fixed;" vertex="1" parent="-j13bRqeIP-MtHbCBuNI-1">
          <mxGeometry x="500" y="482.5" width="30" height="30" as="geometry" />
        </mxCell>
        <mxCell id="-j13bRqeIP-MtHbCBuNI-24" value="" style="triangle;whiteSpace=wrap;html=1;rotation=-180;" vertex="1" parent="-j13bRqeIP-MtHbCBuNI-1">
          <mxGeometry x="490" y="255" width="20" height="25" as="geometry" />
        </mxCell>
        <mxCell id="-j13bRqeIP-MtHbCBuNI-25" value="" style="ellipse;whiteSpace=wrap;html=1;aspect=fixed;" vertex="1" parent="-j13bRqeIP-MtHbCBuNI-1">
          <mxGeometry x="470" y="255" width="30" height="30" as="geometry" />
        </mxCell>
        <mxCell id="-j13bRqeIP-MtHbCBuNI-26" value="&lt;b&gt;Jaden&#39;s Tank&lt;/b&gt;" style="text;html=1;strokeColor=none;fillColor=none;align=left;verticalAlign=middle;whiteSpace=wrap;rounded=0;" vertex="1" parent="-j13bRqeIP-MtHbCBuNI-1">
          <mxGeometry x="307.5" y="160" width="95" height="30" as="geometry" />
        </mxCell>
        <mxCell id="-j13bRqeIP-MtHbCBuNI-27" value="" style="shape=image;verticalLabelPosition=bottom;labelBackgroundColor=default;verticalAlign=top;aspect=fixed;imageAspect=0;image=data:image/png,iVBORw0KGgoAAAANSUhEUgAAAHgAAAByCAYAAACY/xW0AAAMP2lDQ1BJQ0MgUHJvZmlsZQAASImVVwdYU8kWnluSkEBoAQSkhN4EkRpASggt9I5gIyQBQokxEFTsyKKCa0FFBGzoqoiCFRA7YmdR7H2xoKKsiwW78iYFdN1XvjffN3f++8+Z/5w5M7cMAGrHOSJRDqoOQK4wXxwb7E8fl5xCJz0FFKAOdAAJEDncPBEzOjocwDLU/r28uw4QaXvFXqr1z/7/WjR4/DwuAEg0xGm8PG4uxPsBwGu4InE+AEQpbzYtXyTFsAItMQwQ4kVSnCHHNVKcJse7ZTbxsSyI2wFQUuFwxBkAqF6CPL2AmwE1VPshdhTyBEIA1OgQ++TmTuFBnAqxNbQRQSzVZ6T9oJPxN820YU0OJ2MYy+ciK0oBgjxRDmfG/5mO/11ycyRDPixhVckUh8RK5wzzdjN7SpgUq0DcJ0yLjIJYE+IPAp7MHmKUkikJSZDbowbcPBbMGVxngDryOAFhEBtAHCTMiQxX8GnpgiA2xHCHoNMF+ex4iHUhXsTPC4xT2GwUT4lV+EKb0sUspoI/yxHL/Ep93ZdkJzAV+q8z+WyFPqZamBmfBDEFYvMCQWIkxKoQO+Rlx4UpbMYWZrIih2zEklhp/OYQx/KFwf5yfawgXRwUq7Avzc0bmi+2MVPAjlTgvfmZ8SHy/GDtXI4sfjgX7BJfyEwY0uHnjQsfmguPHxAonzv2jC9MiFPofBDl+8fKx+IUUU60wh435ecES3lTiF3yCuIUY/HEfLgh5fp4uig/Ol4eJ16YxQmNlseDLwfhgAUCAB1IYE0DU0AWEHT2NffBO3lPEOAAMcgAfGCvYIZGJMl6hPAaBwrBnxDxQd7wOH9ZLx8UQP7rMCu/2oN0WW+BbEQ2eAJxLggDOfBeIhslHPaWCB5DRvAP7xxYuTDeHFil/f+eH2K/M0zIhCsYyZBHutqQJTGQGEAMIQYRbXB93Af3wsPh1Q9WJ5yBewzN47s94Qmhi/CQcI3QTbg1WVAk/inKCNAN9YMUuUj7MRe4JdR0xf1xb6gOlXEdXB/Y4y7QDxP3hZ5dIctSxC3NCv0n7b/N4IfVUNiRHckoeQTZj2z980hVW1XXYRVprn/MjzzWtOF8s4Z7fvbP+iH7PNiG/WyJLcL2YWewE9g57DDWDOjYMawF68COSPHw7nos211D3mJl8WRDHcE//A2trDSTeY71jr2OX+R9+fzp0nc0YE0RzRALMjLz6Uz4ReDT2UKuwyi6k6OTMwDS74v89fUmRvbdQHQ6vnML/gDA+9jg4OCh71zoMQD2uMPH/+B3zpoBPx3KAJw9yJWIC+QcLr0Q4FtCDT5pesAImAFrOB8n4Aa8gB8IBKEgCsSDZDAJRp8J97kYTAOzwHxQAsrAcrAaVIENYDPYDnaBvaAZHAYnwGlwAVwC18AduHt6wAvQD96BzwiCkBAqQkP0EGPEArFDnBAG4oMEIuFILJKMpCIZiBCRILOQBUgZUo5UIZuQOmQPchA5gZxDupBbyAOkF3mNfEIxVAXVQg1RS3Q0ykCZaBgaj05EM9CpaCFajC5FK9FadCfahJ5AL6DX0G70BTqAAUwZ08FMMHuMgbGwKCwFS8fE2BysFKvAarEGrBWu8xWsG+vDPuJEnIbTcXu4g0PwBJyLT8Xn4EvwKnw73oS341fwB3g//o1AJRgQ7AieBDZhHCGDMI1QQqggbCUcIJyCz1IP4R2RSNQhWhHd4bOYTMwiziQuIa4jNhKPE7uIj4gDJBJJj2RH8iZFkTikfFIJaS1pJ+kY6TKph/RBSVnJWMlJKUgpRUmoVKRUobRD6ajSZaWnSp/J6mQLsic5iswjzyAvI28ht5IvknvInykaFCuKNyWekkWZT6mkNFBOUe5S3igrK5sqeyjHKAuU5ylXKu9WPqv8QPmjiqaKrQpLZYKKRGWpyjaV4yq3VN5QqVRLqh81hZpPXUqto56k3qd+UKWpOqiyVXmqc1WrVZtUL6u+VCOrWagx1SapFapVqO1Tu6jWp05Wt1RnqXPU56hXqx9Uv6E+oEHTGKMRpZGrsURjh8Y5jWeaJE1LzUBNnmax5mbNk5qPaBjNjMaicWkLaFtop2g9WkQtKy22VpZWmdYurU6tfm1NbRftRO3p2tXaR7S7dTAdSx22To7OMp29Otd1Po0wHMEcwR+xeETDiMsj3uuO1PXT5euW6jbqXtP9pEfXC9TL1luh16x3Tx/Xt9WP0Z+mv17/lH7fSK2RXiO5I0tH7h152wA1sDWINZhpsNmgw2DA0Mgw2FBkuNbwpGGfkY6Rn1GW0Sqjo0a9xjRjH2OB8SrjY8bP6dp0Jj2HXklvp/ebGJiEmEhMNpl0mnw2tTJNMC0ybTS9Z0YxY5ilm60yazPrNzc2jzCfZV5vftuCbMGwyLRYY3HG4r2llWWS5ULLZstnVrpWbKtCq3qru9ZUa1/rqda11ldtiDYMm2ybdTaXbFFbV9tM22rbi3aonZudwG6dXdcowiiPUcJRtaNu2KvYM+0L7OvtHzjoOIQ7FDk0O7wcbT46ZfSK0WdGf3N0dcxx3OJ4Z4zmmNAxRWNax7x2snXiOlU7XXWmOgc5z3VucX7lYufCd1nvctOV5hrhutC1zfWrm7ub2K3Brdfd3D3Vvcb9BkOLEc1YwjjrQfDw95jrcdjjo6ebZ77nXs+/vOy9sr12eD0bazWWP3bL2Efept4c703e3T50n1SfjT7dvia+HN9a34d+Zn48v61+T5k2zCzmTuZLf0d/sf8B//csT9Zs1vEALCA4oDSgM1AzMCGwKvB+kGlQRlB9UH+wa/DM4OMhhJCwkBUhN9iGbC67jt0f6h46O7Q9TCUsLqwq7GG4bbg4vDUCjQiNWBlxN9IiUhjZHAWi2FEro+5FW0VPjT4UQ4yJjqmOeRI7JnZW7Jk4WtzkuB1x7+L945fF30mwTpAktCWqJU5IrEt8nxSQVJ7UPW70uNnjLiTrJwuSW1JIKYkpW1MGxgeOXz2+Z4LrhJIJ1ydaTZw+8dwk/Uk5k45MVpvMmbwvlZCalLoj9QsnilPLGUhjp9Wk9XNZ3DXcFzw/3ipeL9+bX85/mu6dXp7+LMM7Y2VGb6ZvZkVmn4AlqBK8ygrJ2pD1Pjsqe1v2YE5STmOuUm5q7kGhpjBb2D7FaMr0KV0iO1GJqHuq59TVU/vFYeKteUjexLyWfC34I98hsZb8InlQ4FNQXfBhWuK0fdM1pgund8ywnbF4xtPCoMLfZuIzuTPbZpnMmj/rwWzm7E1zkDlpc9rmms0tntszL3je9vmU+dnzfy9yLCoversgaUFrsWHxvOJHvwT/Ul+iWiIuubHQa+GGRfgiwaLOxc6L1y7+VsorPV/mWFZR9mUJd8n5X8f8Wvnr4NL0pZ3L3JatX05cLlx+fYXviu3lGuWF5Y9WRqxsWkVfVbrq7erJq89VuFRsWENZI1nTXRle2bLWfO3ytV+qMquuVftXN9YY1Cyueb+Ot+7yer/1DRsMN5Rt+LRRsPHmpuBNTbWWtRWbiZsLNj/ZkrjlzG+M3+q26m8t2/p1m3Bb9/bY7e117nV1Owx2LKtH6yX1vTsn7Ly0K2BXS4N9w6ZGncay3WC3ZPfzPal7ru8N29u2j7GvYb/F/poDtAOlTUjTjKb+5szm7pbklq6DoQfbWr1aDxxyOLTtsMnh6iPaR5YdpRwtPjp4rPDYwHHR8b4TGScetU1uu3Ny3Mmr7THtnafCTp09HXT65BnmmWNnvc8ePud57uB5xvnmC24XmjpcOw787vr7gU63zqaL7hdbLnlcau0a23X0su/lE1cCrpy+yr564Vrkta7rCddv3phwo/sm7+azWzm3Xt0uuP35zry7hLul99TvVdw3uF/7h80fjd1u3UceBDzoeBj38M4j7qMXj/Mef+kpfkJ9UvHU+GndM6dnh3uDei89H/+854Xoxee+kj81/qx5af1y/19+f3X0j+vveSV+Nfh6yRu9N9veurxtG4geuP8u993n96Uf9D5s/8j4eOZT0qenn6d9IX2p/GrztfVb2Le7g7mDgyKOmCP7FcBgRdPTAXi9DQBqMgA0eD6jjJef/2QFkZ9ZZQj8Jyw/I8qKGwAN8P89pg/+3dwAYPcWePyC+moTAIimAhDvAVBn5+E6dFaTnSulhQjPARujvqblpoF/U+Rnzh/i/rkFUlUX8HP7Ly0YfEb83gjCAAAAlmVYSWZNTQAqAAAACAAFARIAAwAAAAEAAQAAARoABQAAAAEAAABKARsABQAAAAEAAABSASgAAwAAAAEAAgAAh2kABAAAAAEAAABaAAAAAAAAAJAAAAABAAAAkAAAAAEAA5KGAAcAAAASAAAAhKACAAQAAAABAAAAeKADAAQAAAABAAAAcgAAAABBU0NJSQAAAFNjcmVlbnNob3R+QTpKAAAACXBIWXMAABYlAAAWJQFJUiTwAAAC22lUWHRYTUw6Y29tLmFkb2JlLnhtcAAAAAAAPHg6eG1wbWV0YSB4bWxuczp4PSJhZG9iZTpuczptZXRhLyIgeDp4bXB0az0iWE1QIENvcmUgNi4wLjAiPgogICA8cmRmOlJERiB4bWxuczpyZGY9Imh0dHA6Ly93d3cudzMub3JnLzE5OTkvMDIvMjItcmRmLXN5bnRheC1ucyMiPgogICAgICA8cmRmOkRlc2NyaXB0aW9uIHJkZjphYm91dD0iIgogICAgICAgICAgICB4bWxuczpleGlmPSJodHRwOi8vbnMuYWRvYmUuY29tL2V4aWYvMS4wLyIKICAgICAgICAgICAgeG1sbnM6dGlmZj0iaHR0cDovL25zLmFkb2JlLmNvbS90aWZmLzEuMC8iPgogICAgICAgICA8ZXhpZjpVc2VyQ29tbWVudD5TY3JlZW5zaG90PC9leGlmOlVzZXJDb21tZW50PgogICAgICAgICA8ZXhpZjpQaXhlbFhEaW1lbnNpb24+MTIwPC9leGlmOlBpeGVsWERpbWVuc2lvbj4KICAgICAgICAgPGV4aWY6UGl4ZWxZRGltZW5zaW9uPjExNDwvZXhpZjpQaXhlbFlEaW1lbnNpb24+CiAgICAgICAgIDx0aWZmOlJlc29sdXRpb25Vbml0PjI8L3RpZmY6UmVzb2x1dGlvblVuaXQ+CiAgICAgICAgIDx0aWZmOlhSZXNvbHV0aW9uPjE0NC8xPC90aWZmOlhSZXNvbHV0aW9uPgogICAgICAgICA8dGlmZjpZUmVzb2x1dGlvbj4xNDQvMTwvdGlmZjpZUmVzb2x1dGlvbj4KICAgICAgICAgPHRpZmY6T3JpZW50YXRpb24+MTwvdGlmZjpPcmllbnRhdGlvbj4KICAgICAgPC9yZGY6RGVzY3JpcHRpb24+CiAgIDwvcmRmOlJERj4KPC94OnhtcG1ldGE+CtDzbp8AACexSURBVHgB7Z0HlGRXeef/lWPn3D09PZqcmVEYoYgACVYCIWFgSWbX7MKa413AGzDGizHBx2fXASMMLAiMgbOYIINBIoOQNIpo8owm9KSe6emcK+eq/X2vujWSAB+fs/R0T9NPel2vql699+793y/9v+/ecVXYtLwt2R5wL9mWLTfM6YFlgJf4QFgGeBngJd4DS7x5yxK8DPAS74El3rxlCV4GeIn3wBJv3rIELwO8xHtgiTdvWYKXAV7iPbDEm7cswcsAL/EeWOLNW5bgZYCXeA8s8eYtS/AywEu8B5Z485YleBngJd4DS7x5yxK8DPAS74El3rxlCV4GeIn3wBJv3rIELwO8xHtgiTdvWYKXAV7iPbDEm7cswUscYO8Sb58mkyWdGZpRKj6tmf6jOnV4j0YmEppIFnTo8DGt9I9psigVvSHVh4Na3dGl7rVbdO3L7tDOHdvUVBe8rLvItRSnj54cjutQf0Z7++Ma7jurxnSvSuce00j/GbWtXK9ItEFjgwMa7j+nSMCnqekZ5UsVpfMFDY9PKJHNyxeqUSyV1rv+4qt62U1Xa+eaDq3tuPzAXjIAZ/IlPXxsXD8/OqXpnEfZkfPK9J/U6DMPaEOrX7GhEyp7vGpbtVaJdFbBoF/xeFJZFVTOFjU5NKaZWEKpYk6JTEalikdueeXO5TVdbNbdf/J32nn1zbpmlV+3bKlTyH95WLfLHuBMvqgfHRrXjw4Mq1DyqFzI6NyjX9HZ3X+vpuag6rx1yriCitY3ylfKqaUuqrHJmHy+sCYmJlTf0aAKg6OQLig2HVe2WFYsnVRdfb0CXp9y42c1mvHKXwzqtv/+aYW7XySFpds3N+q2HW0A7VnUKvyyBvjBZyZ0/764csmM3DVuDR3/ufq+/knlZsalujp1+/wqlcdV39ohbzCofDGvwYlJBaJ1qhRyqvGX5fM0qJBNyc/350cTyrkicrnL2r62QcoMqffMlCL+sBIT42rYdLs2veOjSLaP62ZVi82+Y0eHXrq1adGCfFk6WYNTWd331IhODCYV8lRUiESUP31Yez/5IQUDM/I3t8kNaJ66mNb0rFV7Y0SZREIN7euULazVqrZmVVJxhQMB9c2kNTw6qOGxcdV4U9rQ2aZyqaSwq6BEqazu1nZNA27SG5G7MqnaSlAJBo4XbZBDM3zr6TEduZDS665tU1djYNEBfdlJ8KMnpvW1J4al2ZVFSuWiKuO9+sE9f6gGX0bFcKM8dP7m1jrd+aq7tLozqFIureb2ThynqBobauQv51Usu5QtoXrdJWWwuelUStOjoxodGNCJ42eQ9LgGxmIaSibkcbux3zVKDp3Tyz/3NM6YR153RGVXSD5X6llQ33hdm27YUP/s+8VwcFlJ8LeRlp8/M4mKdMn+t61SKesH//DnqqSHVW5tUxtC1OSXdl29Wu3tUnNXt1q71zrnRiN+5acnVaw0KBysUxmprrjzagjW400n1dbaqVWbN+uG292avHBe/Sd6deDISe0/PazRFBIdYlAkXWqsDWLXwwpkxpXDllefo6JvPjmq8XhBd1/T4ny2GP5cNgB/ZfeQDg3FVPH4VS4m5A+1yFuM6cR3P6HY4EmtamlU0IXf6/Uq2t6iHS+6BnW7QvUrerCzbrl9PhXziH2oEd8YtV7Kyx/2yU1olM9lkeiSXHnCIxYdKmRyCkXqtW7nNerp2ajVJ47rwd2HNFyqUyAccFR40TUuT7Rebux6dauOuN2900rhtL31BkbXItguC4A//8iInjkXk8dblttVASyPgj6XEpMj2vPDf1ZXV6tyBDxBQKxHSq/c2MNAcKlu9Vr53C6cJlRsuSzx6nET/thnLpcq5QoaoOh8Vy4WeM85phwYENxIxWJJZcKhnpWrtGtrQQOVQRWnR+RrX6m6AHYfqa7YuS/YDpxPMmBG9O9vWniQf/npXvCwC/32Hx8f1tGhNDaPcKRSQhpd8tOpXuU1dvqAIq6kGqJBwA2rpqZGa1a3qaMDO4t0psrEsR5CJyTWdgPa4/fJ5WNc83n1Fel2jrk+96igBVxevmOvAHIFTzvg96uzpU6bWhs1fXKvMkWkPFvC6WLnur9qP3ohga8wutDdx7Mt4u2BA+Pa3xdH6iryAqyHDrewE5yIXVMaPvGEos0RwhiX2iNhaMZWBSI+RZpr1GbHJVXBtbXekFiPAcuPzW4XSwWVkNoixybtbo/POaeCBLtdHvm8fvl9Abm5oYVYtU0hdTcFles7oDBS7cdUECY7z2TP9av2w/0J/eDg1IL28KIF+BdnYnq0d4belryoZS/AuM3GGlBIXBGA0yPH1bV+NdJWVHtTQI11fiT4Cs3EMyLolSeTBkwkd/Y3Bq4dl1DFzg646GO5QcqLendjvx15NJA514u0+5Fed9ivEINmRVedOjwJJc/3yuPit0FT986Y+bWvT5yKac/Z+IKBvCgBHpnJ6bv7xpAKwKXTrTNdSLF1uguZ9CBdpUJeNZUEIVBZzS31CjX41QwInkJZPU1dSHiRmDfh/MbCHAMWtB3A7To2SDxc2wu4HqTXyzXtM87i2gwAuGnOUpAkRCDkV6SuQSva67Wps0YTh3ernE/OXtuk+F/ev3dgUqOxOWfs0mK9KAH+weEJAK1KhtdnkguofGAA2OYygMsFNRC2dNY3qLWpSRs2rFNrW4tqwmHFpiaVIAQq8VvhSNlmDpQRGCbRdh0bOA7ofFfi82KReJrY2ITaHLIKJIf91u0OEEIFFCAsUj6rhojUCeER9GCbKwwQ8wf+hd0Gk+0/PjLtPMel/rPoAH7y9Iz6xjNO51vH2GZSa4duHB9TqS63VwVCkRAA1kUjqgtHFcWr9bt9itaEFG0Iyx30KhSNVkEFLAOtjFeMtq+OHF5KgGrA5gmP8oRL9t6R8tnz7c4YaE2Ojmjw1AXFJ8aUS8fVGiwpMT2uUAX1PQvgr3t1cUPbz01k9Iszl15VL6owKYtqfPTEFKEN/Wq6EouYRzWHCYtKJfI+aY6jjcSwLgWFfa6tU0NXjXzlgOP1ll0ZTQ2kYK2a1Lm+hd/5lUL9AjPqegZvOKJKsEbZdFne8WkNJs7JHUsrA7NVU0wqzyBQTVQu0oVhby1gjinOPafHD6qUKGhwZlLxkZx8OGd1voiywRzXzipd8DKA0AgMEFP5FX+IgZPH08/Adl2Uocd7J7VjZVQBa+Al2hYVwE+emlGOEKQquXQ2m7dMuEI4Im9FwZogoUsWQqKsoEmtH682SQhVC/lfKGp8ZAShc2nzjq2qDTWrQGf7Te1mCgp4wuo7P6HB8RPqPXJEqcFhDZ7tU+/4eXnzOa2/YpPWrYT16lmhls52NfqGFU/FlDh7TmfgovvHXeSYpzQ5c0EdeNc7Jo8r0F2HN87gw6MO1deolI1BksShL2kDA9Tten738thIcUw3bySRcYm25z/BJbrpr7pNDund25dwwiH73lwc26LuoLKZrDwBi4+QlFIcsAAtUqtIqAE76FYE0qMI3xyJEv9GfepavU6BmhUamk7q4OkBPfLoQf3tZ77Odw3aGErqU3/2FjXv6tToyBU6t++QijPTShY8Sk0O6vBwv/KegHZClsQmpnXq5IiOxabUXlvW1VGkesV6lWLjOv2jexWgWqSCBHdu3mVoOiFcNBJSLpvD8SLE4jquSsFpR/WPS/sgQa5dAyN2iaR40QB8kJixjANkodBztBowFxUiDi15sJWQC4GQG1BdVFtAYoTrlUFdrwjVaWx6gqzQkGOvT4zdry9/Z7+GBqb0SqSte61f97x+g9bfeKMOnezVpu2b9dCeJ9V/clT9p0ZVi2pd3Yy010e1vmONGrZdpXff8w86tOewNjfX6g07VyiGR352gkwVz7BuVYeaem7RlDevkbN7NBMKqKe2FRImrFI6QZYqCg0De4bHNutGgG91wJrPd3ggqWuuqH0O8PN3uGgAPkajjSwwFeuyGHN2K2J7Q/4A9rGEI4VEOH5PhVqpiI6RAfIlJvTwhV49vL9XFdis67av0R23rdfv/86rVEsiYSZW0ulzD2rgZ4/oyW8c11PjZImO7tf123aqNDCqEGxIEa96muTDtbfcqSvWbNLg8KCubqjTH7zrbfrQ5/+v9lHTFQjivHFzD9rjyPmTaoluUU1kAx58o9Zu3KgMz16xZ4yGlTKNg/mgJbOwPt/mHh9K/XYBPDiVUyxTcjqviqvFrdXwxtinMqxTyB9VmtRdOBxRjoR8t3tYb37PO7DPWT2+b6+u3bodJ8elbVdv1a5rr0ObhxSnHKdrRY0at6/UdVe+SueOnVffFz6pFtRj4uxZtaPKNzatUjGTVAe/b4PmnMEEHDx3Vnfd/jLdev3LdX6yoMzph9VQ1wKrJa0kUZTM+tX4qvdosnOjRvaSoQo0KUgasoijls2lYNNQzwyGYg71PBvaWbscv5HXeKaioZk8IR4XnOdtUUhw30R21rGiE/Caq9BWu6OMVHgAJIuj5AuVCWeKckEVbneRaP/6Z1W/YZNec+NN0o3Sd77+DdX7UI65SWxfGI66kU5PUV9VkAsSZP2tN+ol08Ocf7MOPvADRde1q6GtnvxxWTV1K+SpBHT48HFKLGv04pfcLGHn33DrdfrgwZ/q5jVcL4BpKKTlKvs1M/mMim2Nmin41FHToEw2TaxeUATKNJ0pUhJk0l5R0bQSW3W8zkLMy/lxbPclAPj5umOeR9Ovu3z/hDklRvqbhkatmSrkvansAB6qfRatqUWCitjggEJhpPr0L+Q+d0orYK1O7TkhVyis2g0rFWxqUYkLlSkEKI1R1VHC+apE5fM3qoJXvXHnFh0f6tOa7RvVvaJTja5a1dZ0KZBFrWLPA2EPcXWGNGMD95tW55pW3XDNzSrBfk7ncfiIfcuFesWTOdVCftSS1Aji5dfynGGFIEPw9MthBik0JkA6BI2RNLPtmXs/MHVpmK0Fl+BkrqQ4RAMFj85WlV47nJVjV4I4dwVSk4BY8Chn1GKZdFxkvVa+9E613fkOtU6e08BPv6sbdl6lybSUAwQDyxXywCVDSIGOtxSCI/Hqys07NXzkuJ78/g+1cm2PkmW30jBZNYGK+i+c0OmnevXRe7+kPBrDRSTrC9Xq9pdfpf/1yS8rGu7W9VetJlSj7PbUAY0VXFp3w+0YAnMOC5iFqv9Qg+RWKgAIv23s9vO3qhTH0UQpaNZIYH5lbMEBHoshvbS5Smxc7Iq5995KCMrR1CJOjPyUu+XoNLemW1ZonWdCmd6f6dS9H1HSE1XXna9T7eSo3NNjeLTw0rXkeksRZImOh04sFLCJsF0rt26AxEgQs6bUYDXRqUE86iPUbWX1wY/8GeAgf+SePUaMRIpqpdTnFRu2KOXOqaGxoGx2XKs9dYrc8GolZrWOPblpGtvt97Y5r7O+xC81kDaMJfK6IjC/tdYLDvA09sptCM9uTgfNveEV1hjVigQWUH3YVcFWeSl8G2tZqTUuylzP4Alv2KXu17yK2irwy/hVoPM9AFmm8yg6I1NEHQ8db1rB/rrJHxvInlRWyTEcrx/v0amDZ/WW//Z++akGqVQyysUr8iUrSk2PagJT0B4t6tR4n3ra1hOuFXT2yBkkuUBKEbX8S9vF9jgkjfP9CyUVe565GC380iV+Qx8sOMBJ4krvrCMy1yaTXgPaNoPESyzsxfnyQHSU8Eo9ebdSvloNRTu0rSWkyrrtJPghPaikzETJ4k3AXgdhr3KATCYIxNitRBZxw7NN4XiJkh03pTl9ex7Vnqf36eY3v0nuSKMe/ccv6Cf33a8MYc7Nm7do87bNOnxiv5J48DPTCV04NaA13Z2q15TG0yPyR66oSqo966zkOg/+7J85sO0Zng9yAjU939uCA5zKAZ71wa8A2RpfgeBwF4h/PVRzcE4ZaXQXcVpKRQ0GW9Sdi6s+MI1dplYKyS7nSBFGUMeEVy7jlhkoRbhjN6GVi6L2ChkhNxIao1T23ENP6vGHfqJAY5c2EQPnUzndcNebtHn7tTpx5pBip0/oOEUFiXReGeq5aiMd2rNnrxRbyfjIyh8IY17MdFQ3ezWQ5wbn7McXX+bUtaNHKLvG/5jv7flDar7v9iuuX8DBsSSRVW1UKzegnXk/tzN1iCyRAcyPDWzztn1lRQEvDTmx37+aZAEU4lQMXhMPGOYJjl8B1SmJA2NpQrO/ZQZEPjWjUnJKM2dP6dzep3X8yB7se1G3ve2d8NyNqqll8EBn+ltatHEDjBasVgIPOE0BQR2JCyvRwTdXegq73dCj2o4Ontme/eJerTypvq8eY8sZXM89p9pWF/OhfgtUtDXR44jwRfTnJMIkgbQrIJiAE/ogAX5SfrjVOFsuVK6fIvRmPUzh3IugKsOxZ5SZ7Fdb11pNkHzo8FEaa8kLP/Eo+eNMhhwxCYSzh/frzDMHFacqs2fzVVpFcmGs94TSCeLn6ZwqxbRCeOCdneuJqz3aP/MED2CkaZzB5Udii/Kvu1GpEjMi3IREcw88K5kXW2JHczI0p6pnv8UOVT2C55/9m3634CoaHeqoOWvYnOc810jrNy+ObylEHtcg5YNgIas8AJexpwa224uUepu0F6fq3Dd+rO3FAUXe2qkmYtQssXCQgZHD+7KcshEeydS0psaHFZuc0BgAJU9N6J/e/R/VhH3vumYbCYcJjTPgOtu61ff4U/JEagi3LEkwrR5YMU8BTePHvvdsVdGHE+dYgReAN9cA5/WF3118P0fpPO/03/CbBQeYwgrHhpntmnNSTA2b9Npe4QS/813OeV+mDspHGq7iQzKJNbOk+lojTZxT0KpXvF4XfvJXupYZC1hanKwU8TLzkBgYKEni1QCkRoOamLpy+JhHazbcrB9/9X5d/0fv0w133yUf01biZKV2Er8GAbbtwEGdOPQjjX3/qA4x/XTVipVUjCTl4xnCrWuRZ2Y2kHCoMJCMWjUSw6o3UR6OdFqtl2keewAr9LP20bJq2xwgfwtUtN+S+QDwXICrQFcBt2K7ue/mQHeAdzqtAkdc6yTX8zhSrdjEl73xd5WIjyhM4bobwsGdzjhq3hsMq4hBtzTe6s1bVdO5Smt37NLdb3+HEsmUYtkE/CHOVyIOAGgN+O9kIqbxZ6aUzGV004vWoZiTaoEudXffJF8bqUmcLx+0aakAsIDMiMN3sCpMctgMKNNAlImYkuK4+p+xdHPbnPKeez8frwsuwfQPSX4cIWv4s42/2AnO5/SQgTwHcLUjqp8VCxbykBOmEsNd8alQQY36YuRk+TyHPS0DGGSJj2x7sUwlJpPO3GSd2rrb5I2GqOQIyE+NV4DPJs6S/I/H1UwmKU71hiebVBPAzFhxAfY+H4H2DI6o9pY3kQ4MKIonaGW3bhgyMy/2jGDM/Xg2JNoqN73ocGfAOrH+bLtmwyX/C3yPJQlwkEYWEOEqvheBvdjYWTXmfPWCEITP8KkhG+CHUauFbFmTWY9WNjRp8MwFNVNGi7amKoRQibiXeEs+pDhADO0P1ioD0RGwcllCqgqT0Oo7m1Su9as4NaUSjJiPsttV7atw3tPqj8WYzYBD2L5Lrp4t2PW03GWqOGDWrLTWB6lixXsFcssuEiSmmg1sp17fEWVAN1Fmq7YI3pt7z/e24BJcy0x7K9OxzRnpv9TiF4Bq3fSspNPhdK6LapAsVRQ+F9JYy9RR5u7WkNUZmxhWiDKfEGreCutK3jTSSmLfW4MapTAvjINHZSSzk5TEnnsIswjLlXflmFyW1+hwvzKVmMqUf1EMJmXPKbPug+rr7aOgz6aujCsaCToAO2lNJNaqMecK8CwzZufZFJkSoFeQbJsDVUJjGfINqPL53hYc4Ag6egI1Z9ucfXquKraqiOdKd3UQVEG28woFqjzoWCttxUiyvgbXIf5tbW3V5NSoYsOTFNplneoK5rnAhHmROdJ5SKw/CGhp4nB+Dz/GwGCgoT4TLNswmaQIDw99iln/GaajlhM4e9tfo+DqrYoXLsCmechRM1W0RA44RXWmAyCWFxtsk90sE2ZefzbDwEKyq7tNeuNcntmevSvSRatrnLbP15+FB5haK5tQZttFwbSOrjbZHBFTbFXl9uzHz37mxWnyIX0FJMcS7HmyQ1bzbMsyrNm0Wcee/oUDtBXPhzxNTsmPB3ArVIrkSdz7cPJ8MFJ50oV5fh+irqu5ewWqASJiRbtyx92KlYbkwREL73olanVC3vBGpcdGFW3BnpNuzFGEb2W85kHbHCojOKxW2tpl85DL5iha4+jtihXpeVHhfNZWV516Wm3p/PxdcIDr4IqdiWW0z6TT6pfnRrwdB5ktOCvCsz0wi7x1mO3wHrGpaaUhMkosphJhWYWcP6cgqrtC9mjDjh06f2Kf4lPjlMNGFEJ6WJEBrqSkPAxVIRqQx0KvAHORKHctZYmZoUPrW1uUnPGpdc1qKj6Y3bChQz7mQSkbItkxLV+YaTGJkDKe9Kz0Vp+nDNtVMKcRzeS1uVBOLTZaghDKBp7VdlesYB4Jb6r/LQDYjxqcoU4qwSIols7L4fkawHN21pnNYDw1ewUpNGG37wJ0lg8nhVpG0nxxKirJNnmCrJxD6W2QgVHLtBNsIDN9yfvu0PiFPo0O9auYxrvu6sRWk+9l7lE4FdFM0s9AaoBfJlNVzinPIiw56qXjE2mlxk7JFZvU1PqXqq3A8g7FUVR4naKlRiXKE1CgNvUFLcTzWfWJaXl7PqsSNcn2B6xGGtNg0cJsu+z7IOdbiDjf24JLsDWwgVLX4ZGZZ50sP3bSOs06Io1EcVDlkxFXk3L73GYp2PzdAh5u2GqsYnGVXD6mlqCegb2A45ZnsPjMNodCal+7RnWU2Jw6dlTHDh9WJ2tv1NfWKw0AESZyZ2CwCgCcxHtOM2thYmgEGxvkdZy0ngdueotGEkmGk5uaKpZaglgpBt0KYxLQ59zT1HA1Zudpnf8cjUQWyjYvkmsDt3rMck5MWL8U26IAeHVXg06dG3QkwJgeI+YtqDCPNEIIRN+xmycKqUAnmaQgOoBIyo+ZC25ADzPN0wAeON+nbNSvaG2Uz6AZcbwCtUgRNjeLIli/80qNnzunE3v3wkszOJB8P5RjIgGvjD+QYEW8xMwUBQE4ZtCSsUqdHjw5pLffNU5ZLbMqoE7RHdj6NKU6Qd5XnSizqQao7XObmRhrjON4ETYx+8n5ysdxWysO2iXYFgXArY1RJldHHc7YHBTL2zqOF501juq2UhuT2hIetTOTwPCl82zHvaHchowx9jfKDMCHvrdHb7v2NsVj004BHLQxTJPRlBXqulpYeQf2q30Fpa5bdGTfHu194JsU0Ie4n4sKC2ZJBAMMIgZFuJYB5tLxkYQeOz2o+vu+pv/wzv8El2XSWGDWTFguKiOLzIGyZ7PNsJ3D1wEbNZxjSkuFgWI13zZBw4ZuhGUgWi6B/bW7mWwsiq2NBckIaKmqRA0Dm3NMDjhM7rZGadUxZaXRk1ezP6/2cJkJ3xVnb6vxKkhh3aq2Bk2NDujez9wD+swdqgEAFz2K+vaGggrXNxMG4XhRmyUqQwrMithx+916y7t+n/g3SjwdYHZiK8swkeOF1SpxLo41167ayR99+6tKjfaxJFOYCefw4oqpvo4gh8RHhDRmGBLFdju2PYqnXEsWK2AjrJJE4RijhgNX4Vkv4ZKIi0KCbYR1QPSfYwZf1mqJHU9llpinYM6F1+kiyc8XzgRwRx3ibZm6LhrRb1mi+KSefupRrSOPa4uq2FINJuFxcrEB1LQboiOA+2wxaJyQxw/zlGHOrrtlja586e06uPshpbCxxiGbGOYoXg96g+YEY1ulgiure++9R5/4m8+SYQoohr2ugShhaDyrTUyS5/Y5sqPLuC6K61yoZZNqY7g29LRdMqFaNBJsIURLZwseKg4Mdi3JdM4ktF8ecHPYXsqgAL9M/TETu/kuBxmRBTRxXMRe5kgI7H7ySYrOo5piDUo3oU4QIiOENGIFSQow149qjwLlOtEgFCFZoyJkRgn31lRxgcSBFefZoMhBnZax7SPT0zrBcodubLQ77Najjz+p/3PPJ7C9FCHkAJOBVOa+JWqibbdjqxix3Y6d73IzMGyEbWSdrJKkvZN1vKya4RJti0aCrb1rKWMdHxjCm8ViMtrN0cqTQCgzw9CN/TXCC7IPYoPHxukqIw1e9jA101/85jcpccUjJvR4au9+da1cy2IpnIv0erHRJcgQNyofbtIp4amgGWxgTBM6HXv6KdURt8ZjWZiwkpJQnllKYuMAb4uleSjX8eON57DkX/zaV9W8slO33Hg7+WDiW8TbNEnV5pJVmrXH1h6T4mKRqTc8lwc/whrQ0tlpX12ybdGtdDfZf0QTJ/crnaM/kMI8B24md2cotIOioNNs2QVUtkkRnvNZymceeewxHTna60z4tjUoh6inevg7X1aNO0NxQDPTTROoZ7SAqQE8a8aOylR3ZKeGdK7vGQ0d6VV+Mq5pVHQBINIMihjZpxMDgzo0nCBGz1DDzKq0yLgXac6QaPDxHLe9/Fb9m9tfrauuukoZ4uuAk460QVjhHJgvVhuouLHHjDJLQDSu2Kz27pWXDFy70aID2B6qb993lZoZwjFBtWJjywCaAxQP0lmGKw6Q4D9+eky7f3EEaT2E+iWRX8fMBaQnlWSxtNSk3vbaW/W7r7sDe1zCcaKUlmWCTcqMazaPuYBKNYJkaqhXg8dOM3Ec3hrgJphvXIH+HJhMMCt/Uvv6iY9R2baetNWV2HSyANKcIr41dqqAVHoZFB/7yEd01ZU71FBfi8Ta7AZMCV5aiXMiNSW1NDSrtWuzNe+Sbp4Ps13SO/4rbhYgWT9wfDcAm9NiMwQnSCYQ6qSpniQR/8TTR/TxL96vY8MlWYhVhMC3NSuLlKF6GQQGQ2/vKW3ZtkM9HY2YaWw2MXXQisyJh93M6LewxVYUyMNSVXg1Kc0Algd1OsPqtQNMFR2Fyoy0dhMr12iEhcLN9/NBgaaR1lrMghX0FYl9LFP04M9/qu9851uKEUc3NdWrEaBbW5uZ6kq4lplWGyU+rl9ZQ/2v6JD/j1MWpQRbe8bP7NOFww84CXXzfjOUzj6yr18P7D6qmQy+Iaq4g1VkC8xVKnNcS8Lf1tnIoYZ90J9lEv4dLQ16+9036cabrsfLjgOw1XUV+Sn5JECP2wLgAyc1PjihC9j+CMBcsfoKPfXkAf3ksQPKMW1l3a5biKcj2v3Yo5qOkTcEZWPRpmC+ZuDAPcTNRlNm0sy+QIlbRGy7+VF/+N53653XNajnJW+Qt2WrNeuSb4vGi35hy1vWXKXuLddTQRHSE70T+qPPPajvHRpjtp6HGDOB88KiohAGxhKZyjSq0orrbLW7HJmdCrPrS3DT933/Ye3ZfwQyg3MBIo0nXnSR1EeiC5TRJlmNJ01dVy0Lma7dtIHHqGjgQr+aWbHnllfcpqRJNh5776mTjsq1AngvHnljM7UekDJWkVMmY+Si6M+89kCIVWi5ShHt81cf/zt96QxrYy4QuNanixZge7iW9a/Q/Udr9NXvHYP3KMiTG4dbtsqoohq72mC4CG0AbZoKDFstxyor4gDg1EED1DghTrhphT5975c1Oj6FqoaEgH/OEgtbUsPqkwPw0A0d3dpy1TVat2WrpljOYXxsTDfe8hKNWbjFdR57bDeVmKzTcf6sBgbO69jRo6hi1uLgfhb3FjANIQoIMizeYokFL3OaunrW6E//7GP62Pvfa01ZsG1RA2y98oH3/RfdfNPLiEvrcXRwXsjejPSPEg6xdk4WdQlQQdJy5ki5kGaH9+W9gWer4Q2PTrEMYbc+8NG/1iQT3ZxsFHbcKiC9qH5/fZM6mNXfvnoD2iHoJPi3X3ml1m3dRphU0QP3f1cH9+3jSSyTZQ4VThYpzg4yUubUmSq2grs0XrNJfwMz/reRorz7ta/Vhz/8QWvCgm6LHmDrnb/46P/gXz65EkaKBMPktK5o6cBZwqP21FIxQWksttcW9XakEo82Z5OxAfjMqWN6+OFHYKF8GppM6dOf/xIYEK5QbGfJijJqvKX7Ctbw2CifzWgI16musU23vvIOfeLTn9MXv/D3mpwcq9punsPCnyK53g0bNjgeud2vAi1qKc+V3Z269sW7tGnLJt31mjt1z9/+pT36gm+XBcDWSx/50/frdW+8SxOsyxFpaUKas2R1KHyDcbLwxWyqTS0hO+8sNTxCxcXgmKnbAVTsI1q3ebvODM/oQ395r9Je7GK0TQ1MQa1ZsUYu/gEOPzMZSlRo7rrtDn3uJ3v0rZ9R9I5Kd2FnC4Boa1laKVV7R5eTiuztPekUG5CdcLJcjSzx4GGNhze/6Y360P98/4IDO/cAi9aLnnvAF77e90//rM998StOaELUQidXC93yzHiwAoAoRW795/t0lLWwXNhn29qplx4eHNJr7nyVzp48prMnTmv3z76jHfzDV/ZvJZnKpWaH8KnIv8iSVM/262GkoDNR5bjIDn1prnFPz2qWKjbVbFlAAMfu257CVkehSP/4T96n17/+tc49F8ufyw5g67izfef1qc9+XvuYeUAuQeM4QLZ2pYUwQ0OD1DTP4ExFiEUbtHLNFU5fp0zyWebh8d0PsUJPLefE9ciD39O1V1/Jb1NobmhHX43++AMf1l9/5vMOiDWU1qYZOGvXrnWoRvPQAzhTRmD4IVfMLNQQnm3ZtEnvfc9/1rr1axcLrs8+x2UJ8NzT3/ft7+qLSLOxSk8/vcepVe7uWalWZgc2NkJwkIwwgtG86xIVHmN4x81NDXjBh5loxho8hEf7d/9U23auJ45lVsNMWSvXb4UarfLLnnJI22GnArZOFwOgzAAy+tESEhmqOppwqH7v996qN/3b18890qJ7vawBtt5MUZXxjfu+rU988lOseUWxHPY0SZYoCCi2bpWFRkb22xwmA8mkz6bDGDFhnvHJIwe19xc/QUrX69V3v00/f/Qp7C4LnRI372SeMKKLozXpxNcWb1tYZK+/89q79e/e9iaHBFl0qD7ngS57gOfaYir4ge//UA8+9IjOnDnLgqP8Y1kAaeGQAywAm422MCoNuPZq35tjdezAPn38b/63/uC/vh/VbPlg6Zpd1zhhUCyOaofJsoHTQ6Lg1pfforvvutOx9XP3XsyvSwbg53bywUNH9OhjT2jPvgMa6O93gDXJdaoeQc8AN0m0YvUQKrcIZbl3zxMkNfCrcMQ3b9yB+m3SBKvovWjblbrpxut1/Yuv5V9y2fbc21wWx0sS4Of2/Cj/otmRZ55R37nzOg/Y5/vPKw49OTUdc1R5haK+AKU5yZlRhRuCevH112n7pqvV3dOtnVduozju0lVfPPe5f1PHSx7g31RHXa7XuWyIjsu1gxf6uZcBXmgE5vn+ywDPcwcv9OWXAV5oBOb5/ssAz3MHL/TllwFeaATm+f7LAM9zBy/05ZcBXmgE5vn+ywDPcwcv9OWXAV5oBOb5/ssAz3MHL/TllwFeaATm+f7LAM9zBy/05ZcBXmgE5vn+ywDPcwcv9OWXAV5oBOb5/ssAz3MHL/TllwFeaATm+f7LAM9zBy/05f8fpg4kxyYlxhQAAAAASUVORK5CYII=;" vertex="1" parent="-j13bRqeIP-MtHbCBuNI-1">
          <mxGeometry x="385" y="160" width="30" height="28.5" as="geometry" />
        </mxCell>
        <mxCell id="-j13bRqeIP-MtHbCBuNI-28" value="Change Tanks" style="rounded=1;whiteSpace=wrap;html=1;" vertex="1" parent="-j13bRqeIP-MtHbCBuNI-1">
          <mxGeometry x="450" y="163.75" width="90" height="22.5" as="geometry" />
        </mxCell>
        <mxCell id="WNeF3x2zA7s-wHP01pCP-0" value="" style="rounded=1;whiteSpace=wrap;html=1;" vertex="1" parent="-j13bRqeIP-MtHbCBuNI-1">
          <mxGeometry x="295" y="150" width="260" height="320" as="geometry" />
        </mxCell>
        <mxCell id="WNeF3x2zA7s-wHP01pCP-1" value="&lt;b&gt;&lt;font style=&quot;font-size: 16px;&quot;&gt;Add Fish&lt;/font&gt;&lt;/b&gt;" style="text;html=1;strokeColor=none;fillColor=none;align=left;verticalAlign=middle;whiteSpace=wrap;rounded=0;" vertex="1" parent="-j13bRqeIP-MtHbCBuNI-1">
          <mxGeometry x="320" y="163.75" width="90" height="30" as="geometry" />
        </mxCell>
        <mxCell id="WNeF3x2zA7s-wHP01pCP-3" value="&lt;b&gt;Select fish type&lt;/b&gt;" style="text;html=1;strokeColor=none;fillColor=none;align=left;verticalAlign=middle;whiteSpace=wrap;rounded=0;" vertex="1" parent="-j13bRqeIP-MtHbCBuNI-1">
          <mxGeometry x="320" y="202.5" width="90" height="30" as="geometry" />
        </mxCell>
        <mxCell id="WNeF3x2zA7s-wHP01pCP-4" value="" style="triangle;whiteSpace=wrap;html=1;" vertex="1" parent="-j13bRqeIP-MtHbCBuNI-1">
          <mxGeometry x="340" y="250" width="20" height="25" as="geometry" />
        </mxCell>
        <mxCell id="WNeF3x2zA7s-wHP01pCP-6" value="" style="ellipse;whiteSpace=wrap;html=1;aspect=fixed;" vertex="1" parent="-j13bRqeIP-MtHbCBuNI-1">
          <mxGeometry x="350" y="247.5" width="30" height="30" as="geometry" />
        </mxCell>
        <mxCell id="WNeF3x2zA7s-wHP01pCP-10" value="" style="triangle;whiteSpace=wrap;html=1;" vertex="1" parent="-j13bRqeIP-MtHbCBuNI-1">
          <mxGeometry x="330" y="312.5" width="20" height="30" as="geometry" />
        </mxCell>
        <mxCell id="WNeF3x2zA7s-wHP01pCP-11" value="" style="ellipse;whiteSpace=wrap;html=1;aspect=fixed;" vertex="1" parent="-j13bRqeIP-MtHbCBuNI-1">
          <mxGeometry x="345" y="307.5" width="35" height="35" as="geometry" />
        </mxCell>
        <mxCell id="WNeF3x2zA7s-wHP01pCP-16" value="" style="ellipse;whiteSpace=wrap;html=1;aspect=fixed;" vertex="1" parent="-j13bRqeIP-MtHbCBuNI-1">
          <mxGeometry x="307.5" y="255" width="15" height="15" as="geometry" />
        </mxCell>
        <mxCell id="WNeF3x2zA7s-wHP01pCP-17" value="" style="ellipse;whiteSpace=wrap;html=1;aspect=fixed;" vertex="1" parent="-j13bRqeIP-MtHbCBuNI-1">
          <mxGeometry x="305" y="320" width="15" height="15" as="geometry" />
        </mxCell>
        <mxCell id="WNeF3x2zA7s-wHP01pCP-18" value="Next" style="rounded=1;whiteSpace=wrap;html=1;" vertex="1" parent="-j13bRqeIP-MtHbCBuNI-1">
          <mxGeometry x="360" y="365" width="120" height="32.5" as="geometry" />
        </mxCell>
        <mxCell id="WNeF3x2zA7s-wHP01pCP-19" value="" style="rounded=1;whiteSpace=wrap;html=1;" vertex="1" parent="-j13bRqeIP-MtHbCBuNI-1">
          <mxGeometry x="580" y="160" width="260" height="320" as="geometry" />
        </mxCell>
        <mxCell id="WNeF3x2zA7s-wHP01pCP-20" value="&lt;b&gt;&lt;font style=&quot;font-size: 16px;&quot;&gt;Add Fish&lt;/font&gt;&lt;/b&gt;" style="text;html=1;strokeColor=none;fillColor=none;align=left;verticalAlign=middle;whiteSpace=wrap;rounded=0;" vertex="1" parent="-j13bRqeIP-MtHbCBuNI-1">
          <mxGeometry x="605" y="173.75" width="90" height="30" as="geometry" />
        </mxCell>
        <mxCell id="WNeF3x2zA7s-wHP01pCP-21" value="&lt;b&gt;You have selected a carp. Give them a name.&lt;/b&gt;" style="text;html=1;strokeColor=none;fillColor=none;align=left;verticalAlign=middle;whiteSpace=wrap;rounded=0;" vertex="1" parent="-j13bRqeIP-MtHbCBuNI-1">
          <mxGeometry x="605" y="212.5" width="145" height="30" as="geometry" />
        </mxCell>
        <mxCell id="WNeF3x2zA7s-wHP01pCP-22" value="Next" style="rounded=1;whiteSpace=wrap;html=1;" vertex="1" parent="-j13bRqeIP-MtHbCBuNI-1">
          <mxGeometry x="740" y="392.5" width="80" height="27.5" as="geometry" />
        </mxCell>
        <mxCell id="WNeF3x2zA7s-wHP01pCP-24" value="" style="triangle;whiteSpace=wrap;html=1;" vertex="1" parent="-j13bRqeIP-MtHbCBuNI-1">
          <mxGeometry x="680" y="275" width="20" height="30" as="geometry" />
        </mxCell>
        <mxCell id="WNeF3x2zA7s-wHP01pCP-25" value="" style="ellipse;whiteSpace=wrap;html=1;aspect=fixed;" vertex="1" parent="-j13bRqeIP-MtHbCBuNI-1">
          <mxGeometry x="692.5" y="272.5" width="35" height="35" as="geometry" />
        </mxCell>
        <mxCell id="WNeF3x2zA7s-wHP01pCP-26" value="" style="rounded=0;whiteSpace=wrap;html=1;" vertex="1" parent="-j13bRqeIP-MtHbCBuNI-1">
          <mxGeometry x="650" y="320" width="120" height="30" as="geometry" />
        </mxCell>
        <mxCell id="WNeF3x2zA7s-wHP01pCP-28" value="Choose a different fish &amp;lt;-" style="rounded=1;whiteSpace=wrap;html=1;" vertex="1" parent="-j13bRqeIP-MtHbCBuNI-1">
          <mxGeometry x="605" y="392.5" width="120" height="27.5" as="geometry" />
        </mxCell>
        <mxCell id="WNeF3x2zA7s-wHP01pCP-30" value="" style="rounded=1;whiteSpace=wrap;html=1;" vertex="1" parent="-j13bRqeIP-MtHbCBuNI-1">
          <mxGeometry x="580" y="510" width="260" height="320" as="geometry" />
        </mxCell>
        <mxCell id="WNeF3x2zA7s-wHP01pCP-31" value="&lt;b&gt;&lt;font style=&quot;font-size: 16px;&quot;&gt;Add Fish&lt;/font&gt;&lt;/b&gt;" style="text;html=1;strokeColor=none;fillColor=none;align=left;verticalAlign=middle;whiteSpace=wrap;rounded=0;" vertex="1" parent="-j13bRqeIP-MtHbCBuNI-1">
          <mxGeometry x="605" y="523.75" width="90" height="30" as="geometry" />
        </mxCell>
        <mxCell id="WNeF3x2zA7s-wHP01pCP-32" value="&lt;b&gt;Almost done, how will you feed Gerald?&lt;/b&gt;" style="text;html=1;strokeColor=none;fillColor=none;align=left;verticalAlign=middle;whiteSpace=wrap;rounded=0;" vertex="1" parent="-j13bRqeIP-MtHbCBuNI-1">
          <mxGeometry x="605" y="562.5" width="145" height="30" as="geometry" />
        </mxCell>
        <mxCell id="WNeF3x2zA7s-wHP01pCP-33" value="Finish" style="rounded=1;whiteSpace=wrap;html=1;" vertex="1" parent="-j13bRqeIP-MtHbCBuNI-1">
          <mxGeometry x="740" y="790" width="80" height="27.5" as="geometry" />
        </mxCell>
        <mxCell id="WNeF3x2zA7s-wHP01pCP-34" value="" style="triangle;whiteSpace=wrap;html=1;" vertex="1" parent="-j13bRqeIP-MtHbCBuNI-1">
          <mxGeometry x="680" y="625" width="20" height="30" as="geometry" />
        </mxCell>
        <mxCell id="WNeF3x2zA7s-wHP01pCP-35" value="" style="ellipse;whiteSpace=wrap;html=1;aspect=fixed;" vertex="1" parent="-j13bRqeIP-MtHbCBuNI-1">
          <mxGeometry x="692.5" y="622.5" width="35" height="35" as="geometry" />
        </mxCell>
        <mxCell id="WNeF3x2zA7s-wHP01pCP-36" value="Step 1" style="rounded=0;whiteSpace=wrap;html=1;" vertex="1" parent="-j13bRqeIP-MtHbCBuNI-1">
          <mxGeometry x="650" y="670" width="120" height="30" as="geometry" />
        </mxCell>
        <mxCell id="WNeF3x2zA7s-wHP01pCP-37" value="Back &amp;lt;-" style="rounded=1;whiteSpace=wrap;html=1;" vertex="1" parent="-j13bRqeIP-MtHbCBuNI-1">
          <mxGeometry x="605" y="790" width="120" height="27.5" as="geometry" />
        </mxCell>
        <mxCell id="WNeF3x2zA7s-wHP01pCP-38" value="Add another step" style="rounded=1;whiteSpace=wrap;html=1;" vertex="1" parent="-j13bRqeIP-MtHbCBuNI-1">
          <mxGeometry x="670" y="710" width="80" height="27.5" as="geometry" />
        </mxCell>
      </root>
    </mxGraphModel>
  </diagram>
</mxfile>
